<svg class="blossom1" id="Layer_1" xmlns="http://www.w3.org/2000/svg" xmlns:xlink="http://www.w3.org/1999/xlink" viewBox="0 0 78.5 75.4">
    <style>
        .st0{clip-path:url(#SVGID_2_)}.st1,.st2{clip-path:url(#SVGID_4_);fill:#ffa4bf}.st2{fill:#ffa5bf}.st3,.st4,.st5,.st6,.st7{clip-path:url(#SVGID_4_);fill:#ffa6bf}.st4,.st5,.st6,.st7{fill:#ffa7bf}.st5,.st6,.st7{fill:#ffa8c0}.st6,.st7{fill:#ffa9c0}.st7{fill:#ffaac0}.st10,.st11,.st12,.st8,.st9{clip-path:url(#SVGID_4_);fill:#ffabc0}.st10,.st11,.st12,.st9{fill:#ffacc0}.st10,.st11,.st12{fill:#ffadc0}.st11,.st12{fill:#ffafc0}.st12{fill:#ffb0c0}.st13,.st14,.st15,.st16,.st17{clip-path:url(#SVGID_4_);fill:#ffb1c1}.st14,.st15,.st16,.st17{fill:#ffb2c1}.st15,.st16,.st17{fill:#ffb3c1}.st16,.st17{fill:#ffb4c1}.st17{fill:#ffb5c1}.st18,.st19,.st20,.st21,.st22{clip-path:url(#SVGID_4_);fill:#ffb6c1}.st19,.st20,.st21,.st22{fill:#ffb7c1}.st20,.st21,.st22{fill:#ffb8c1}.st21,.st22{fill:#ffb9c2}.st22{fill:#ffbac2}.st23,.st24,.st25,.st26,.st27{clip-path:url(#SVGID_4_);fill:#ffbbc2}.st24,.st25,.st26,.st27{fill:#ffbcc2}.st25,.st26,.st27{fill:#ffbdc2}.st26,.st27{fill:#ffbec2}.st27{fill:#ffbfc2}.st28,.st29,.st30,.st31,.st32{clip-path:url(#SVGID_4_);fill:#ffc0c3}.st29,.st30,.st31,.st32{fill:#ffc1c3}.st30,.st31,.st32{fill:#ffc2c3}.st31,.st32{fill:#ffc3c3}.st32{fill:#ffc4c3}.st33{fill:#fff}
    </style>
    <defs>
        <path id="SVGID_1_" d="M38 .1c-6.7 1-11.9 6.6-12.2 13.6l-.3 6.2-8.1-2c-7.3-1.8-14.8 2.7-16.6 10l-.4 1.5c-.4 1.7-.5 3.5-.3 5.2.8 5.4 4.7 10 10.3 11.4l4.4 1.1-3.7 6C7 59.8 9.2 68.6 15.9 72.7l.3.2c6.7 4.1 15.5 1.9 19.6-4.8l3.2-5.3 4.2 6.3c3.1 4.6 8.5 6.8 13.7 6.2h.2c2-.3 4-1 5.8-2.2l.4-.3c6.5-4.4 8.2-13.2 3.9-19.7L64 48l4.5-1.4c6.7-2.1 10.8-8.8 9.8-15.5V31c-.1-.8-.3-1.5-.5-2.3l-.1-.4c-2.4-7.5-10.4-11.7-17.9-9.3l-5.3 1.7.2-5.8C55 7 48.9.3 41 0h-.3c-.8 0-1.6 0-2.4.1H38z"/>
    </defs>
    <clipPath id="SVGID_2_">
        <use xlink:href="#SVGID_1_" overflow="visible"/>
    </clipPath>
    <g class="st0">
        <defs>
            <path id="SVGID_3_" transform="rotate(-7.973 40.066 38.752)" d="M1.1.2H79v77.1H1.1z"/>
        </defs>
        <clipPath id="SVGID_4_">
            <use xlink:href="#SVGID_3_" overflow="visible"/>
        </clipPath>
        <path transform="rotate(-4.883 40.07 38.756) scale(1.00003)" class="st1" d="M-.9-1.8h82v81.2h-82z"/>
        <ellipse transform="rotate(-7.973 40.071 38.756)" class="st1" cx="40.1" cy="38.8" rx="38.7" ry="38.7"/>
        <ellipse transform="rotate(-7.973 40.065 38.75)" class="st1" cx="40.1" cy="38.8" rx="36" ry="36"/>
        <ellipse transform="rotate(-7.973 40.082 38.764)" class="st1" cx="40.1" cy="38.8" rx="33.3" ry="33.3"/>
        <ellipse transform="rotate(-7.973 40.068 38.753)" class="st2" cx="40.1" cy="38.8" rx="32.2" ry="32.2"/>
        <ellipse transform="rotate(-7.973 40.077 38.76)" class="st3" cx="40.1" cy="38.8" rx="31.2" ry="31.2"/>
        <ellipse transform="rotate(-7.973 40.073 38.758)" class="st4" cx="40.1" cy="38.8" rx="30.1" ry="30.1"/>
        <ellipse transform="rotate(-7.973 40.07 38.754)" class="st5" cx="40.1" cy="38.8" rx="29.1" ry="29.1"/>
        <ellipse transform="rotate(-7.973 40.08 38.763)" class="st6" cx="40.1" cy="38.8" rx="28.1" ry="28.1"/>
        <ellipse transform="rotate(-7.973 40.063 38.749)" class="st7" cx="40.1" cy="38.8" rx="27" ry="27"/>
        <ellipse transform="rotate(-7.973 40.074 38.758)" class="st8" cx="40.1" cy="38.8" rx="26" ry="26"/>
        <ellipse transform="rotate(-7.987 40.047 38.747)" class="st9" cx="40.1" cy="38.8" rx="24.9" ry="24.9"/>
        <ellipse transform="rotate(-7.973 40.067 38.752)" class="st10" cx="40.1" cy="38.8" rx="23.9" ry="23.9"/>
        <ellipse transform="rotate(-7.973 40.078 38.761)" class="st11" cx="40.1" cy="38.8" rx="22.9" ry="22.9"/>
        <ellipse transform="rotate(-7.973 40.058 38.745)" class="st12" cx="40.1" cy="38.8" rx="21.8" ry="21.8"/>
        <ellipse transform="rotate(-7.973 40.071 38.755)" class="st13" cx="40.1" cy="38.8" rx="20.8" ry="20.8"/>
        <ellipse transform="rotate(-7.973 40.085 38.767)" class="st14" cx="40.1" cy="38.8" rx="19.7" ry="19.7"/>
        <ellipse transform="rotate(-7.973 40.06 38.746)" class="st15" cx="40.1" cy="38.8" rx="18.7" ry="18.7"/>
        <ellipse transform="rotate(-7.973 40.076 38.759)" class="st16" cx="40.1" cy="38.8" rx="17.7" ry="17.7"/>
        <ellipse transform="rotate(-7.987 40.055 38.752)" class="st17" cx="40.1" cy="38.8" rx="16.6" ry="16.6"/>
        <ellipse transform="rotate(-7.973 40.065 38.75)" class="st18" cx="40.1" cy="38.8" rx="15.6" ry="15.6"/>
        <ellipse transform="rotate(-7.973 40.082 38.764)" class="st19" cx="40.1" cy="38.8" rx="14.6" ry="14.6"/>
        <ellipse transform="rotate(-7.967 40.08 38.764)" class="st20" cx="40.1" cy="38.8" rx="13.5" ry="13.5"/>
        <ellipse transform="rotate(-7.973 40.07 38.755)" class="st21" cx="40.1" cy="38.8" rx="12.5" ry="12.5"/>
        <ellipse transform="rotate(-7.987 40.057 38.754)" class="st22" cx="40.1" cy="38.8" rx="11.4" ry="11.4"/>
        <ellipse transform="rotate(-7.967 40.083 38.765)" class="st23" cx="40.1" cy="38.8" rx="10.4" ry="10.4"/>
        <ellipse transform="rotate(-7.973 40.082 38.764)" class="st24" cx="40.1" cy="38.8" rx="9.4" ry="9.4"/>
        <ellipse transform="rotate(-7.973 40.071 38.756)" class="st25" cx="40.1" cy="38.8" rx="8.3" ry="8.3"/>
        <ellipse transform="rotate(-7.973 40.058 38.745)" class="st26" cx="40.1" cy="38.8" rx="7.3" ry="7.3"/>
        <ellipse transform="rotate(-7.987 40.063 38.759)" class="st27" cx="40.1" cy="38.8" rx="6.2" ry="6.2"/>
        <ellipse transform="rotate(-7.961 40.08 38.761)" class="st28" cx="40.1" cy="38.8" rx="5.2" ry="5.2"/>
        <ellipse transform="rotate(-7.973 40.07 38.753)" class="st29" cx="40.1" cy="38.8" rx="4.2" ry="4.2"/>
        <ellipse transform="rotate(-7.987 40.064 38.746)" class="st30" cx="40.1" cy="38.8" rx="3.1" ry="3.1"/>
        <ellipse transform="rotate(-7.946 40.085 38.755)" class="st31" cx="40.1" cy="38.8" rx="2.1" ry="2.1"/>
        <ellipse transform="rotate(-7.987 40.071 38.751)" class="st32" cx="40.1" cy="38.8" rx="1" ry="1"/>
    </g>
    <g>
        <ellipse transform="rotate(-69.885 39.601 40.13)" class="st33" cx="39.6" cy="40.1" rx="6.4" ry="6.4"/>
        <path class="st33" d="M47.7 23.7c.5-.9 0-2.3-1.4-2.7-.9-.5-2.3 0-2.7 1.4-.5.9 0 1.8.9 2.3l-4.6 12.8.9.5 4.6-12.8c.9-.1 1.8-.6 2.3-1.5z"/>
        <path class="st33" d="M47.7 23.7c.5-.9 0-2.3-1.4-2.7-.9-.5-2.3 0-2.7 1.4-.5.9 0 1.8.9 2.3l-4.6 12.8.9.5 4.6-12.8c.9-.1 1.8-.6 2.3-1.5z"/>
        <path class="st33" d="M47.7 23.7c.5-.9 0-2.3-1.4-2.7-.9-.5-2.3 0-2.7 1.4-.5.9 0 1.8.9 2.3l-4.6 12.8.9.5 4.6-12.8c.9-.1 1.8-.6 2.3-1.5zM38.5 21.9c0-1.4-1.4-1.8-2.3-1.8-1.4 0-1.8 1.4-1.8 2.3s.9 1.8 1.8 1.8l2.3 13.2h.9l-2.3-13.2c1-.5 1.9-1.4 1.4-2.3z"/>
        <path class="st33" d="M38.5 21.9c0-1.4-1.4-1.8-2.3-1.8-1.4 0-1.8 1.4-1.8 2.3s.9 1.8 1.8 1.8l2.3 13.2h.9l-2.3-13.2c1-.5 1.9-1.4 1.4-2.3z"/>
        <path class="st33" d="M38.5 21.9c0-1.4-1.4-1.8-2.3-1.8-1.4 0-1.8 1.4-1.8 2.3s.9 1.8 1.8 1.8l2.3 13.2h.9l-2.3-13.2c1-.5 1.9-1.4 1.4-2.3zM29.9 24.6c-.9-.9-2.3-.9-3.2-.5-.9.9-.9 2.3-.5 3.2.5.9 1.8.9 2.7.5l8.7 10.5.9-.9-8.7-10.5c.5-.5.5-1.8.1-2.3z"/>
        <path class="st33" d="M29.9 24.6c-.9-.9-2.3-.9-3.2-.5-.9.9-.9 2.3-.5 3.2.5.9 1.8.9 2.7.5l8.7 10.5.9-.9-8.7-10.5c.5-.5.5-1.8.1-2.3z"/>
        <path class="st33" d="M29.9 24.6c-.9-.9-2.3-.9-3.2-.5-.9.9-.9 2.3-.5 3.2.5.9 1.8.9 2.7.5l8.7 10.5.9-.9-8.7-10.5c.5-.5.5-1.8.1-2.3zM23.5 31.5c-.9-.5-2.3 0-2.7 1.4-.5.9 0 2.3 1.4 2.7.9.5 1.8 0 2.3-.9l12.8 4.6.5-.9L25 33.8c-.1-1.4-.6-2.3-1.5-2.3z"/>
        <path class="st33" d="M23.5 31.5c-.9-.5-2.3 0-2.7 1.4-.5.9 0 2.3 1.4 2.7.9.5 1.8 0 2.3-.9l12.8 4.6.5-.9L25 33.8c-.1-1.4-.6-2.3-1.5-2.3z"/>
        <path class="st33" d="M23.5 31.5c-.9-.5-2.3 0-2.7 1.4-.5.9 0 2.3 1.4 2.7.9.5 1.8 0 2.3-.9l12.8 4.6.5-.9L25 33.8c-.1-1.4-.6-2.3-1.5-2.3zM21.2 40.1c-1.4 0-1.8 1.4-1.8 2.3 0 1.4 1.4 1.8 2.3 1.8s1.8-.9 1.8-1.8l13.2-2.3v-.9l-13.2 2.3c-.5-.9-1.4-1.4-2.3-1.4z"/>
        <path class="st33" d="M21.2 40.1c-1.4 0-1.8 1.4-1.8 2.3 0 1.4 1.4 1.8 2.3 1.8s1.8-.9 1.8-1.8l13.2-2.3v-.9l-13.2 2.3c-.5-.9-1.4-1.4-2.3-1.4z"/>
        <path class="st33" d="M21.2 40.1c-1.4 0-1.8 1.4-1.8 2.3 0 1.4 1.4 1.8 2.3 1.8s1.8-.9 1.8-1.8l13.2-2.3v-.9l-13.2 2.3c-.5-.9-1.4-1.4-2.3-1.4z"/>
        <g>
            <path class="st33" d="M24 49.3c-.9.9-.9 2.3-.5 3.2.9.9 2.3.9 3.2.5s.9-1.8.5-2.7l10.5-8.7-.9-.9-10.5 8.7c-.5-1.1-1.4-1.1-2.3-.1z"/>
            <path class="st33" d="M24 49.3c-.9.9-.9 2.3-.5 3.2.9.9 2.3.9 3.2.5s.9-1.8.5-2.7l10.5-8.7-.9-.9-10.5 8.7c-.5-1.1-1.4-1.1-2.3-.1z"/>
            <path class="st33" d="M24 49.3c-.9.9-.9 2.3-.5 3.2.9.9 2.3.9 3.2.5s.9-1.8.5-2.7l10.5-8.7-.9-.9-10.5 8.7c-.5-1.1-1.4-1.1-2.3-.1z"/>
        </g>
        <g>
            <path class="st33" d="M30.8 55.6c-.5.9 0 2.3 1.4 2.7.9.5 2.3 0 2.7-1.4.5-.9 0-1.8-.9-2.3L38.5 42l-.9-.5L33 54.3c-.8 0-1.7.4-2.2 1.3z"/>
            <path class="st33" d="M30.8 55.6c-.5.9 0 2.3 1.4 2.7.9.5 2.3 0 2.7-1.4.5-.9 0-1.8-.9-2.3L38.5 42l-.9-.5L33 54.3c-.8 0-1.7.4-2.2 1.3z"/>
            <path class="st33" d="M30.8 55.6c-.5.9 0 2.3 1.4 2.7.9.5 2.3 0 2.7-1.4.5-.9 0-1.8-.9-2.3L38.5 42l-.9-.5L33 54.3c-.8 0-1.7.4-2.2 1.3z"/>
        </g>
        <g>
            <path class="st33" d="M39.9 57.5c0 1.4 1.4 1.8 2.3 1.8 1.4 0 1.8-1.4 1.8-2.3 0-.9-.9-1.8-1.8-1.8L39.9 42H39l2.3 13.2c-.9.4-1.4 1.3-1.4 2.3z"/>
            <path class="st33" d="M39.9 57.5c0 1.4 1.4 1.8 2.3 1.8 1.4 0 1.8-1.4 1.8-2.3 0-.9-.9-1.8-1.8-1.8L39.9 42H39l2.3 13.2c-.9.4-1.4 1.3-1.4 2.3z"/>
            <path class="st33" d="M39.9 57.5c0 1.4 1.4 1.8 2.3 1.8 1.4 0 1.8-1.4 1.8-2.3 0-.9-.9-1.8-1.8-1.8L39.9 42H39l2.3 13.2c-.9.4-1.4 1.3-1.4 2.3z"/>
        </g>
        <g>
            <path class="st33" d="M48.6 54.7c.9.9 2.3.9 3.2.5.9-.9.9-2.3.5-3.2-.5-.9-1.8-.9-2.7-.5L40.8 41l-.9 1 8.7 10.5c-.5.4-.5 1.8 0 2.2z"/>
            <path class="st33" d="M48.6 54.7c.9.9 2.3.9 3.2.5.9-.9.9-2.3.5-3.2-.5-.9-1.8-.9-2.7-.5L40.8 41l-.9 1 8.7 10.5c-.5.4-.5 1.8 0 2.2z"/>
            <path class="st33" d="M48.6 54.7c.9.9 2.3.9 3.2.5.9-.9.9-2.3.5-3.2-.5-.9-1.8-.9-2.7-.5L40.8 41l-.9 1 8.7 10.5c-.5.4-.5 1.8 0 2.2z"/>
        </g>
        <g>
            <path class="st33" d="M55 47.9c.9.5 2.3 0 2.7-1.4.5-.9 0-2.3-1.4-2.7-.9-.5-1.8 0-2.3.9l-12.8-4.6-.4.9 12.8 4.6c0 1.4.5 2.3 1.4 2.3z"/>
            <path class="st33" d="M55 47.9c.9.5 2.3 0 2.7-1.4.5-.9 0-2.3-1.4-2.7-.9-.5-1.8 0-2.3.9l-12.8-4.6-.4.9 12.8 4.6c0 1.4.5 2.3 1.4 2.3z"/>
            <path class="st33" d="M55 47.9c.9.5 2.3 0 2.7-1.4.5-.9 0-2.3-1.4-2.7-.9-.5-1.8 0-2.3.9l-12.8-4.6-.4.9 12.8 4.6c0 1.4.5 2.3 1.4 2.3z"/>
        </g>
        <g>
            <path class="st33" d="M57.2 39.2c1.4 0 1.8-1.4 1.8-2.3 0-1.4-1.4-1.8-2.3-1.8S55 36 55 36.9l-13.2 2.3v.9L55 37.9c.4.9 1.3 1.3 2.2 1.3z"/>
            <path class="st33" d="M57.2 39.2c1.4 0 1.8-1.4 1.8-2.3 0-1.4-1.4-1.8-2.3-1.8S55 36 55 36.9l-13.2 2.3v.9L55 37.9c.4.9 1.3 1.3 2.2 1.3z"/>
            <path class="st33" d="M57.2 39.2c1.4 0 1.8-1.4 1.8-2.3 0-1.4-1.4-1.8-2.3-1.8S55 36 55 36.9l-13.2 2.3v.9L55 37.9c.4.9 1.3 1.3 2.2 1.3z"/>
        </g>
        <g>
            <path class="st33" d="M54.5 30.1c.9-.9.9-2.3.5-3.2-.9-.9-2.3-.9-3.2-.5-.9.5-.9 1.8-.5 2.7l-10.5 9.1.9.9 10.5-8.7c.5.2 1.4.6 2.3-.3z"/>
            <path class="st33" d="M54.5 30.1c.9-.9.9-2.3.5-3.2-.9-.9-2.3-.9-3.2-.5-.9.5-.9 1.8-.5 2.7l-10.5 9.1.9.9 10.5-8.7c.5.2 1.4.6 2.3-.3z"/>
            <path class="st33" d="M54.5 30.1c.9-.9.9-2.3.5-3.2-.9-.9-2.3-.9-3.2-.5-.9.5-.9 1.8-.5 2.7l-10.5 9.1.9.9 10.5-8.7c.5.2 1.4.6 2.3-.3z"/>
        </g>
        <g>
            <path class="st33" d="M47.7 23.7c.5-.9 0-2.3-1.4-2.7-.9-.5-2.3 0-2.7 1.4-.5.9 0 1.8.9 2.3l-4.6 12.8.9.5 4.6-12.8c.9-.1 1.8-.6 2.3-1.5z"/>
            <path class="st33" d="M47.7 23.7c.5-.9 0-2.3-1.4-2.7-.9-.5-2.3 0-2.7 1.4-.5.9 0 1.8.9 2.3l-4.6 12.8.9.5 4.6-12.8c.9-.1 1.8-.6 2.3-1.5z"/>
            <path class="st33" d="M47.7 23.7c.5-.9 0-2.3-1.4-2.7-.9-.5-2.3 0-2.7 1.4-.5.9 0 1.8.9 2.3l-4.6 12.8.9.5 4.6-12.8c.9-.1 1.8-.6 2.3-1.5z"/>
        </g>
    </g>
</svg>
