<svg class="blossom2" id="Layer_1" xmlns="http://www.w3.org/2000/svg" viewBox="0 0 97.5 97.8">
    <style>
        .st0{fill:url(#SVGID_1_)}.st1{fill:url(#SVGID_2_)}.st2{fill:url(#SVGID_3_)}.st3{fill:url(#SVGID_4_)}.st4{fill:url(#SVGID_5_)}.st5{fill:url(#SVGID_6_)}.st6{fill:url(#SVGID_7_)}.st7{fill:url(#SVGID_8_)}
    </style>
    <radialGradient id="SVGID_1_" cx="2622.592" cy="1233.226" r="16.287" gradientTransform="scale(-1 1) rotate(-31.277 -777.724 5398.451)" gradientUnits="userSpaceOnUse">
        <stop offset="0" stop-color="#ffa4bf"/>
        <stop offset=".689" stop-color="#ffa2bf"/>
        <stop offset=".936" stop-color="#ff9bbf"/>
        <stop offset="1" stop-color="#ff98bf"/>
    </radialGradient>
    <path class="st0" d="M28.6 82.2l-.7 11.5c4.3-1.6 9.2-6.2 12.9-12.4 5.8-9.7 4-25.8 4-25.8s-15.3 5.7-21 15.4C20 77 18.3 83.4 18.8 88l9.8-5.8z"/>
    <radialGradient id="SVGID_2_" cx="2622.621" cy="1176.764" r="16.285" gradientTransform="scale(-1 1) rotate(-31.277 -777.724 5398.451)" gradientUnits="userSpaceOnUse">
        <stop offset="0" stop-color="#ffa4bf"/>
        <stop offset=".689" stop-color="#ffa2bf"/>
        <stop offset=".936" stop-color="#ff9bbf"/>
        <stop offset="1" stop-color="#ff98bf"/>
    </radialGradient>
    <path class="st1" d="M68.9 16l.7-11.5c-4.3 1.6-9.2 6.2-12.9 12.4-5.8 9.7-4 25.8-4 25.8S68 37 73.7 27.3c3.8-6.2 5.5-12.6 5.1-17.2L68.9 16z"/>
    <g>
        <radialGradient id="SVGID_3_" cx="2191.195" cy="2123.909" r="16.27" gradientTransform="scale(-1 1) rotate(-76.278 -232.038 2498.752)" gradientUnits="userSpaceOnUse">
            <stop offset="0" stop-color="#ffa4bf"/>
            <stop offset=".689" stop-color="#ffa2bf"/>
            <stop offset=".936" stop-color="#ff9bbf"/>
            <stop offset="1" stop-color="#ff98bf"/>
        </radialGradient>
        <path class="st2" d="M11.2 58.2l-8.8 7.6c4.3 1.8 10.8 2 17.9.4 11-2.7 21.1-15.4 21.1-15.4S26.5 44.2 15.5 47C8.6 48.7 2.8 52-.2 55.6l11.4 2.6z"/>
        <radialGradient id="SVGID_4_" cx="2191.231" cy="2067.387" r="16.249" gradientTransform="scale(-1 1) rotate(-76.278 -232.038 2498.752)" gradientUnits="userSpaceOnUse">
            <stop offset="0" stop-color="#ffa4bf"/>
            <stop offset=".689" stop-color="#ffa2bf"/>
            <stop offset=".936" stop-color="#ff9bbf"/>
            <stop offset="1" stop-color="#ff98bf"/>
        </radialGradient>
        <path class="st3" d="M86.4 39.9l8.8-7.6c-4.3-1.8-10.8-2-17.9-.4-11 2.7-21.1 15.4-21.1 15.4S71 54 82 51.2c7-1.7 12.7-5.1 15.7-8.7l-11.3-2.6z"/>
    </g>
    <g>
        <radialGradient id="SVGID_5_" cx="1256.361" cy="2448.368" r="16.243" gradientTransform="scale(1 -1) rotate(58.723 2846.92 112.254)" gradientUnits="userSpaceOnUse">
            <stop offset="0" stop-color="#ffa4bf"/>
            <stop offset=".689" stop-color="#ffa2bf"/>
            <stop offset=".936" stop-color="#ff9bbf"/>
            <stop offset="1" stop-color="#ff98bf"/>
        </radialGradient>
        <path class="st4" d="M15.6 28.9l-11.4-.7c1.6 4.3 6.2 9.2 12.4 12.9 9.7 5.8 25.8 4 25.8 4s-5.7-15.3-15.4-21c-6.2-3.8-12.6-5.4-17.2-5l5.8 9.8z"/>
        <radialGradient id="SVGID_6_" cx="1256.359" cy="2391.893" r="16.207" gradientTransform="scale(1 -1) rotate(58.723 2846.92 112.254)" gradientUnits="userSpaceOnUse">
            <stop offset="0" stop-color="#ffa4bf"/>
            <stop offset=".689" stop-color="#ffa2bf"/>
            <stop offset=".936" stop-color="#ff9bbf"/>
            <stop offset="1" stop-color="#ff98bf"/>
        </radialGradient>
        <path class="st5" d="M82 69.1l11.5.7c-1.6-4.3-6.2-9.2-12.4-12.9-9.7-5.8-25.8-4-25.8-4s5.7 15.3 15.4 21c6.2 3.8 12.6 5.5 17.2 5.1L82 69.1z"/>
    </g>
    <g>
        <radialGradient id="SVGID_7_" cx="365.728" cy="2017" r="16.26" gradientTransform="scale(1 -1) rotate(13.722 8675.089 -347.463)" gradientUnits="userSpaceOnUse">
            <stop offset="0" stop-color="#ffa4bf"/>
            <stop offset=".689" stop-color="#ffa2bf"/>
            <stop offset=".936" stop-color="#ff9bbf"/>
            <stop offset="1" stop-color="#ff98bf"/>
        </radialGradient>
        <path class="st6" d="M39.6 11.4L32 2.6c-1.8 4.3-2 10.8-.4 17.9C34.3 31.5 47 41.6 47 41.6s6.7-14.8 3.9-25.8C49.1 8.8 45.8 3 42.2 0l-2.6 11.4z"/>
        <radialGradient id="SVGID_8_" cx="365.723" cy="1960.426" r="16.285" gradientTransform="scale(1 -1) rotate(13.722 8675.089 -347.463)" gradientUnits="userSpaceOnUse">
            <stop offset="0" stop-color="#ffa4bf"/>
            <stop offset=".689" stop-color="#ffa2bf"/>
            <stop offset=".936" stop-color="#ff9bbf"/>
            <stop offset="1" stop-color="#ff98bf"/>
        </radialGradient>
        <path class="st7" d="M57.9 86.6l7.6 8.8c1.8-4.3 2-10.8.4-17.9-2.7-11-15.4-21.1-15.4-21.1s-6.7 14.8-3.9 25.8c1.7 7 5.1 12.7 8.7 15.7l2.6-11.3z"/>
    </g>
</svg>
