<?xml version="1.0" encoding="utf-8"?>
<!-- Generator: Adobe Illustrator 21.0.2, SVG Export Plug-In . SVG Version: 6.00 Build 0)  -->
<svg version="1.1" id="Layer_1" xmlns="http://www.w3.org/2000/svg" xmlns:xlink="http://www.w3.org/1999/xlink" x="0px" y="0px"
	 viewBox="0 0 1366 768" style="enable-background:new 0 0 1366 768;" xml:space="preserve">
<style type="text/css">
	.st0{fill:none;stroke:#B6A2DD;stroke-width:3;stroke-miterlimit:10;}
	.st1{fill:none;stroke:#FCF0F8;stroke-miterlimit:10;}
	.st2{fill:none;stroke:#9A11D3;stroke-miterlimit:10;}
	.st3{fill:none;stroke:#000000;stroke-miterlimit:10;}
	.st4{fill:none;stroke:#000000;stroke-width:2;stroke-miterlimit:10;}
	.st5{fill:none;stroke:#3F0F0F;stroke-miterlimit:10;}
	.st6{fill:none;stroke:#000000;stroke-width:1.5;stroke-miterlimit:10;}
	.st7{fill:none;stroke:#CCBA60;stroke-miterlimit:10;}
	.st8{fill:none;stroke:#000000;stroke-width:0.75;stroke-miterlimit:10;}
	.st9{fill:none;stroke:#E21779;stroke-miterlimit:10;}
	.st10{fill:none;stroke:#F9CDE6;stroke-miterlimit:10;}
	.st11{fill:none;stroke:#FFD652;stroke-miterlimit:10;}
	.st12{fill:none;stroke:#000000;stroke-width:0.5;stroke-miterlimit:10;}
	.st13{fill:none;stroke:#636363;stroke-miterlimit:10;}
	.st14{fill:none;stroke:#FC9595;stroke-width:0.75;stroke-miterlimit:10;}
	.st15{fill:none;stroke:#D6D6D6;stroke-width:2;stroke-miterlimit:10;}
	.st16{fill:none;stroke:#F5E38B;stroke-width:2;stroke-miterlimit:10;}
	.st17{fill:none;stroke:#D11E1E;stroke-width:1.5;stroke-miterlimit:10;}
	.st18{fill:none;stroke:#EF4DAD;stroke-miterlimit:10;}
	.st19{fill:none;stroke:#F4F4F4;stroke-miterlimit:10;}
	.st20{fill:none;stroke:#FFFFFF;stroke-miterlimit:10;}
	.st21{fill:none;stroke:#F3D2FF;stroke-miterlimit:10;}
	.st22{fill:#FFFFFF;}
	.st23{fill:none;stroke:#F5E38B;stroke-width:0.75;stroke-miterlimit:10;}
	.st24{fill:none;stroke:#1A2482;stroke-width:2;stroke-miterlimit:10;}
	.st25{fill:none;stroke:#DB2626;stroke-width:2;stroke-miterlimit:10;}
	.st26{fill:none;stroke:#FFE12E;stroke-width:2;stroke-miterlimit:10;}
	.st27{fill:none;stroke:#FC9595;stroke-width:2;stroke-miterlimit:10;}
	.st28{fill:none;stroke:#C6C6C6;stroke-width:2;stroke-miterlimit:10;}
	.st29{fill:none;stroke:#F5E38B;stroke-miterlimit:10;}
	.st30{fill:none;stroke:#AF2020;stroke-width:2;stroke-miterlimit:10;}
	.st31{fill:none;stroke:#F4D4D4;stroke-width:2;stroke-miterlimit:10;}
	.st32{fill:none;stroke:#E54848;stroke-width:2;stroke-miterlimit:10;}
	.st33{fill:none;stroke:#991F1F;stroke-width:2;stroke-miterlimit:10;}
	.st34{fill:none;stroke:#9B1C1C;stroke-width:3;stroke-miterlimit:10;}
	.st35{fill:none;stroke:#3F2406;stroke-miterlimit:10;}
	.st36{fill:none;stroke:#A51111;stroke-width:2;stroke-miterlimit:10;}
	.st37{fill:none;stroke:#B3DBA2;stroke-width:2;stroke-miterlimit:10;}
	.st38{fill:none;stroke:#F25353;stroke-miterlimit:10;}
	.st39{fill:none;stroke:#EFEFEF;stroke-width:2;stroke-miterlimit:10;}
	.st40{fill:none;stroke:#962A2A;stroke-width:2;stroke-miterlimit:10;}
	.st41{fill:none;stroke:#E21717;stroke-width:2;stroke-miterlimit:10;}
	.st42{fill:none;stroke:#C41616;stroke-width:2;stroke-miterlimit:10;}
	.st43{fill:none;stroke:#B6A2DD;stroke-width:2;stroke-miterlimit:10;}
	.st44{fill:none;stroke:#B6A2DD;stroke-miterlimit:10;}
	.st45{fill:none;stroke:#C6C6C6;stroke-miterlimit:10;}
	.st46{fill:none;}
	.st47{fill:none;stroke:#D80000;stroke-width:2;stroke-miterlimit:10;}
	.st48{fill:none;stroke:#F44040;stroke-width:2;stroke-miterlimit:10;}
	.st49{fill:none;stroke:#F580F9;stroke-width:2;stroke-miterlimit:10;}
	.st50{fill:none;stroke:#A50404;stroke-width:3;stroke-miterlimit:10;}
	.st51{fill:none;stroke:#F4DEB8;stroke-width:2;stroke-miterlimit:10;}
</style>
<g id="Layer_3">
	<path class="st0" d="M214.2,158.2c-2.6-1.6-3.2-5-3.8-7.9c-0.7-3-2.2-6.3-5.2-6.7c-2.2-0.3-4.2,1.2-5.8,2.8
		c-3.1,3-5.7,6.5-7.6,10.4c-2.2,4.4-3.8,9.5-8.1,11.9c-5.3,3.1-12,0.5-18.1-0.5c-7-1.1-15.4,0.8-18.5,7.2c-1.7,3.5-1.5,7.6-0.1,11.2
		c1.4,3.6,3.9,6.7,6.6,9.4c2.1,2.2,4.6,4.4,5.1,7.4c1,5.9-6,11.1-4.7,16.9c-2.1,6.6,3.9,14.3,10.8,14c2.8-0.2,6.8-0.6,9.3,0.4"/>
	<line class="st1" x1="827.5" y1="427.8" x2="827.5" y2="445.4"/>
	<line class="st1" x1="822.7" y1="427.5" x2="822.7" y2="443.3"/>
	<path class="st2" d="M1161,215c0,0-1.2,2.6,0.8,3.6c0,0-2.4,1.9-0.2,3.8c2.1,1.9,0,0,0,0"/>
	<path class="st2" d="M1167.5,188.1c0,0,13.2-21.1,43.8-24.7c16.2-1.9,24.7,13.3,24.7,13.3"/>
	<path class="st3" d="M968.9,683.9c11-12.6,12.7-31,9.6-47.5c-3.1-16.5-10.3-31.8-15.1-47.8c-9.5-31.4-10.4-66.4-28.7-93.6
		c-9.7,6.7-22.5-2.7-29.3-12.2c-8.2-11.5-14.3-24.5-18-38.1"/>
	<path class="st4" d="M872.9,447.7c9.1-2.4,39-5.7,51.7-15.5c13-10.1,48.5-64,78.4-80.6c5-2.9,10.2-5.4,15.6-7.5
		c13.8-5.4,28.6-7.5,42.8-11.2c25-6.6,59.5-24.2,85.5-12.7c6,2.7,10.8,7.6,14.2,13.1c8.2,13.2,9,27.4,8.5,42.6
		c-0.2,4.2-0.4,8.4,0.3,12.5c0.6,3.7,2,7.3,3.2,10.9c6.5,18.8,9.3,39,8.3,58.9c-1,17.8-5,32.4-11.7,48.8
		c-4.4,10.9-8.9,22.5-14.7,32.7c-5.8,10.4-11.2,20.7-15.1,32c-3.6,10.6-10.8,20-16.4,29.7c-9.5,16.6-25,31.1-45.4,31
		c-15.4-0.1-30.4-8.6-43.8-15.3c-9.3-4.7-17.7-11-24.6-18.7"/>
	<path class="st5" d="M1169,406.2c-8.9,10.5-22.4,15.1-34.5,20.7c-6.3,2.9-22.9,13-24.6,14.8c-1.8,2-2.5,6.9,0.7,8.1
		c1.2,0.5,2.7-0.2,3.8-0.9c5.9-3.4,10.8-8.1,16.8-11.5c5.7-3.3,11.8-6,17.5-9.2C1157.6,423.2,1166.6,416.2,1169,406.2z"/>
	<path class="st4" d="M1138.5,460.8c1-0.3,1.9-0.6,2.9-1c4.6-1.7,14.6-5.6,23.2-15.1c0,0,10,6.4,14.4,6.3c-1.5,1.8-4.1,2.8-6.4,2.5
		c1.5,0.6,3,1.3,4.2,2.3c-2.7,0.2-5.3,0.1-8-0.3c1.5,1.2,3,2.5,4.7,3.7c-2.4,0.2-4.8-0.3-6.9-1.1c2.2,1.7,4.6,3.1,7,4.5
		c-2.9,0.1-5.8-0.5-8.5-1.4c1.3,1,2.6,1.9,3.9,2.9c-2.1-0.3-4.2-0.6-6.2-0.8c1.4,1.3,2.9,2.7,4.3,4.1c-2.6-0.6-5.1-1-7.7-1.6
		c2.8,2,5.4,4,8.2,6.1c-4-0.1-8-1-11.6-2.7c1.5,1.6,3,3.2,4.6,4.9c-2.9-0.1-5.7-1-8.1-2.6c1.1,1.5,2.2,3,3.3,4.5
		c-2.1-0.6-4.1-1.4-5.9-2.5c1,1.2,1.5,2.7,1.8,4.2c-2.8-0.5-5.4-1.8-7.4-3.9c0.8,1.2,2,3.2,3.1,4.1c-2.9,0.1-6-1.4-8.5-2.9
		c0.8,0.8,1.6,1.4,2.4,2.2c-3-0.3-6-1.3-8.5-3.1c0.9,1.5,1.8,3,2.7,4.5c-3-0.8-4.2-2.4-6.5-4.5c-0.1,1.5-2.2,3.4-2.7,4.9
		c-0.4-1.8,0.3-4.9-0.1-6.8c-0.5,1.5-2,3.8-3.3,4.8c-1-1.7-0.4-3.7-1.4-5.4c0.3,1-1.1,3.5-1,4.6c-0.7-2.8-7.9-7.2-9.9-9
		c2.2-0.8,5.1-0.7,7.5-1C1125,464.7,1131.7,463,1138.5,460.8z"/>
	<path class="st4" d="M1018,482.8c-12-1.1-21.3-3.2-29.4-5.2c-2.2-0.3-7.2,7.9-12.5,10.9c3.6,1.2,7.7,1.1,11.2-0.2
		c-1.2,0.7-2.4,1.3-3.6,2c1.7,0.2,3.5,0,5.2-0.6c-0.5,1.2-1.3,2.3-2.5,3c1.8-0.8,3.5-1.7,5.1-3c-0.7,1.9-1.6,3.6-2.8,5.2
		c1.9-0.9,3.6-2.3,4.9-4.1c0.2,1.6-0.4,3.4-1.4,4.7c1-0.9,2.1-1.8,3-2.7c0.5,1.3,0.5,2.9,0,4.2c1-1,2.1-1.8,3.1-2.8
		c0,1.1,0.1,2.3,0.1,3.4c1.8-0.5,3.4-1.7,4.4-3.3c0.4,1.4,0.9,2.9,1.2,4.2c0.6-1.2,1-2.4,1.6-3.6c0.7,1.7,0.7,3.6,0,5.3
		c2.8-1.3,5-3.5,6.7-6.2c2.2,2.2,4.1,4.8,5.5,7.5c0.4-1.7,0-3.6-1-5c1,1.5,2,3,3,4.5c0.7-1.4,1-3,0.9-4.6c1,1.5,2.8,2.7,4.7,3.1
		c-0.4-0.8-0.8-1.4-1.2-2.2c1,0.4,2.1,0.8,3.2,1.1c0.2-0.9,0.4-1.7,0.5-2.6c1,1,2.2,1.8,3.6,2.3c0.3-0.9,0.5-1.7,0.8-2.6
		c1.1,0.3,2.2,1,3,1.9c0.7-0.8,1-1.8,0.8-2.8c1.2,1.2,3,1.9,4.7,1.8c-1.4-0.8-2.4-2.3-2.4-3.8c1.3,1.4,3.3,2.2,5.2,2.1
		c-0.8-1-1.6-2.2-2.4-3.2c1.6,1.6,4.1,2.3,6.3,1.7c-0.7-1.4-1.4-2.8-2.4-4c1.7,0.6,3.5,1.1,5.2,1.8c-0.7-1.7-1.1-3.5-1.3-5.3
		c-0.1-1.3-0.1-4.2-0.7-5.3C1048.5,480.4,1027.6,483.6,1018,482.8z"/>
	<path class="st3" d="M1100.9,477.3c2.1,12.2,4.3,24.5,8.2,36.2c2.1,6.5,4.9,12.9,5.2,19.8c0.5,6.9-1.9,14.4-7.7,18
		c-6.4,3.9-14.7,2.1-21.5-0.9c-3.4-1.4-6.8-3.2-10.5-3.4c-2.3-0.2-4.6,0.3-6.8-0.4c-2.8-0.9-4.9-3.5-4.9-6.5c-0.1-3,1.8-5.7,4.5-6.8
		"/>
	<path class="st3" d="M1147.7,553.6c-0.5,4.6,2.6,6.2,5.9,9.4c5.3,5.2,10.9,10.1,16.9,14.5c5,3.7,10.4,7.1,15.4,11
		c4.6,3.6,8.9,7.5,13.1,11.5c10.5,9.8,20.9,19.5,31.5,29.3c9.8,9.1,19.8,18.6,25,30.8"/>
	<path class="st6" d="M1221.8,384.6c4.2-0.6,5.1-6.5,7.5-9.8"/>
	<path class="st6" d="M1177.5,416.2c7.6,0.8,14.3-4.9,20-9.7c6.7-5.7,17.4-15.5,19.5-17.3"/>
	<path class="st6" d="M1164.6,165.7c4.7,4.5,7.2,8.1,8.9,14.4"/>
	<path class="st7" d="M1055.2,135.8c3.6-19.7,7.1-40.3,1.8-59.6c18.6,3.2,37.6,6.8,53.7,16.5c13.1,8,23.7,19.7,32.2,32.5
		s14.8,26.9,21.3,40.9c-11.2,2.6-29.1,6-40.4,8.7"/>
	<path class="st8" d="M1059,650.9c13.2,4.2,27.7,2.5,41.2-1s26.5-8.6,40.2-11.3"/>
	<path class="st9" d="M1246.8,646.5c11.9,5.2,24.6,8.8,37.6,10.2c3.3,0.4,7,0.8,9.3,3.3c-41.4-3.2-83.7,5.7-120.2,25.4
		c-20.5,11-38.9,25.2-57.4,39.4c-12.5,9.6-25,19.2-37.5,28.8"/>
	<path class="st9" d="M914.7,755.1c-4.1-10.3-8.2-20.7-12.3-30.9c-3.6-9.2-8.1-18-11.6-27.3c-1.5-4.1-1.9-5.5-3.4-9.6
		c-7.7-19.9-14.5-40.3-20.2-60.8c-5-17.9-9.3-36-12.8-54.2c-1.6-8.1-3.3-15.2-1.2-23.3c1.8-7.1,6.2-13.6,12.3-17.8
		c7.9-5.4,18-6.7,27-3.8c10.6,3.3,21.3,6.1,32,8.9c5.5,1.5,8.9,1.9,14.5,2.6c4.1,0.5,8.5,0.6,12.3-1"/>
	<path class="st9" d="M1308.4,752c-10.6-21.7-14.1-46.8-9.9-70.6c1.3-7.6,3.1-15.1,4.6-22.7c1.1-6.4-11.2-3.5-14.5-3.6
		c-7.2-0.4-14.3-2-21.2-3.9c-8.2-2.3-16.3-4.9-23.7-8.9"/>
	<path class="st3" d="M1046.4,329.2"/>
	<circle class="st10" cx="886.7" cy="207.1" r="2.9"/>
	<circle class="st10" cx="893.4" cy="219.5" r="2.9"/>
	<circle class="st10" cx="902.9" cy="210" r="3.8"/>
	
		<ellipse transform="matrix(0.2329 -0.9725 0.9725 0.2329 501.7593 1046.7292)" class="st11" cx="914.4" cy="205.3" rx="3.8" ry="4.8"/>
	<path class="st12" d="M1036.8,638.2c-8.4,2.3-16.6,6.1-22.5,12.4c-5.9,6.4-9,15.7-6.6,24"/>
	<path class="st8" d="M965.9,663.8c-3.1-4.6-4.5-10.3-3.6-15.7s3.8-10.6,8.2-13.9"/>
	<path class="st9" d="M952.9,543.2c-3.1,1.5-6.8,1.7-10.2,1.9c-6.1,0.3-12.3,0.5-18.4-0.1c-7.6-0.8-14.9-2.9-22.5-4.3
		c-7.5-1.4-15.3-2-22.7,0.1c-2.9,0.9-5.6,2.1-8.3,3.5c-4.7,2.5-9.2,5.7-11.9,10.2c-2.9,4.9-3.4,10.7-3.2,16.3
		c0.1,4.8,0.7,9.4,1.6,14.1"/>
	<path class="st3" d="M907.1,451.2c3.1,0.9,6.3,1.9,9.3,3.1c0.7,0.3,1.2,0.6,1.7,1c0.5,0.7,0.7,1.5,0.7,2.3c0,2.1-0.7,4.2-0.5,6.4
		c0.4,4.1,4,7.2,4.6,11.3c0.1,0.5,0.1,1-0.2,1.3c-0.4,0.6-1.1,0.7-1.7,0.4c-0.6-0.2-1-0.8-1.5-1.2c-3.1-3.5-6.2-7.1-9-10.9"/>
	<path class="st12" d="M1056.6,477.4c-31.8,11.9-74.9-2.6-76.2-3.1"/>
	<path class="st12" d="M1165.1,442.7c-15.2,19.8-55.4,24.2-60.4,24.3"/>
	<path class="st9" d="M872.5,527.5c-2.8,0.8-6.7,2.2-9,3.7c-3.4,2.2-5.4,5.1-8,8.2c-3,3.7-6,7.4-8.9,11.2
		c-5.8,7.5-11.3,15.1-16.9,22.8c-6.1,8.4-12.2,16.8-17.2,25.7c-11.1,19.7-17.1,42-21.9,64.1c-6.6,30.5-11.6,62.9-30.2,88"/>
	<path class="st3" d="M1049.5,481.5"/>
	<path class="st5" d="M971.5,446.4c6.9-2,15.3-0.5,22.6,0.4c14.8,1.9,27.8,2.7,42.7,3.3c6.5,0.3,12.9-0.5,19,1.8
		c1.3,0.5,3.4,1,4.4,2.1c1,1,1.4,2.6,1,3.8c-1,2.2-3.9,2.3-6.3,2c-6.4-0.7-43.5-7-49.9-7.7C1000.2,451.6,972.6,446,971.5,446.4z"/>
	<path class="st6" d="M892.3,459.2c0,0-12.6,9-49.2-5.4"/>
	<path class="st13" d="M927.2,215.7c0,0-16.7-0.2-33.8,14.5c0,0-25.2-16.7-8.8-45.9"/>
	<path class="st13" d="M891.2,174c0,0,2.9-6,11.1-8.9c0,0,9.2,16,36.8,26.8"/>
	<path class="st6" d="M780.3,298.8c0,0-1.4-13.1,3.9-26.9"/>
	<path class="st6" d="M955.1,88.8c0,0,37-17.4,102.7-6.2"/>
	<line class="st14" x1="1225.8" y1="338.3" x2="1224.8" y2="343.1"/>
	<line class="st14" x1="1229.3" y1="337.5" x2="1228" y2="343.4"/>
	<line class="st15" x1="812.9" y1="292.5" x2="754.5" y2="306.3"/>
	<line class="st15" x1="814.3" y1="296.8" x2="756.5" y2="310"/>
	<line class="st16" x1="920.2" y1="239.1" x2="830.2" y2="243.4"/>
	<polyline class="st16" points="1224,203.2 1207.3,205.5 1149.3,217.3 	"/>
	<path class="st17" d="M954.3,173.6c3.7-5,0.8-14.1-3.4-18.7c-2.3-2.6-5.9-4.9-5.7-8.3c0.1-2.7,2.5-4.6,4.4-6.5
		c5.2-5.1,8.5-12.2,8.8-19.5c0.1-2.8-1-6.4-3.8-6.2c-2.3,0.2-3.2,2.9-4.9,4.5c-2.3,2.1-5.3,1.6-8.1,0.8c-2.6-0.8-6.4-0.4-8.6-1.9
		c-2.2-1.6-2.3-4.4-4.6-6.1c-0.5-0.4-0.8-0.9-1.2-1.3c-1.1-1.1-3-1.1-4.6-1.2c-3.7-0.3-7.3-1.1-10.9-2.1c-2.5-0.7-7.5-2-9.9-0.6
		c-0.6,0.4-1,0.9-1.5,1.3c-1.5,1.2-3.6,1.3-5.5,1.6c-1.9,0.3-4.1,0.9-5,2.6c-1,1.8-0.3,4.1,0.1,6.1c1,5.8-2.6,8.1-7.6,10.1
		c-4.9,2-10.4,2.6-15.6,3.7c-6.2,1.4-12.2,3.7-17.8,6.9c-2.1,1.1-4.1,2.5-5.3,4.5c-2.6,4-1.3,9.6-4.3,13.3c-1.3,1.7-3.4,3-3.4,5.1
		c0,1.5,1.1,2.9,1.7,4.3c2.4,6.7-8.1,11.2-9.1,18.3c-0.4,3,1,6.3-0.7,8.9s-5.4,3-6.8,5.7c-1.2,2.5,0.3,5.4-0.1,8.1
		c-0.5,3.6-4,5.9-6.8,8.3c-2.8,2.4-5.1,6.6-3,9.5"/>
	<path class="st17" d="M896.7,165.6c-1.6-4.2-3-9.9,0.8-12.5c3-2.1,8.1-1.3,9.1-4.8c0.5-1.3-0.1-3,0.3-4.3c0.9-2.9,5-3,7.7-1.5
		c2.6,1.6,4.5,4.2,7.1,5.4s6.2,1.1,7.9,3.6c1.2,1.9,0.8,4.5,1.7,6.6c1.1,2.7,4.3,3.9,6.2,6.1c2.2,2.4,2.8,6.1,1.4,9
		c-0.8,1.7-2.1,3.2-2.9,4.9c-0.7,1.8-0.5,4.2,1.2,5.1"/>
	<path class="st17" d="M829.1,262c3.7,0.4,7.2,4.9,7.5,8.5"/>
	<path class="st17" d="M864.4,278.1c-0.5-1-1.9-1.1-3-1.3c-2.4-0.6-4.4-2.7-4.9-5.1c0,0.2-0.1-1-0.8-1.5c-1.7,3-4.5,7.2-8.3,7.1"/>
	<path class="st17" d="M897.2,253.3c-3,2-4.9,5.6-4.8,9.3c0,0.8,0.1,1.6-0.2,2.3c-0.6,1-1.9,1.3-3,1.8s-2.2,3.2-1.6,4.3"/>
	<path class="st17" d="M926.8,146.5c-2.3-2.8-2.2-6.9-0.6-10.1c1.6-3.2,4.2-5.7,6.9-8.1c0.4-0.4,0.8-0.7,1.2-0.9
		c1.7-0.5,2.9,1.7,3,3.5c0.2,1.7,0.5,4,2.2,4.4c1.1,0.3,2.5-0.6,3.6-0.1c1,0.5,1.2,1.9,1.5,3s1.3,2.5,2.4,2"/>
	<path class="st17" d="M874.3,214.4c1.2,2.1,2,4.6,1.8,7c-0.2,2.5-1.5,4.9-3.7,6.1c-1,0.6-2.1,0.9-3,1.7c-1.7,1.7-1.4,4.9-3.3,6.3
		c-0.8,0.7-1.8,0.9-2.8,1.1c-1,0.4-1.9,1-2.1,2"/>
	<path class="st17" d="M867.9,223.7c-3.9-0.9-8.2,0.9-10.5,4c-1.3,1.9-2.2,4.3-4.2,5.3c-2.2,1.1-4.9,0.3-7.2-0.3
		c-2.4-0.7-5.3-0.9-6.9,1c-0.7,0.8-1,1.8-1.4,2.7c-0.5,0.9-1.3,1.7-2.4,1.6c-1-0.1-1.7-1-2-1.9c-0.3-1-0.3-1.9-0.6-2.9
		c-1-3.6-5-5.3-8.6-6.6"/>
	<line class="st16" x1="919.1" y1="252" x2="831.7" y2="253.9"/>
	<path class="st17" d="M848.5,141.7c1-1.7,3.5-1.8,5.1-0.8c1.6,1.1,2.5,3,3.4,4.8c1,1.7,2.1,3.5,4,4.2c0.8,0.3,1.5,0.4,2.1,0.9
		c1,1,0.8,2.8,1.6,3.8c1.9,2.6,7.3-0.7,8.9,2.1c0.5,1,0.3,2.3,1,3c1.4,1.6,4.9-0.5,5.9,1.4c0.6,1-0.1,2.3,0.4,3.3
		c0.4,0.8,1.3,1.1,2.2,1.3s1.8,0.3,2.5,1c0.7,0.6,0.8,1.9,0,2.3"/>
	<path class="st17" d="M864.9,134.5c2-1,4.8-0.1,5.7,1.9c0.7,1.4,0.9,3.4,2.4,3.7s2.9-1.5,4.3-1.1c1.5,0.5,1.4,2.9,2.8,3.7
		c0.8,0.5,1.8,0.3,2.6,0.7c1.8,1,1,3.7,2.2,5.4s3.9,1.9,4.6,3.9c0.4,1-0.2,2.2-0.4,3.3s0.1,2.6,1.1,2.9c0.5,0.1,1,0,1.4,0.1
		c1.5,0.5,1.3,3.3,2.9,3.3"/>
	<line class="st15" x1="920.4" y1="262.4" x2="850" y2="282.2"/>
	<path class="st17" d="M844,162.5c1-1,2.6-1,3.7-0.3c1.1,0.7,2,1.7,2.9,2.8s1.8,2.4,2.7,3.5s2,2.4,3.4,2.1c1.3-0.3,2-1.8,2.6-3
		c0.7-1.2,2.1-2.5,3.2-1.7c0.8,0.5,0.9,1.5,1.1,2.4c0.7,1.9,3,3,4.9,2.5c0.6,1.4,1.2,2.8,1.8,4.2c1.5-0.5,3.3-0.1,4.6,1
		c0.4,0.3,0.7,0.7,1.1,1c1,0.5,2.1-0.2,3.1-0.3s2.4,1,1.7,1.8"/>
	<path class="st17" d="M892.9,121.1c2.5-0.3,4.7,1.7,5.5,4s0.5,4.9,0.2,7.3c1.1-0.7,2.7,0,3.3,1.1c0.7,1,0.8,2.5,0.9,3.7
		c0.1,2.6,0.3,5,0.4,7.6"/>
	<path class="st17" d="M914.5,139.8c1.2-1.3,0.7-3.5-0.4-5c-1-1.5-2.4-2.9-2.9-4.7c-0.3-1.2-0.1-2.5-0.3-3.6
		c-0.4-2.3-1.9-4.1-2.6-6.3c-0.7-2.2,0.4-5.2,2.7-5.2"/>
	<path class="st17" d="M926.9,179c1.3-3.8,0.5-8.3-2.2-11.3c-1-1.1-2.3-2.2-2.9-3.6c-1.2-3,0.5-7.2-2.2-8.9c-1-0.7-2.4-0.6-3.5-1
		c-1.1-0.5-2-2.2-1-3"/>
	<path class="st17" d="M831.5,200c0.4,0.9,0.9,1.8,1.6,2.4c0.8,0.6,2,0.7,2.7-0.1c0.3-0.3,0.4-0.7,0.7-0.9c0.8-0.5,1.7,0.5,2.1,1.2
		c0.5,0.9,1.4,1.7,2.2,1.1c0.3-0.2,0.4-0.7,0.7-1c0.8-0.8,1.9,0,2.6,0.8s1.3,1.8,2.4,1.7c1.4-0.2,2.1-2.7,3.4-2.1
		c0.6,0.2,0.8,0.8,1,1.2c1.1,1.9,3.8,2.9,5.8,2c0.9-0.4,1.7-1,2.7-0.8c0.4,0.1,0.7,0.3,1,0.6c1.1,1,2.3,1.9,3.2,3"/>
	<path class="st17" d="M823.5,220.5c1.6,1.5,4.4,1.7,6.2,0.5c1.3-1,2.1-2.5,3-3.7c1-1.2,2.5-2.4,4-2.2c1.2,0.2,2.4,1.3,3.6,1
		c1.6-0.3,2.8-2.1,4.4-2.7c2.3-0.7,3.8-0.4,5.9,0.5c0.8,0.4,1.7-0.4,2.6-0.2"/>
	<path class="st17" d="M835.3,184.5c2.1,0,3.6,1.7,5,3.1c1.4,1.4,3.4,2.9,5.3,2.2c0.6-0.2,1.1-0.7,1.8-0.7c1.1-0.1,2.1,1,3.1,1.4
		c3,1.4,6.8-1.6,9.5,0.1c1.3,0.9,1.8,2.5,2.7,3.8c0.8,1.3,2.4,2.6,3.7,2c0.9-0.4,1.5-1.3,2.4-1.2c1,0.1,1.3,1.3,1.7,2.1
		c0.8,1.5,2.7,2.4,4.4,2"/>
	<path class="st17" d="M845.2,175.1c2.1-1,4.9-0.2,6.1,1.7c0.7,1.1,1,2.5,1.4,3.6c0.6,1.2,1.6,2.4,3,2.3c1-0.1,1.7-0.7,2.5-1.1
		c0.8-0.5,1.9-0.7,2.6,0c0.4,0.5,0.5,1.1,1,1.4c0.6,0.3,1.4-0.2,2,0.2c0.4,0.2,0.6,0.6,0.8,1c1.4,1.9,5.4,0.8,6.3,3
		c0.2,0.6,0.1,1.2,0.5,1.8c1,1.3,3.1-0.1,4.8,0.4"/>
	<path class="st17" d="M880.8,279.2c1.5,2.5,4.7,3.7,7.5,3.1c2.3-0.5,4.3-1.9,6.3-3.1s4.4-2.2,6.7-1.6c0.8,0.2,1.5,0.6,2.3,0.6
		c1.3,0,2.5-1.1,3.8-1.5c2-0.6,4.1,0.8,6.2,0.6c1.6-0.2,3-1.2,4.5-1.9c1.4-0.8,3.3-1.1,4.6,0"/>
	<path class="st17" d="M890.1,259c-1.5,0.4-3,0-4.6-0.1c-1.5-0.1-3.3,0.4-4,1.7c-0.2,0.3-0.3,0.7-0.5,1c-0.8,1-2.3,0.5-3.3-0.2
		c0.1,0.7,0.3,1.4,0,2.1c-0.2,0.7-0.9,1.2-1.5,1.1c-0.9-0.2-1.4-1.3-2.3-1.2c0.6,0.8,0.1,2.1-0.9,2.5s-2,0-2.8-0.7
		c-0.1,1.4-1.3,2.8-2.9,3c-1.4,0.1-3-1-3.2-2.4c-0.9,0.4-1.2,1.3-1.8,2.2c-0.6,0.8-1.7,1.4-2.4,0.8"/>
	<path class="st17" d="M840.5,267.5c1.2-1.4,3.5-1.8,5.1-1c0.3,0.2,0.6,0.3,0.9,0.2c0.1,0,0.2-0.1,0.3-0.2c1.1-1.2,0.8-3.5,2-4.7
		c1.8-1.5,5.1,0.5,6.8-1.2c0.6-0.6,0.9-1.5,1.6-1.7c0.9-0.2,1.7,0.7,2.6,0.4c0.8-0.2,1-1.2,1.1-2c0.2-0.8,0.8-1.7,1.5-1.5"/>
	<line class="st15" x1="921.7" y1="268.6" x2="851.4" y2="287.3"/>
	<path class="st18" d="M772.5,247.1c-1.3-3.9,2.6-8.4,0.8-12.2c-0.7-1.3-1.8-2.3-3-3.2c-3.6-3.3-6.3-7.8-6.9-12.7
		c-0.6-4.9,1-10.1,4.7-13.4c1.6-1.5,3.6-2.6,5-4.3c2.8-3.1,3.1-7.6,4.2-11.6c1.6-5.7,5-11.1,10.2-14.2c1.3-0.8,2.9-1.4,4.1-2.5
		c3.3-3,3.3-8,3.6-12.4c0.4-7.5,2-14.8,4.8-21.8c1.2-3,3.6-6.6,6.9-6.2c1.4,0.2,2.6,0.2,3.6-0.8c1.1-1,1.7-2.3,2.3-3.6
		c1.3-3.1,2.3-6.5,3-9.8c1-4.8,1.5-9.8,4.1-14c3.6-5.8,10.6-8.8,14.2-14.6c1-1.4,1.6-3.1,2.8-4.4s2.9-2.1,4.5-2.8
		c5.9-2.4,12.3-3.1,18.5-4.7c6.2-1.4,12.5-3.8,16.7-8.5c2.4-2.7,4-6,6.4-8.8c3.8-4.4,9.9-7,15.5-5.4c5.6,1.5,9.6,8.1,7.4,13.4
		c-2.9,7-13.6,8.4-16.2,15.5c5.3,0.8,10.6,1.5,15.9,2.3c1.4,0.2,3,0.4,4.4-0.3c1.3-0.8,2-2.3,2.9-3.6c3.4-5.8,10.6-8.8,17.3-8.7
		c6.8,0.2,13.2,3,18.9,6.6c2.7,1.7,5.3,3.7,6.2,6.8c1,3.5-0.8,7.2-3.1,10c-2,2.2-4.4,4-7,5.3c-6.7,3.2-14.5,3-21.4,5.6"/>
	<path class="st19" d="M913.4,86.9c6.5-3.1,14.2-3.3,20.8-0.6c0.6,0.3,1.2,0.6,1.5,1.1c0.7,1.3-1,2.7-2.6,3
		c-5.6,1.1-11.2-2.1-17-1.8c-4.2,0.2-8.2,2.2-11.4,4.9s-5.7,6.2-8.2,9.6"/>
	<path class="st20" d="M888.5,88.2c-7.9-2.4-17.1,1.5-20.9,8.9c-2.3,4.5-3.3,10.6-8.1,12.1c-1.5,0.5-3.1,0.4-4.8,0.3
		c-7-0.3-14.8,1-19.6,6.2c-5.9,6.4-5.5,16.2-3.7,24.6c0.4,1.9,0.9,3.8,0.6,5.7s-1.5,3.8-3.4,4.2c-1.3-6.7-4.1-13-4.1-19.8
		s3.8-14.4,10.6-15.4"/>
	<path class="st18" d="M809.4,132.5c2,0.2,2.2,3,3.1,4.8c1.7,3.6,7.2,4.1,9.1,7.6c1.6,3-0.1,6.8-2.6,9.1c-3.3,3.2-7.9,4.9-11.7,7.4
		c-3.8,2.6-7.1,7-6.1,11.5c3.4-2.3,7.6-3.4,11.8-3.2c1.7,0.1,3.4,0.3,5-0.1c2.5-0.6,4.4-2.5,6-4.5c1.1-1.4,3.1-3,4.7-1.9
		c0.7,0.6,0.9,1.4,1,2.3c0.4,2.7,0.9,5.4,0,8c-0.9,2.7-3,5.5-1.4,7.9"/>
	<path class="st18" d="M773,217.9c3.4-0.8,7,1.3,10.6,1c3.6-0.4,6.5-3.3,8-6.7c1-2.3,1.8-5,4.2-6c1,3.8-1,8.3-4.7,10"/>
	<path class="st17" d="M875,237c2-1,4.1-2.2,6.4-2c2.4,0.2,4.5,1.8,6.9,1.9c3.5,0.1,6.9-3.4,10.1-1.9c1-2.3,4.3-3.3,6.5-2"/>
	<path class="st17" d="M910,225.7c0.8-1.2,2.5-0.9,3.9-0.9c2.5,0,4.9-1.5,5.9-3.8"/>
	<path class="st2" d="M1172.7,297.4c0.2,4.4-2.6,12.4-1,18.7c1.3,5.3,4.8,9.7,8.2,14c8.5,10.5,22.6,15,32.6,2.8"/>
	<path class="st2" d="M1301.6,244.2c8.2,13.4-25.2,16.5-16.2,31.9c4.5,7.8,12.5,1.9,15.4-3.7c3.5-6.7-0.4-16.9,2.4-23.5
		c9.1,10.6,2.1,28.5-8.6,34.1c-10.6,5.6-29.3,11.4-32,23.9c-1.7,7.9,3,13.8,4.4,20.9"/>
	<path class="st2" d="M1181.4,331.9c4,4.8,2.5,10.7,0.8,16c-2.7,8.3-2.9,5.9,2.8,12c6.7,7.2,13.3,17.6,23.5,20.4
		c5.6,1.5,14.8,0.8,17.4-4.9"/>
	<path class="st2" d="M1257.3,340.1c-1.5,11.7-9.6,15.1-20.1,16.1"/>
	<path class="st2" d="M1279.4,255.9c0,16.6-6.4,14-16.9,24.6c-4.1,4.1-4.5,9-7.5,13.1c-3.1,4.2-7.6,5.6-11.5,7.1"/>
	<path class="st2" d="M1285.6,229.9c-3.8-7.3,8.3-12.6,10.5-19.3c2.4-7.2,2.3-20.1-6.2-23"/>
	<path class="st2" d="M1160.6,237.8c-1.7,3.9-3.5,7.8-4.7,11.7c-1.3,4-1.2,12.1-2.5,14"/>
	<path class="st21" d="M1086.6,82.4c-7.2-7.2-10.2-24.6-11.7-31.5c-1.2-5.5-2.5-15.5,4.3-17.8c7.1-2.4,10.3,5.7,13.6,9.6
		c-1.6-13.7,9.5-5.4,12.4,1.6c6.1-5.1,8.2-17,5-23.8c7.6-1.8,14.8,7.4,16.5,13.4c1.2,4.3-0.5,7.8-0.2,11.9c0.4,5.2,1.4,5.3,5.4,9
		c5.1,4.7,9.2,13.1,15.7,14.5c9.9,2.2,16.2-7.9,26.2-1.6c4.1,2.6,5.4,6.8,10,8c4.1,1.1,8.5-0.8,12.1-1.6c10.5-2.2,21.1-2.6,31.4,1.4
		c9.5,3.7,17.5,10,25.5,16.2c8.4,6.6,6.8,13.9,10.8,22.7c3.9,8.6,12.8,13.9,15.9,24.3c1.5,5.1,1.6,10,2.6,15.1
		c1.3,6.6,3,7.4,7.3,12.1"/>
	<path class="st21" d="M1308.8,176.5c-2.6-1.8,5.9,2.6,8,3.2c4.4,1.4,8.7,2.1,12.9,3.2c6.2,1.6,21.3,4.3,24.1,10.3
		c-13.8,0.3-31.2-8.3-44.3-13.3c0.3,7.8,9.5,14,14.1,19.5c5.4,6.5,12,13.2,16.3,20.4c-7.5,0.8-23.2-16.4-28.6-21.5
		c-1.3,8.5,11.3,20,14.3,28.1c-6.7-4.1-14.4-15.2-18.5-22.3c-1,11,10.2,18.3,13.4,27.9c-5.6-4.5-8.6-11.5-14-15.2
		c1.3,5.2,6.2,9.9,5.3,15.9c-2-1.9-3.9-4.5-6.1-6.3c0,2.4,0.4,5,1.4,7.2"/>
	<path class="st21" d="M1090,47.2c0.1,9.2,1,20.8,7.7,27.5"/>
	<path class="st21" d="M1127,89.4c-5.4-2.7-17.3-19.9-16.5-24.2s8.4,4.1,13,7.7c7.7,6.1,17,12.5,25.7,18
		c17.7,11.2,39.9,18.1,60.3,22.1c14.9,2.9,28.7,3.1,43.7,3.7c11.2,0.4,13.4,1.6,21,12.3"/>
	<path class="st21" d="M1259.8,117.3C1247,85,1211.4,91,1188,107.4"/>
	<path class="st2" d="M1180.3,269.8c8.5-8.1,16.5-15.2,20.6-26.6"/>
	<path class="st2" d="M1211.2,209.7c-9.2,8.7-26.3-2.7-35.2,10.3"/>
	<path class="st2" d="M1204.3,339.2c-5.1,3.7-9.1,19.8-5,25c3.9,0.2,9.3-2.4,9-5.4"/>
	<g>
		<path class="st20" d="M902.1,170.2c1.3,0,3.2,1,4.2,1.8c0.8,0.8,1,1.6,1.2,2.6c0.1,0.7,0.3,1.4,0.7,2.2c0.8,1.4,2.1,1.5,3,1.7
			c0.5,0.1,0.9,0.1,1.2,0.3c1.3,0.7,2,1.8,2.4,2.6c0.7,1.7,0.7,3.8-0.2,5.3l0,0l0,0c-0.3,0.7-1,1.3-2,2c-0.1,0.1-0.5,0.2-0.8,0.3
			c-0.8,0.3-1.7,0.7-2.2,1.6c-0.4,0.9-0.1,2,0.1,2.9c0.1,0.3,0.2,0.6,0.2,0.7c0.2,1.3,0.2,2.4-0.4,3.3v0.1v0.1
			c-0.1,0.3-0.3,0.5-0.5,0.7h-0.1l-0.1,0.1c-1.3,1.3-3,2-4.8,2c-0.5,0-1-0.1-1.5-0.2c-0.4-0.1-0.8-0.3-1.3-0.4
			c-0.3-0.1-0.7-0.2-1-0.4c-0.2-0.1-0.3-0.3-0.5-0.4c-0.6-0.5-1.2-1-2.2-1c-0.4,0-0.9,0.1-1.3,0.3c-0.4,0.2-0.7,0.4-1,0.6
			c-0.3,0.2-0.5,0.4-0.8,0.5s-0.7,0.1-1.1,0.1c-2.2,0-4.9-1.4-5.9-3.1c-0.8-1.4-1.1-2.8-0.9-4.4c0.2-1.4,0.7-2.2,1.3-3.2
			c0.3-0.4,0.5-0.8,0.8-1.3l0.5-0.9l-0.9-0.5c-0.2-0.1-0.4-0.2-0.6-0.3c-1-0.5-1.6-0.9-2-1.9c-0.4-1.1-0.3-2.5,0.1-3.8
			c0.7-1.9,1.7-4.2,3.5-5l0,0l0,0c0.6-0.3,1.2-0.4,1.9-0.4c0.5,0,1.1,0.1,1.6,0.3c0.4,0.2,0.8,0.4,1.3,0.4c0.1,0,0.3,0,0.4,0
			c0.9-0.1,1.6-1.1,2.4-2c0.3-0.3,0.6-0.7,0.8-0.9l0.2-0.1C899.2,171.3,900.2,170.4,902.1,170.2C902,170.2,902.1,170.2,902.1,170.2
			L902.1,170.2 M902.1,169.2c-0.1,0-0.3,0-0.4,0c-2.1,0.2-3.3,1.3-4.9,2.7c-0.7,0.6-1.9,2.6-2.7,2.7c-0.1,0-0.1,0-0.2,0
			c-0.3,0-0.6-0.2-0.9-0.3c-0.6-0.2-1.3-0.3-2-0.3c-0.8,0-1.6,0.2-2.3,0.5c-2.2,1-3.3,3.4-4.1,5.6c-0.5,1.4-0.6,3-0.1,4.5
			c0.6,1.6,1.7,2,3,2.8c-1,1.7-2,2.7-2.3,4.9c-0.2,1.8,0.1,3.4,1,5c1.3,2,4.3,3.6,6.8,3.6c0.5,0,0.9-0.1,1.4-0.2
			c0.8-0.3,1.2-0.9,1.9-1.1c0.3-0.2,0.6-0.2,0.9-0.2c0.8,0,1.4,0.7,2.2,1.3c1,0.3,1.7,0.7,2.6,0.9c0.6,0.1,1.1,0.2,1.7,0.2
			c2.1,0,4.1-0.9,5.5-2.3c0.4-0.3,0.7-0.7,0.9-1.1c0.8-1.2,0.8-2.6,0.6-4c-0.1-0.8-0.8-2.3-0.4-3c0.5-0.9,2-1,2.7-1.5
			c1-0.7,1.8-1.4,2.3-2.4c1-1.8,1.1-4.2,0.3-6.2c-0.6-1.3-1.5-2.5-2.9-3.1s-3,0-3.8-1.5c-0.9-1.7-0.4-3.4-2.1-5
			C905.9,170.2,903.7,169.2,902.1,169.2L902.1,169.2z"/>
	</g>
	<g>
		<path class="st22" d="M1217.5,350.6L1217.5,350.6c0.3,0,0.9,0.3,1.2,0.5c0.2,0.2,0.2,0.3,0.3,0.7c0.1,0.2,0.1,0.5,0.3,0.9
			c0.4,0.7,1,0.7,1.4,0.8c0.1,0,0.3,0,0.3,0.1c0.4,0.2,0.6,0.5,0.7,0.7c0.2,0.5,0.2,1.1-0.1,1.5c-0.1,0.2-0.3,0.4-0.6,0.6
			c-0.1,0-0.1,0.1-0.2,0.1c-0.3,0.1-0.8,0.3-1,0.7c-0.2,0.4-0.1,0.9,0,1.3c0,0.1,0,0.1,0.1,0.2c0.1,0.4,0,0.7-0.1,0.9v0.1v0.1
			c0,0,0,0.1-0.1,0.1l0,0l0,0c-0.4,0.4-0.9,0.6-1.4,0.6c-0.1,0-0.3,0-0.5,0c-0.1,0-0.3-0.1-0.4-0.1s-0.2-0.1-0.3-0.1l-0.1-0.1
			c-0.2-0.2-0.5-0.4-1-0.4c-0.2,0-0.4,0-0.6,0.1s-0.3,0.2-0.4,0.3c-0.1,0-0.1,0.1-0.2,0.1s-0.2,0-0.3,0c-0.7,0-1.5-0.4-1.8-0.9
			c-0.2-0.4-0.3-0.8-0.3-1.3c0.1-0.4,0.2-0.6,0.4-0.9c0.1-0.2,0.2-0.3,0.3-0.5l0.4-0.7l-0.7-0.4c-0.1,0-0.2-0.1-0.2-0.1
			c-0.4-0.2-0.5-0.3-0.5-0.4c-0.1-0.3-0.1-0.7,0-1.1c0.2-0.5,0.5-1.3,1.1-1.5c0.1-0.1,0.3-0.1,0.5-0.1c0.1,0,0.3,0,0.4,0.1
			s0.4,0.2,0.6,0.2c0.1,0,0.1,0,0.2,0c0.4-0.1,0.8-0.5,1.1-0.8c0.1-0.1,0.2-0.2,0.2-0.3h0.1C1216.7,350.9,1217,350.7,1217.5,350.6
			L1217.5,350.6 M1217.5,349.9L1217.5,349.9c-0.8,0.1-1.3,0.5-1.8,0.9c-0.2,0.2-0.7,0.9-1,0.9c0,0,0,0-0.1,0s-0.2-0.1-0.3-0.1
			c-0.2-0.1-0.5-0.1-0.7-0.1c-0.3,0-0.6,0.1-0.8,0.2c-0.8,0.3-1.2,1.2-1.5,2c-0.2,0.5-0.2,1.1,0,1.6c0.2,0.6,0.6,0.7,1.1,1
			c-0.3,0.6-0.7,0.9-0.8,1.7c-0.1,0.6,0,1.2,0.4,1.8c0.5,0.7,1.5,1.3,2.4,1.3c0.2,0,0.3,0,0.5-0.1c0.3-0.1,0.4-0.3,0.7-0.4
			c0.1-0.1,0.2-0.1,0.3-0.1c0.3,0,0.5,0.2,0.8,0.4c0.3,0.1,0.6,0.2,0.9,0.3c0.2,0,0.4,0.1,0.6,0.1c0.7,0,1.5-0.3,2-0.8
			c0.1-0.1,0.2-0.2,0.3-0.4c0.3-0.4,0.3-0.9,0.2-1.4c0-0.3-0.3-0.8-0.1-1.1c0.2-0.3,0.7-0.4,1-0.5c0.3-0.2,0.6-0.5,0.8-0.8
			c0.4-0.6,0.4-1.5,0.1-2.2c-0.2-0.5-0.5-0.9-1-1.1s-1.1,0-1.4-0.5c-0.3-0.6-0.1-1.2-0.7-1.8
			C1218.8,350.3,1218.1,349.9,1217.5,349.9L1217.5,349.9z"/>
	</g>
	<g>
		<path class="st22" d="M1227.5,344.8L1227.5,344.8c0.3,0,0.9,0.3,1.2,0.5c0.2,0.2,0.2,0.3,0.3,0.7c0.1,0.2,0.1,0.5,0.3,0.9
			c0.4,0.7,1,0.7,1.4,0.8c0.1,0,0.3,0,0.3,0.1c0.4,0.2,0.6,0.5,0.7,0.7c0.2,0.5,0.2,1.1-0.1,1.5c-0.1,0.2-0.3,0.4-0.6,0.6
			c-0.1,0-0.1,0.1-0.2,0.1c-0.3,0.1-0.8,0.3-1,0.7c-0.2,0.4-0.1,0.9,0,1.3c0,0.1,0,0.1,0.1,0.2c0.1,0.4,0,0.7-0.1,0.9v0.1v0.1
			c0,0,0,0.1-0.1,0.1l0,0l0,0c-0.4,0.4-0.9,0.6-1.4,0.6c-0.1,0-0.3,0-0.5,0c-0.1,0-0.3-0.1-0.4-0.1s-0.2-0.1-0.3-0.1l-0.1-0.1
			c-0.2-0.2-0.5-0.4-1-0.4c-0.2,0-0.4,0-0.6,0.1s-0.3,0.2-0.4,0.3c-0.1,0-0.1,0.1-0.2,0.1s-0.2,0-0.3,0c-0.7,0-1.5-0.4-1.8-0.9
			c-0.2-0.4-0.3-0.8-0.3-1.3c0.1-0.4,0.2-0.6,0.4-0.9c0.1-0.2,0.2-0.3,0.3-0.5l0.4-0.7l-0.7-0.4c-0.1,0-0.2-0.1-0.2-0.1
			c-0.4-0.2-0.5-0.3-0.5-0.4c-0.1-0.3-0.1-0.7,0-1.1c0.2-0.5,0.5-1.3,1.1-1.5c0.1-0.1,0.3-0.1,0.5-0.1c0.1,0,0.3,0,0.4,0.1
			s0.4,0.2,0.6,0.2c0.1,0,0.1,0,0.2,0c0.4-0.1,0.8-0.5,1.1-0.8c0.1-0.1,0.2-0.2,0.2-0.3h0.1C1226.7,345.1,1227,344.9,1227.5,344.8
			L1227.5,344.8 M1227.5,344.1L1227.5,344.1c-0.8,0.1-1.3,0.5-1.8,0.9c-0.2,0.2-0.7,0.9-1,0.9c0,0,0,0-0.1,0s-0.2-0.1-0.3-0.1
			c-0.2-0.1-0.5-0.1-0.7-0.1c-0.3,0-0.6,0.1-0.8,0.2c-0.8,0.3-1.2,1.2-1.5,2c-0.2,0.5-0.2,1.1,0,1.6c0.2,0.6,0.6,0.7,1.1,1
			c-0.3,0.6-0.7,0.9-0.8,1.7c-0.1,0.6,0,1.2,0.4,1.8c0.5,0.7,1.5,1.3,2.4,1.3c0.2,0,0.3,0,0.5-0.1c0.3-0.1,0.4-0.3,0.7-0.4
			c0.1-0.1,0.2-0.1,0.3-0.1c0.3,0,0.5,0.2,0.8,0.4c0.3,0.1,0.6,0.2,0.9,0.3c0.2,0,0.4,0.1,0.6,0.1c0.7,0,1.5-0.3,2-0.8
			c0.1-0.1,0.2-0.2,0.3-0.4c0.3-0.4,0.3-0.9,0.2-1.4c0-0.3-0.3-0.8-0.1-1.1c0.2-0.3,0.7-0.4,1-0.5c0.3-0.2,0.6-0.5,0.8-0.8
			c0.4-0.6,0.4-1.5,0.1-2.2c-0.2-0.5-0.5-0.9-1-1.1s-1.1,0-1.4-0.5c-0.3-0.6-0.1-1.2-0.7-1.8
			C1228.9,344.4,1228.1,344.1,1227.5,344.1L1227.5,344.1z"/>
	</g>
	<g>
		<path class="st22" d="M1231.5,356.6L1231.5,356.6c0.3,0,0.9,0.3,1.2,0.5c0.2,0.2,0.2,0.3,0.3,0.7c0.1,0.2,0.1,0.5,0.3,0.9
			c0.4,0.7,1,0.7,1.4,0.8c0.1,0,0.3,0,0.3,0.1c0.4,0.2,0.6,0.5,0.7,0.7c0.2,0.5,0.2,1.1-0.1,1.5c-0.1,0.2-0.3,0.4-0.6,0.6
			c-0.1,0-0.1,0.1-0.2,0.1c-0.3,0.1-0.8,0.3-1,0.7c-0.2,0.4-0.1,0.9,0,1.3c0,0.1,0,0.1,0.1,0.2c0.1,0.4,0,0.7-0.1,0.9v0.1v0.1
			c0,0,0,0.1-0.1,0.1l0,0l0,0c-0.4,0.4-0.9,0.6-1.4,0.6c-0.1,0-0.3,0-0.5,0c-0.1,0-0.3-0.1-0.4-0.1s-0.2-0.1-0.3-0.1l-0.1-0.1
			c-0.2-0.2-0.5-0.4-1-0.4c-0.2,0-0.4,0-0.6,0.1s-0.3,0.2-0.4,0.3c-0.1,0-0.1,0.1-0.2,0.1s-0.2,0-0.3,0c-0.7,0-1.5-0.4-1.8-0.9
			c-0.2-0.4-0.3-0.8-0.3-1.3c0.1-0.4,0.2-0.6,0.4-0.9c0.1-0.2,0.2-0.3,0.3-0.5l0.4-0.7l-0.7-0.4c-0.1,0-0.2-0.1-0.2-0.1
			c-0.4-0.2-0.5-0.3-0.5-0.4c-0.1-0.3-0.1-0.7,0-1.1c0.2-0.5,0.5-1.3,1.1-1.5c0.1-0.1,0.3-0.1,0.5-0.1c0.1,0,0.3,0,0.4,0.1
			s0.4,0.2,0.6,0.2c0.1,0,0.1,0,0.2,0c0.4-0.1,0.8-0.5,1.1-0.8c0.1-0.1,0.2-0.2,0.2-0.3h0.1C1230.7,356.9,1231,356.7,1231.5,356.6
			C1231.4,356.6,1231.5,356.6,1231.5,356.6 M1231.5,355.9L1231.5,355.9c-0.8,0.1-1.3,0.5-1.8,0.9c-0.2,0.2-0.7,0.9-1,0.9
			c0,0,0,0-0.1,0s-0.2-0.1-0.3-0.1c-0.2-0.1-0.5-0.1-0.7-0.1c-0.3,0-0.6,0.1-0.8,0.2c-0.8,0.3-1.2,1.2-1.5,2c-0.2,0.5-0.2,1.1,0,1.6
			c0.2,0.6,0.6,0.7,1.1,1c-0.3,0.6-0.7,0.9-0.8,1.7c-0.1,0.6,0,1.2,0.4,1.8c0.5,0.7,1.5,1.3,2.4,1.3c0.2,0,0.3,0,0.5-0.1
			c0.3-0.1,0.4-0.3,0.7-0.4c0.1-0.1,0.2-0.1,0.3-0.1c0.3,0,0.5,0.2,0.8,0.4c0.3,0.1,0.6,0.2,0.9,0.3c0.2,0,0.4,0.1,0.6,0.1
			c0.7,0,1.5-0.3,2-0.8c0.1-0.1,0.2-0.2,0.3-0.4c0.3-0.4,0.3-0.9,0.2-1.4c0-0.3-0.3-0.8-0.1-1.1c0.2-0.3,0.7-0.4,1-0.5
			c0.3-0.2,0.6-0.5,0.8-0.8c0.4-0.6,0.4-1.5,0.1-2.2c-0.2-0.5-0.5-0.9-1-1.1s-1.1,0-1.4-0.5c-0.3-0.6-0.1-1.2-0.7-1.8
			C1232.8,356.3,1232,355.9,1231.5,355.9L1231.5,355.9z"/>
	</g>
	<g>
		<path class="st22" d="M1219.6,363.9L1219.6,363.9c0.3,0,0.9,0.3,1.2,0.5c0.2,0.2,0.2,0.3,0.3,0.7c0.1,0.2,0.1,0.5,0.3,0.9
			c0.4,0.7,1,0.7,1.4,0.8c0.1,0,0.3,0,0.3,0.1c0.4,0.2,0.6,0.5,0.7,0.7c0.2,0.5,0.2,1.1-0.1,1.5c-0.1,0.2-0.3,0.4-0.6,0.6
			c-0.1,0-0.1,0.1-0.2,0.1c-0.3,0.1-0.8,0.3-1,0.7c-0.2,0.4-0.1,0.9,0,1.3c0,0.1,0,0.1,0.1,0.2c0.1,0.4,0,0.7-0.1,0.9v0.1v0.1
			c0,0,0,0.1-0.1,0.1l0,0l0,0c-0.4,0.4-0.9,0.6-1.4,0.6c-0.1,0-0.3,0-0.5,0c-0.1,0-0.3-0.1-0.4-0.1s-0.2-0.1-0.3-0.1l-0.1-0.1
			c-0.2-0.2-0.5-0.4-1-0.4c-0.2,0-0.4,0-0.6,0.1s-0.3,0.2-0.4,0.3c-0.1,0-0.1,0.1-0.2,0.1s-0.2,0-0.3,0c-0.7,0-1.5-0.4-1.8-0.9
			c-0.2-0.4-0.3-0.8-0.3-1.3c0.1-0.4,0.2-0.6,0.4-0.9c0.1-0.2,0.2-0.3,0.3-0.5l0.4-0.7l-0.7-0.4c-0.1,0-0.2-0.1-0.2-0.1
			c-0.4-0.2-0.5-0.3-0.5-0.4c-0.1-0.3-0.1-0.7,0-1.1c0.2-0.5,0.5-1.3,1.1-1.5c0.1-0.1,0.3-0.1,0.5-0.1c0.1,0,0.3,0,0.4,0.1
			s0.4,0.2,0.6,0.2c0.1,0,0.1,0,0.2,0c0.4-0.1,0.8-0.5,1.1-0.8c0.1-0.1,0.2-0.2,0.2-0.3h0.1C1218.8,364.2,1219.1,364,1219.6,363.9
			L1219.6,363.9 M1219.6,363.2L1219.6,363.2c-0.8,0.1-1.3,0.5-1.8,0.9c-0.2,0.2-0.7,0.9-1,0.9c0,0,0,0-0.1,0s-0.2-0.1-0.3-0.1
			c-0.2-0.1-0.5-0.1-0.7-0.1c-0.3,0-0.6,0.1-0.8,0.2c-0.8,0.3-1.2,1.2-1.5,2c-0.2,0.5-0.2,1.1,0,1.6c0.2,0.6,0.6,0.7,1.1,1
			c-0.3,0.6-0.7,0.9-0.8,1.7c-0.1,0.6,0,1.2,0.4,1.8c0.5,0.7,1.5,1.3,2.4,1.3c0.2,0,0.3,0,0.5-0.1c0.3-0.1,0.4-0.3,0.7-0.4
			c0.1-0.1,0.2-0.1,0.3-0.1c0.3,0,0.5,0.2,0.8,0.4c0.3,0.1,0.6,0.2,0.9,0.3c0.2,0,0.4,0.1,0.6,0.1c0.7,0,1.5-0.3,2-0.8
			c0.1-0.1,0.2-0.2,0.3-0.4c0.3-0.4,0.3-0.9,0.2-1.4c0-0.3-0.3-0.8-0.1-1.1c0.2-0.3,0.7-0.4,1-0.5c0.3-0.2,0.6-0.5,0.8-0.8
			c0.4-0.6,0.4-1.5,0.1-2.2c-0.2-0.5-0.5-0.9-1-1.1s-1.1,0-1.4-0.5c-0.3-0.6-0.1-1.2-0.7-1.8
			C1220.9,363.5,1220.2,363.2,1219.6,363.2L1219.6,363.2z"/>
	</g>
	<path class="st19" d="M779.6,200.4c2.3-0.4,10.1,1.4,12.1-0.1c3.3-2.4,2.1-9.6,6.3-12.7"/>
	<path class="st23" d="M821.4,412c0.2,0,0.4,0.1,0.6,0.1c0.7,0,1.5-0.3,2-0.8c0.1-0.1,0.2-0.2,0.3-0.4c0.3-0.4,0.3-0.9,0.2-1.4
		c0-0.3-0.3-0.8-0.1-1.1c0.2-0.3,0.7-0.4,1-0.5c0.3-0.2,0.6-0.5,0.8-0.8c0.4-0.6,0.4-1.5,0.1-2.2c-0.2-0.5-0.5-0.9-1-1.1
		s-1.1,0-1.4-0.5c-0.3-0.6-0.1-1.2-0.7-1.8c-0.4-0.4-1.3-0.8-1.9-0.7c-0.7,0.1-1.2,0.5-1.7,0.9c-0.2,0.2-0.7,0.9-1,0.9
		c-0.1,0-0.3,0-0.4-0.1c-0.5-0.2-1.1-0.2-1.5,0.1c-0.8,0.3-1.2,1.2-1.5,2c-0.2,0.5-0.2,1.1,0,1.6c0.2,0.6,0.6,0.7,1.1,1
		c-0.3,0.6-0.7,0.9-0.8,1.7c-0.1,0.6,0,1.2,0.4,1.8c0.5,0.8,1.9,1.5,2.9,1.2c0.3-0.1,0.4-0.3,0.7-0.4c0.5-0.2,0.7,0.1,1.1,0.4
		C820.8,411.8,821.1,411.9,821.4,412z"/>
	<path class="st23" d="M831.4,406.2c0.2,0,0.4,0.1,0.6,0.1c0.7,0,1.5-0.3,2-0.8c0.1-0.1,0.2-0.2,0.3-0.4c0.3-0.4,0.3-0.9,0.2-1.4
		c0-0.3-0.3-0.8-0.1-1.1c0.2-0.3,0.7-0.4,1-0.5c0.3-0.2,0.6-0.5,0.8-0.8c0.4-0.6,0.4-1.5,0.1-2.2c-0.2-0.5-0.5-0.9-1-1.1
		s-1.1,0-1.4-0.5c-0.3-0.6-0.1-1.2-0.7-1.8c-0.4-0.4-1.3-0.8-1.9-0.7c-0.7,0.1-1.2,0.5-1.7,0.9c-0.2,0.2-0.7,0.9-1,0.9
		c-0.1,0-0.3,0-0.4-0.1c-0.5-0.2-1.1-0.2-1.5,0.1c-0.8,0.3-1.2,1.2-1.5,2c-0.2,0.5-0.2,1.1,0,1.6c0.2,0.6,0.6,0.7,1.1,1
		c-0.3,0.6-0.7,0.9-0.8,1.7c-0.1,0.6,0,1.2,0.4,1.8c0.5,0.8,1.9,1.5,2.9,1.2c0.3-0.1,0.4-0.3,0.7-0.4c0.5-0.2,0.7,0.1,1.1,0.4
		C830.8,406,831.1,406.1,831.4,406.2z"/>
	<path class="st23" d="M835.4,418c0.2,0,0.4,0.1,0.6,0.1c0.7,0,1.5-0.3,2-0.8c0.1-0.1,0.2-0.2,0.3-0.4c0.3-0.4,0.3-0.9,0.2-1.4
		c0-0.3-0.3-0.8-0.1-1.1c0.2-0.3,0.7-0.4,1-0.5c0.3-0.2,0.6-0.5,0.8-0.8c0.4-0.6,0.4-1.5,0.1-2.2c-0.2-0.5-0.5-0.9-1-1.1
		s-1.1,0-1.4-0.5c-0.3-0.6-0.1-1.2-0.7-1.8c-0.4-0.4-1.3-0.8-1.9-0.7c-0.7,0.1-1.2,0.5-1.7,0.9c-0.2,0.2-0.7,0.9-1,0.9
		c-0.1,0-0.3,0-0.4-0.1c-0.5-0.2-1.1-0.2-1.5,0.1c-0.8,0.3-1.2,1.2-1.5,2c-0.2,0.5-0.2,1.1,0,1.6c0.2,0.6,0.6,0.7,1.1,1
		c-0.3,0.6-0.7,0.9-0.8,1.7c-0.1,0.6,0,1.2,0.4,1.8c0.5,0.8,1.9,1.5,2.9,1.2c0.3-0.1,0.4-0.3,0.7-0.4c0.5-0.2,0.7,0.1,1.1,0.4
		C834.8,417.8,835,417.9,835.4,418z"/>
	<path class="st23" d="M823.5,425.3c0.2,0,0.4,0.1,0.6,0.1c0.7,0,1.5-0.3,2-0.8c0.1-0.1,0.2-0.2,0.3-0.4c0.3-0.4,0.3-0.9,0.2-1.4
		c0-0.3-0.3-0.8-0.1-1.1c0.2-0.3,0.7-0.4,1-0.5c0.3-0.2,0.6-0.5,0.8-0.8c0.4-0.6,0.4-1.5,0.1-2.2c-0.2-0.5-0.5-0.9-1-1.1
		s-1.1,0-1.4-0.5c-0.3-0.6-0.1-1.2-0.7-1.8c-0.4-0.4-1.3-0.8-1.9-0.7c-0.7,0.1-1.2,0.5-1.7,0.9c-0.2,0.2-0.7,0.9-1,0.9
		c-0.1,0-0.3,0-0.4-0.1c-0.5-0.2-1.1-0.2-1.5,0.1c-0.8,0.3-1.2,1.2-1.5,2c-0.2,0.5-0.2,1.1,0,1.6c0.2,0.6,0.6,0.7,1.1,1
		c-0.3,0.6-0.7,0.9-0.8,1.7c-0.1,0.6,0,1.2,0.4,1.8c0.5,0.8,1.9,1.5,2.9,1.2c0.3-0.1,0.4-0.3,0.7-0.4c0.5-0.2,0.7,0.1,1.1,0.4
		C822.9,425.1,823.2,425.2,823.5,425.3z"/>
	
		<ellipse transform="matrix(0.1615 -0.9869 0.9869 0.1615 287.8513 1160.7035)" class="st24" cx="827" cy="411" rx="17.2" ry="14.5"/>
	<path class="st16" d="M1149.3,284.4c25.4,13.6,49.1,26,74.5,39.6c-9.8,3.5-15.8,14.4-15.5,24.7c10.8-12.1,29.3-15,44.9-10.5
		c15.6,4.6,28.4,16.6,36.5,30.6"/>
	<path class="st16" d="M1152.3,264.7c25.2,14.8,51.8,29,77.5,43c1-9.4,5-18.5,11.5-25.3c-1.7,18.9,13.8,39.3,29.2,48.4
		c15.6,9.3,35.1,11.4,52.8,7.1c0.9,2.9-1.1,5.9-3.7,7.3c-2.6,1.5-5.5,2-8.4,2.9c-9.7,2.9-17.8,10.6-21.1,20.2"/>
	<path class="st16" d="M1150.5,222.1l55.7,3.5c0,0,4.5-32.3,47.4-24.3c25.5,4.8,32,29,32,29l34.9,6.5l30.2-14.2c0,0,8.3,0.6,4.8,29
		l-13,1.8l-23.1-8.3l-33.1-2.4c0,0-9.5,35.5-42.6,28.5c-33.1-7.1-37.9-30.2-37.9-30.2l-52.7-3"/>
	<path class="st16" d="M1138.7,194.3l92.4-18.4l21.3,3.5l21.3-1.8l25.5-17.8c0,0,9.5,6.5,8.9,25.5l-9.5,3.5l-24.8-3l-25.5,6.5
		l-3.5,7.9"/>
	<path class="st6" d="M985.2,364.2c-1.7-3.1-140.8-108.5-8.2-210.5c18.3-11.1,61-32.2,107.2-6.5c63.3,36,84.7,79.5,56.2,170.8"/>
	<path class="st3" d="M1101.3,87.6c1.2-3.6,2.4-7.1,3.6-10.8c5.8,1,11,4.2,15.8,7.7c21.5,15.7,38,38.4,46.3,63.7
		c1.9,5.7,3.4,11.6,3,17.6c-2.1,0.2-4.7,0.2-6.8-0.1"/>
	<line class="st14" x1="1218.6" y1="377" x2="1216" y2="397.2"/>
	<line class="st14" x1="1222.8" y1="377.2" x2="1220" y2="397.7"/>
	
		<ellipse transform="matrix(0.2775 -0.9607 0.9607 0.2775 537.6703 1435.1771)" class="st25" cx="1223" cy="360.1" rx="17.2" ry="14.5"/>
	<path class="st26" d="M1233.6,413.7l-34-7.5c0,0,5.9-12.6,20.3-9.4C1234.1,399.9,1233.6,413.7,1233.6,413.7z"/>
	<path class="st27" d="M1205.7,407.7L1132,757.9c0,0-2.6,9.4,4.3,10.7s9-8.6,9-8.6l64.7-351.5"/>
	<path class="st27" d="M1179.4,735.3c1.9-9,1.9-16.6,3.8-25.2c4.8-37.1,8.6-72.3,13.3-109.4c1-10.5,1.9-20.9,2.9-31.4
		c2.9-16.2,3.8-32.4,5.7-48.5c5.7-37.1,9.5-73.3,13.4-110.5"/>
	<path class="st27" d="M1216,410.3c-11.8,108.6-25.1,216.1-38,324.9"/>
	<ellipse class="st28" cx="1137.1" cy="779.8" rx="10.1" ry="10.7"/>
	<path class="st27" d="M1175.7,734.8c15.1-107.5,30.3-216,48-323.3"/>
	<path class="st27" d="M1168.8,786c-1-9.2,2.1-17.3,3.5-26.4"/>
	<path class="st27" d="M1176.7,761.5c-0.9,8.5-0.3,17.2-4,25.1"/>
	<path class="st27" d="M1227.5,412.8c-1.5,6.1-2.4,10.8-3.4,16.5c-12.4,103.7-29.5,203.7-43.8,305.5"/>
	<path class="st27" d="M818.6,482.8c-0.8,102.7-1.8,206.4,0.1,309.2c5.7,4.8,13.3,0,13.3-6.7c0-42.8-4.8-85.7-5.7-128.5
		c-1-57.1-1.9-113.3-2.9-170.7"/>
	<ellipse class="st28" cx="1168.6" cy="799.6" rx="12.7" ry="13.6"/>
	<path class="st27" d="M853.8,781.9c-4.7-101.3-14.5-202.7-20.5-303.9"/>
	<path class="st27" d="M831.2,483.5c7.4,100,15,199,21.1,298.5"/>
	
		<ellipse transform="matrix(0.9018 -0.4322 0.4322 0.9018 -265.3998 438.4161)" class="st28" cx="831.9" cy="803.1" rx="10.1" ry="10.7"/>
	<path class="st27" d="M850.1,782.1c-5.7-104.3-9.5-210-12.9-314.7"/>
	<path class="st27" d="M840.2,459.4c-0.2,21.9,2.3,45.2,4.2,67c4.8,85.7,5.7,170.4,10.2,254.9"/>
	<ellipse class="st28" cx="1177.6" cy="747.8" rx="12.7" ry="13.6"/>
	<path class="st16" d="M1257.3,214.5c0,0,17.9,2.4,19.5,23.3c1.4,19.8-20.3,22.8-23.2,22.8l2.5-3.4c0,0,9.6,1.3,9.6-7.1
		c0,0,4.5,0.3,5.5-4.2c0.7-3.4-3.4-7.1-3.4-7.1s3.1-2.4,2.7-6.6c-0.4-4.2-6.4-5.6-6.4-5.6s1.7-3.8-0.4-6.3
		C1261.5,217.8,1257.3,214.5,1257.3,214.5z"/>
	<circle class="st16" cx="1232.1" cy="221.3" r="2.5"/>
	<circle class="st16" cx="1223.7" cy="216.7" r="3.2"/>
	
		<ellipse transform="matrix(0.5122 -0.8589 0.8589 0.5122 390.3725 1178.8571)" class="st16" cx="1233" cy="245.8" rx="2.5" ry="2.5"/>
	<line class="st1" x1="828.7" y1="382.2" x2="827.5" y2="385.4"/>
	<line class="st1" x1="830.6" y1="383" x2="829.4" y2="386.2"/>
	
		<ellipse transform="matrix(0.5122 -0.8589 0.8589 0.5122 382.1822 1174.1617)" class="st16" cx="1224.7" cy="250.6" rx="3.2" ry="3.2"/>
	<path class="st29" d="M1251.5,229.4c3,0,13.7,0.1,14.5,4.2c1.1,5.7-10.2,3.3-12.2,1.9"/>
	<path class="st29" d="M1245.8,246.7c5.1,2.9,12.8,9.8,15.5,6c2.9-4.4-7.2-7.2-11.1-8.8"/>
	<path class="st29" d="M1245.7,219.8c4.5-0.7,16.5-0.1,14.2,4.5c-2,3.8-8.1-0.6-13-0.8"/>
	<path class="st29" d="M1256.6,239.7c3.4-0.4,14.1,2.8,11.6,6.1c-2.9,3.4-7.8-1.9-10.5-3.8"/>
	<path class="st1" d="M828.2,369.1c0,0,1.3,0.5,2.7,1.8s1.4,4.1,1.4,4.1"/>
	<path class="st1" d="M821.3,353c0,0-4.6-2.1-8.8,2.3c-3.9,4.1-3.2,11.5-3.2,11.5"/>
	<path class="st1" d="M820.2,356.5c0,0-2.8-0.6-4.4,1.1c-2.1,2.2-2.1,6.6-2.1,6.6"/>
	<path class="st1" d="M823.1,370.4c0,0,3.7,2.1,5.2,1.8c1.4-0.2,1.7,2.4,1.7,2.4"/>
	
		<ellipse transform="matrix(0.7335 -0.6796 0.6796 0.7335 -36.0753 665.4825)" class="st30" cx="830.7" cy="378.7" rx="3.5" ry="3.5"/>
	<line class="st27" x1="817.3" y1="458.2" x2="817.5" y2="463.6"/>
	<line class="st27" x1="821.3" y1="457.4" x2="821.6" y2="461.4"/>
	
		<ellipse transform="matrix(0.7335 -0.6796 0.6796 0.7335 -43.932 665.7662)" class="st31" cx="827.1" cy="388.9" rx="3.5" ry="3.5"/>
	<path class="st26" d="M829.3,447.9c-2.1-1.4-4.1-2.8-5.9-4.5c-11.1,4.5-11,16.2-11,16.2l15.2-3.6c1.8-1.9,3.6-3.9,5.3-5.9
		C831.6,449.6,830.4,448.7,829.3,447.9z"/>
	<path class="st16" d="M910.5,321.5c-17.7,26.5-35.8,53.9-53.5,80.3c-3.4,5.1-6.9,10.3-8.8,16.1c-1.1,3.6-1.6,7.3-2.7,10.9
		c-2.1,7.1-6.4,13.4-10.8,19.3c-2.4,3.2-4.9,6.4-7.8,9c-7.6,6.7-18.5,9.5-24.6,17.5c9.5,4.7,18.8,9.7,28,15.1
		c-0.2-6.2,1.8-10.8,4.1-16.6c4-10.2,8-21.8,15.2-30.3c6.4-7.5,15.8-10.9,22.4-18.1c2.9-3.1,4.8-6.9,6.8-10.7
		c2.5-4.4,5.2-8.6,8-12.8c6.7-10,13.3-20.1,20-30.1c11.6-17.5,24.2-36.7,35.6-54.3"/>
	<path class="st32" d="M792.7,359.5l-112.4,75.3c0,0-0.5,6.9,2.5,10.3s8.4,4.9,8.4,4.9l73.2-54.6"/>
	<path class="st6" d="M792.5,378c0,0-3.3-19.2,6.2-40.3c0,0-12.2-9-16.7-31.4"/>
	<path class="st32" d="M801.4,413l-62.5,66.6c0,0-4.9-0.3-9.1-3.5c-4.6-3.6-3.5-10.8-3.5-10.8l69.1-69.1"/>
	<path class="st6" d="M833.7,449.2c0,0-31.1-14.6-39-58.7"/>
	<path class="st16" d="M935.2,305.3c-23.9,15.8-47.9,31.6-71.8,47.4c-5.2,3.4-17.9,16.2-24.5,15.4c-14.1-1.6-27.5,7.5-38.1,15.7
		c-2,1.6-4.1,3.1-5.5,5.3c-1.1,1.7-1.7,3.8-2.7,5.7c-3.5,7.4-11.1,11.8-18.4,15.7c-4.5-9.2-10.8-17.5-18.4-24.4
		c7.8-6.1,19.3-8.4,29.2-7.8c2,0.1,4.1,0.4,6.1-0.1c1.8-0.5,3.4-1.4,4.9-2.5c4.8-3,9.4-6.1,14.2-9.1c5.2-3.3,11-7.9,10.5-14.1
		c34.9-23.7,68.3-47.1,104.8-68.2"/>
	<path class="st4" d="M398.3,251.1c19.7-20.8,47.2-4.5,65.9,14.7c21.1,21.7,16.6,62.2,16.6,90.9c0,18.5-4.7,37.4-11.3,54.1
		c-5.2,11.1-47.2,77.9-85.7,57.2c-8.2-4.4-39-34.6-40.3-43.5"/>
	<path class="st3" d="M437.3,452.5c-1,12.5,14.5,27.6,22.5,35.7c10.3,10.5,20.9,16.4,32.4,25c6,4.5,12.8,10.1,16.4,16.4"/>
	<path class="st4" d="M397.6,249.4c2.6,7.9,3.4,16.5,4.1,24.7c1.1,12.9,1.3,25.8,0.6,38.7c-1.5,28-6.9,57.7-24.3,80.4
		c-8.6,11.2-19.7,20-31.3,27.9c-6.7,4.5-13.3,8.8-19.3,14.1c-6,5.3-11.5,11-17.1,16.8c-11,11.3-23.3,24.8-39.3,28.4
		c-15.4,3.5-30.5-3.2-44.4-9c-7.6-3.1-15.1-6-23-8.4c-7.5-2.3-14.9-4.7-21.7-8.6c-7.2-4-13-9.7-19.3-15c-6.4-5.5-13.3-9-21.2-11.8
		c-4.2-1.4-10-4.5-14.1-6"/>
	<path class="st4" d="M120.6,265.6c22.4-13.1,51.5-35.4,78.3-37.3"/>
	<path class="st3" d="M328.6,441.7c0.1,3.5,2,4.6,2.7,8.4c0.8,4.3-0.2,12.3-0.4,16.6c-0.3,7.1,3.2,17.6-5.3,19.2
		c-4.9,0.9-7.1-4.8-9.5-9.1"/>
	<path class="st3" d="M234.8,612.9c-0.7-1-1.3-0.8-2.2-1.8c-3.8-6.7-3.8-19-13.3-17.1c-7.6,1-17.1,11.4-21.9,0
		c-4.8-13.3-5.7-26.6-7.6-40.9c-1-5.7-1.9-11.4-4.5-16.2"/>
	<path class="st3" d="M364.4,557.3c0.5,11.5-6.8,20.9-12,30.5c-5.6,10.3-7.3,22.1-12.5,32.6c-4.8,9.8-13.3,16.9-23.7,20.3
		c-5.1,1.7-10.7,2.8-16.1,2c-5.8-0.9-9.6-4.4-13-9c-3.7-5-7.3-9-13.7-10.3c-5.5-1.1-12,0.8-17.1-1.7"/>
	<path class="st3" d="M344.2,608.6c1.1-3.1,3.1-5.8,5.1-8.5s4.5-5.6,7.8-6c2.5-0.3,4.9,1,7.1,2.2c4.5,2.4,9.2,5,12.2,9.2"/>
	<path class="st3" d="M371.1,600.9c-3.1,16.7-11.8,31.8-19.1,47.1c-15.5,32.5-25.5,67.3-35.3,101.9"/>
	<path class="st33" d="M511.1,529.7c30.1-7.2,61.1,6,88.4,20.6c17.7,9.4,35.1,19.5,52,30.2c11.9,7.5,23.6,15.4,33.7,25.2
		c10.5,10.2,19.1,22.2,27.6,34.2c4,5.6,7.9,11.1,11.9,16.7c1.7,2.4,3.5,5,3.9,7.9c0.3,2.6-0.5,5.3-1.5,7.7
		c-7.1,17.2-22.5,29.3-36.6,41.5c-10.9,9.4-22.4,21.5-21,35.9"/>
	<path class="st34" d="M671.9,738.9c-26.1-42.9-63.4-79-107-103.8c-21-12-43.9-21.4-67.9-24c-24-2.6-49.5,2.1-69,16.3
		c-20,14.5-32.2,37.2-42.5,59.6c-10.3,22.4-19.8,45.8-36.3,64.1"/>
	<path class="st35" d="M154.9,516.9c-0.3-2.7-0.5-5.6,0.9-7.9c0.7-1.2,1.7-2,2.8-2.9c6-4.9,12.6-9.3,19.5-12.9
		c-2.5,5.2-7.4,8.7-11.6,12.7c-1,1-2,2.1-2.6,3.4c-1.2,3.1,0,7.8-1.5,10.7"/>
	<path class="st3" d="M176.4,532.1c1,0,2-0.6,2.8-1.2c7.3-5.5,12.3-13.4,16.8-21.3c0.3,6.8-2.9,13.2-6,19.3
		c-1.6,3.1-3.2,6.2-4.7,9.3c-0.1-2.6-0.4-5.3-0.9-7.9c0.1,2.1-0.8,4.3-2.5,5.6c0-0.8,0.1-1.5,0.1-2.3c-1.1,0.7-2.3,1-3.6,0.9
		c0.5,0.1,0.9-0.5,0.8-0.9C178,534.1,176.7,533.3,176.4,532.1z"/>
	<path class="st3" d="M189.5,530.6c2,1,4.1,1.6,6.3,1.8"/>
	<path class="st3" d="M195.6,513.9c2.8,4.8,3.6,10.8,2.2,16.1c-0.3,1-0.6,1.9-0.8,2.9c-0.2,1.2-0.3,2.5-0.3,3.8
		c-0.9-1.8-1.3-3.9-1.1-5.9c0.2-2.9,1.5-5.7,1.2-8.6c-0.1-1.7-0.8-3.3-1.8-4.6"/>
	<path class="st3" d="M191.8,525.5c1.5-0.4,3.3,0,4.4,1.2"/>
	<path class="st3" d="M212.6,594.2c-0.3-2.3,2-4.1,4.2-4.7c2.2-0.6,4.6-0.5,6.8-1.4c2.9-1.3,4.7-4.5,4.3-7.6"/>
	<path class="st36" d="M261.1,599.3c-1.6,3.9-3,9.3-3.2,13.5c-0.2,3.1,0,6.5-1.7,9.1c-3.7-2.3-6.4-6.8-7-11.2"/>
	<path class="st0" d="M200.5,206.1c-7.4-1-15.3-0.3-21.9,3.3C172,213,167,220,167.2,227.5c0.1-2.9,2.2-5.5,4.7-7.1
		c2.5-1.5,5.4-2.2,8.3-2.9c5-1.2,10.1-2.4,15.1-3.5"/>
	<path class="st37" d="M228.4,165c-0.4-6.6,0.5-13.5,4.3-18.9c0.8-1.1,2.4-2.2,3.3-1.2c0.3,0.4,0.4,0.9,0.4,1.4
		c0.1,3.1-1,6.2-1.9,9.2c-2.7,9-3.1,17.6,0,26.4C229.8,182.3,228.6,168.6,228.4,165z"/>
	<path class="st38" d="M303.8,146.1c-6.9-2.1-6.8-12.5-12.5-16.9c-2.6-2-6-2.5-9.2-2.5c-13.4-0.3-27.2,5.2-35.6,15.6
		c-8.5,10.4-10.9,25.8-5,37.8"/>
	<path class="st3" d="M277.7,202.9c-5.3-2.2-11.6-1.9-16.7,0.6"/>
	<path class="st39" d="M344,683.7c-1.9-9,0.6-9.2,4.3-17.6c3.7-8.4,8.7-16.2,12.5-24.5c2.7-5.9,4.9-12,7.4-18
		c20.8-49.1,69.1-84.1,121.4-94.2c5.3-1,10.7-1.8,16-0.9c10.5,1.9,19.3,11.2,20.4,21.9"/>
	<path class="st40" d="M721.9,680.8c-14-30.8-41.6-53.1-69.1-72.8c-28.5-20.3-58.3-39.4-91.5-50.4c-33.2-11.1-70.2-13.5-102.8-0.8
		c-31,12.1-55.4,36.9-75.4,63.4c-28.9,38.2-51.7,84.8-65.5,130.7"/>
	<path class="st3" d="M276.8,202.7c5.3,11.3,19.7,15.1,25.9,18.2"/>
	<path class="st3" d="M332.6,234.5c16.3,13.2,43.7,19,64.4,15.3"/>
	<path class="st3" d="M333.4,431.1c5.5,16.2,7.1,33.7,4.4,50.6c-0.4,2.3-0.8,4.7-2,6.7c-2,3.4-5.9,5.2-9.8,5.7
		c-2.3,0.3-5.1,0.4-6.5,2.3"/>
	<circle class="st41" cx="315.5" cy="236.1" r="17.4"/>
	<path class="st41" d="M98.7,290.4c-1.4-2.6,1-6.5,1.1-9.4c0.1-2.8-2.3-5.1-3.4-7.7c-1.7-4,0.2-7.1,0.8-11c0.4-2.6-0.1-7.9,2-9.6
		c3.3-2.8,7.8,1.4,10.8,2.7c3.3,1.4,6.6,2.8,9.9,4.1c1.9,3.1-0.1,7.8-0.1,10.6"/>
	<path class="st4" d="M74.9,335.5C74,318.3,82.1,299.4,98,291c4.2-2.2,10.3-3.1,14.9-1.8"/>
	<path class="st41" d="M109.4,331.7c3.9-21,4.8-40.9,2.6-62.1c-0.9-0.7,0.6-2,1.7-2.2s2.2,0.4,3.1,1c2.4,1.5,4.8,3.1,6.6,5.3
		c2.7,3.3,3.7,7.6,4.4,11.8c2.5,13.5,3.7,27.5,0.4,40.8"/>
	<path class="st3" d="M179.8,530.4c-7.4-7.8-17.6-9.8-27.2-14.4c-7.2-10.9-12.3-22.8-20.9-34.3c-6.7-9.5-8.6-20-13.3-29.5
		c-1.9-5.7-2.9-12.4-4.6-19.2"/>
	<path class="st42" d="M236.7,608.2c1.1-0.7,2.5-0.8,3.8-0.9c8.1-0.9,15.9-4.5,21.7-10.2c-4.4,9.5-14.2,16.2-24.6,17
		C233.6,614.3,233.9,609.8,236.7,608.2z"/>
	<path class="st38" d="M243.8,175.2c-1.3-5.5,0.8-11.3,4.2-15.8s8.1-7.8,12.7-11c4.1-2.9,8.2-5.8,12.9-7.5
		c6.1-2.2,12.7-2.1,19.1-1.6"/>
	<path class="st38" d="M264.5,195c0.4-3.5,2.6-6.6,4.8-9.4c6.1-7.6,13-14.5,20.6-20.6"/>
	<path class="st38" d="M260.1,183.9c0.7-5.7,5.1-10.1,9.2-14.1c1.7-1.6,3.3-3.1,5-4.7c2.8-2.7,5.6-5.3,9-7.3
		c3.3-1.9,7.3-3.1,11.1-2.4"/>
	<path class="st38" d="M252.8,177.5c1.1-6.7,5.8-12.3,10.8-17c4.7-4.6,9.9-8.8,16-11.3s13.2-3.1,19.2-0.4"/>
	<path class="st38" d="M240.4,165.8c0.2-4.4,2-8.5,4.1-12.4c3.5-6.4,8.2-12.2,14.3-16.3c6-4.1,13.3-6.5,20.6-5.9"/>
	<path class="st4" d="M396.4,249.4c37.3-8.5,36.4-67.6,2.1-84.7c-14.1-7-34.8-11.3-50.3-16.6c-17.6-6-33.3-13-46.7,2.3
		c-13.2,15.1-23.9,33.1-24,53.6"/>
	<path class="st43" d="M49.9,331.7c0.2-2.2,1.7-4.3,3.7-5.2c2-1,4.5-0.8,6.4,0.5c1.8,1.2,2.9,3.3,3.8,5.3c1.8,4.2,2.9,8.8,2.2,13.4
		s-3.4,8.9-7.6,10.7"/>
	<path class="st43" d="M97.7,395.3c-3.9-3.5-6.4-8.4-7-13.6c-0.3-2.6,0-5.4,1.5-7.6c1-1.4,2.5-2.3,4.1-3c5.3-2.2,11.6-0.8,16.7,1.9
		c1.4,0.7,2.7,1.6,3.8,2.7c2.4,2.5,3.1,6.4,2.6,9.8c-0.5,3.5-2.2,6.7-4,9.7"/>
	<path class="st37" d="M78.3,337.3c7.2-1.1,14.6,3.1,21.5,0.9c2.9-0.9,5.3-2.9,8.1-3.9c2.3-0.8,4.8-1,7.2-1.5
		c9.1-1.9,16.4-9,25.5-11.4c4.7-1.3,9.8-1.2,14.4-3c8.7-3.4,15-13,24.4-13.1c-3.7,9.8-12.9,17.4-23.3,19.2c-5.7,1-12.2,0.6-16.4,4.5
		c-1.8,1.7-2.9,4.1-3.8,6.4c-5.4,13.9-5,31.1,0.5,44.9"/>
	<path class="st37" d="M82,360.6c1.4-4.3,6.7-7.4,10.6-9.6c6.1-3.4,12.4-6.5,18.8-9.2c2.6-1.1,5.4-2.2,7.5-4.1
		c1.6-1.5,3.3-3.5,5.4-3.2c-5.8,5.3-11.8,10.3-18.2,14.8C101,353,97,357.8,93.5,363"/>
	<path class="st37" d="M107.1,361.4c-0.8-2.4,1-5.2,2.6-7.1c2.8-3.3,5.9-6.5,9.1-9.5c-0.7,6.2-2.7,12.2-5.9,17.6"/>
	<path class="st37" d="M39.3,339.2c-2.4-1-4.7-2.1-7.1-3.1c-2.3-1-4.8-2.1-6.1-4.3c-0.7-1.1-1-2.5-1.6-3.6c-1-2-2.9-3.3-4.5-4.8
		s-3.2-3.4-3.3-5.6c0-0.4,0-0.9,0.3-1.2c0.8-0.9,2.3,0.1,3,1c1.8,2.4,3.6,4.8,5.2,7.3c1.3,2,2.6,4.1,4.4,5.6
		c1.9,1.6,4.2,2.5,6.6,3.4c1.5,0.6,3.2,1.1,4.8,0.9c1.6-0.1,3.3-1.2,3.7-2.8"/>
	<path class="st37" d="M37.7,374.2c-1.9,1.9-3.9,3.8-5.8,5.7c-1,1-2,2-2.6,3.2c-1.7,3.2-0.7,7.7-3.2,10.3c0.3,1,1.5,1.5,2.6,1.3
		c1-0.2,1.9-0.9,2.7-1.6c1.3-1.2,2.5-2.5,3.2-4.1s0.8-3.4,1.6-4.8c1-1.7,2.7-2.9,4.4-3.9c2.7-1.7,5.5-3.4,8.2-5.1"/>
	<path class="st37" d="M157.5,399c5.4,6.3,12.8,13.6,21,14.9c2.4,0.4,4.9,0.3,7.3,0.9c2.4,0.7,4.7,2.5,4.8,5
		c-2.7,1.9-6.3,2.2-9.5,1.6c-3.3-0.6-6.3-2.1-9.3-3.5c-5.1-2.5-10.1-4.9-15.2-7.4"/>
	<path class="st37" d="M134.5,372.4c0-1,0.9-1.8,1.8-2.4c1.8-1.3,3.9-2.4,6.1-2.7c2.2-0.4,4.6,0,6.4,1.4c2.4,1.9,3.2,5.3,3,8.4
		c-0.1,2.5-0.1,7.6-1.2,9.9"/>
	<path class="st37" d="M135.7,375.6c0.2-1.9,2.3-3,4.1-3.7c2.2-0.8,5.1-1.3,6.7,0.4c0.7,0.7,1.1,1.8,1.3,2.8
		c0.6,2.7,0.5,6.7-0.3,9.4"/>
	<path class="st0" d="M52.4,321.7c5.6-4.9,15.6-3.2,19.3,3.3c1.7,3,2.1,6.6,3.3,9.8c2.2,5.8,7.1,10.7,7.8,16.9
		c0.6,5.6-2.4,11.4-0.7,16.8c0.8,2.7,2.8,5.8,1.2,8.1c-0.6,0.9-1.7,1.4-2.6,2c-6.1,4.1-7.6,13.7-14.6,16c-3.2,1.1-7,0.1-9.3-2.4
		c-2.6-2.9-3-7-3.8-10.8s-2.6-7.9-6.4-9c-5.3-1.6-11.7,4.1-16.1,0.8c-1.9-1.4-2.6-4-4.6-5.2c-2.6-1.7-6.7-0.5-8.7-2.8
		c-0.9-1.1-1.1-2.6-1.1-4c0.1-11.4,9.4-17.7,19.4-19.5C47.6,339.5,43.9,329.1,52.4,321.7z"/>
	<path class="st43" d="M68,414.1c0.3-4.9,2.3-8.2,0-12.9c-0.8-1.6-3.1-6.7,0.7-6.3"/>
	<path class="st43" d="M72.6,418.9c-0.8,1.4-2.6,2.6-3.5,0.6"/>
	<path class="st43" d="M81.4,410.4c-1.3-1.7-2.4-3.7-3.2-5.7c-1.1,2.8-1.9,5.6-2.9,8.3"/>
	<path class="st43" d="M82.8,371.1c4.8-10.6,22.4-10,31.8-8c5.9,1.3,10.8,4.1,13.5,9.6c1.6,3.3,3,5.5,6.6,6.9
		c3.2,1.2,6.5,1.7,9.6,3.2c11.5,5.5,20.2,22.6,8.3,32.6c-5.6,4.7-11,3.6-17.3,1.6c-4-1.3-5.5,0-7.4,3.5c-1.5,2.8-3.4,5.3-5.8,7.4
		c-2.7,2.3-5.9,4.1-9.3,5.1c-2.6,0.8-7.8,2.2-10.4,0.6c-2.7-1.7-1.7-7.1-3.5-9.8c-2.3-3.6-6.3-4.5-9.8-6.5"/>
	<path class="st37" d="M84,427.5c-2.4,2.6-5.8,4.5-9.4,4.5c-0.3,0-0.6,0-0.9-0.2s-0.4-0.5-0.4-0.9c-0.3-1.1-0.6-2.3-1-3.4
		c-0.2-0.6-0.4-1.3-0.1-2s1-1.1,1.7-1.4c2.4-1.4,4.1-3.7,4.7-6.4c-2.9,1.4-6.2,1.3-9.4,1.2c-1.1,0-2.3-0.1-3.2-0.8
		c-0.9-0.7-1.2-2.2-0.3-2.9c7,0,13.7-3,19.3-7.2s10.3-9.5,14.9-14.7c-0.5,3.9-3.5,6.9-5.7,10.2C89,411.2,90.6,420.5,84,427.5z"/>
	<path class="st43" d="M135.8,402.2c4.4-1.8,9.5-2.3,14.1-1.2c0.8,0.2,1.6,0.4,2.2,0.9c1.4,1.2,1.6,3.3,1.6,5.1c0,0.8,0,1.7-0.4,2.4
		c-0.4,0.8-1.1,1.4-1.8,1.9c-2.1,1.6-4.3,3.2-6.8,4.1s-5.3,1.2-7.8,0.1c-0.9-0.4-1.8-1-2.7-1.5c-2.3-1.2-5-1.5-7.5-0.9"/>
	<path class="st43" d="M44.3,348.2c-2.3-0.2-4.8-0.3-6.9,0.8c-1.3,0.7-2.3,1.9-3.5,2.9c-1.9,1.6-4.2,2.6-6.6,2.9
		c-1,0.1-2.2,0.4-2.4,1.3c-0.2,1,0.9,1.7,1.8,2c1.8,0.6,3.6,0.9,5.5,1.2c2.2,0.2,4.9,0.6,5.8,2.6c0.6,1.3,0.2,2.7,0.3,4.1
		s1,3,2.3,2.9s1.9-1.7,2.4-3c1.2-3.3,4.1-6.2,7.6-6.5"/>
	<path class="st43" d="M84.9,383.2c0.3,4.4,0.5,9.4-2.3,12.8c-0.8,1-1.7,1.8-2.7,2.5"/>
	<path class="st43" d="M101.1,414c2.4,2.3,3.9,5.5,4,8.7c0.1,1.6,0.1,3.6,1.4,4.4c1.1,0.7,2.5,0.2,3.7-0.4c4.9-2.5,8.4-8.4,6.6-13.6
		c-0.7-2-2.1-4-1.7-6.1"/>
	<path class="st43" d="M55.3,367.8c3.3,0,5.3,3.6,6.3,6.7s2,6.8,5.1,8.1c0-2.2,0.5-4.4,1.6-6.4c1.6,0.9,3.8-0.2,4.7-1.9
		s0.9-3.6,0.8-5.5c-0.1-5.3-0.3-10.6-0.4-15.8"/>
	<path class="st0" d="M246.6,179.6c6.2,0.5,12.6,3.9,14.9,9.7c1.1,2.8,1.2,5.9,1,8.9c-0.1,2.6-0.4,5.3-1.6,7.7
		c-2.6,5.2-9,7.7-14.8,7.3s-11.2-3.3-16.1-6.4c-4.8-3.1-11.3-6.5-15.7-2.9c-3.3,2.8-3,7.9-3.1,12.3c-0.1,3.9-0.9,7.8-2.2,11.4
		c-1.1,2.9-2.9,6-5.8,6.9c-5.2,1.7-9.9-4.3-10.6-9.7c-0.3-2.2-0.2-4.4,0.6-6.4c1.1-2.7,3.5-4.7,5.5-6.9c1.9-2.3,3.4-5.4,2.3-8.1
		c-0.7-1.7-2.3-2.9-3.7-4.2c-6.1-6.1-5.9-16.5-1.6-24c4.3-7.5,11.7-12.6,19.2-16.9c2.3-1.3,5-2.6,7.5-1.6c3.1,1.3,3.8,5.6,2.8,8.8
		c-1.4,4.9-7.4,14.1,0.2,17.2C230.7,184.6,240.5,179.1,246.6,179.6z"/>
	<path class="st44" d="M168,203.3c0.4-2.2-0.4-4.5-1.7-6.3s-3-3.3-4.6-4.9c-1.5-1.5-2.9-3.2-4.2-5c-1.9-2.7-3.5-6.4-1.6-9.1
		c1.5-2.1,4.6-2.5,7.2-2.2c2.9,0.4,5.7,1.4,8.1,2.9c3.4,2.1,6.1,5.1,9.4,7.4s7.6,3.7,11.2,2"/>
	<path class="st44" d="M223.9,189.8c6.9,0,13.8,0,20.7,0c2.1,0,4.2,0,6.1,0.8c3.9,1.6,5.8,6.9,3.9,10.7c-2.4,4.6-8.7,5.7-13.6,4.2
		s-9.1-4.8-13.7-7.1s-10.4-3.5-14.7-0.7c-4.1,2.7-5.5,8.1-5.9,13s-0.3,10.1-2.8,14.4c-0.9,1.6-3.2,3.1-4.5,1.7
		c-0.4-0.4-0.5-0.9-0.6-1.5c-0.5-2.1-0.7-4.3-0.6-6.5"/>
	<path class="st44" d="M204.9,190.8c-2-4.6-2.1-10-0.2-14.7c1.8-4.7,5.5-8.6,10.1-10.6c0.7-0.3,1.4-0.6,2.1-0.4
		c1.3,0.2,2.1,1.7,2.1,3s-0.7,2.6-1.3,3.7c-2.4,4.5-4.5,9.5-4,14.6"/>
	<path class="st44" d="M189.3,170.9c3.5-2.4,4.7-7,6.3-10.9c0.7-1.7,1.5-3.4,2.9-4.6c1.3-1.2,3.3-1.9,5-1.4c1.5,0.5,2.6,1.8,3.3,3.2
		s0.8,3,1,4.6"/>
	<circle class="st45" cx="319.3" cy="234.8" r="4.8"/>
</g>
<g id="eyelashes">
	<path class="st46" d="M1097.7,469.7c0.4-0.4,0.7,1,1,2.2c0.4-1,1.4-1.1,1-2.1c0.4,1-0.3,1.4,0.3,2.2c-0.1-0.9,0.5-0.6,0.2-1.5
		c0.6,0.9,0.6,0.2,0.8,1.3c0.1-1.2,0.1-1.1,0-2.2c0.9,1.4,0.7,3,1.6,4.4c0.1-1.9-0.3-2.8-0.3-4.7c0.9,2.1,0.7,3.7,1.8,5.7
		c1.1-2.4-1.1-3.5-0.8-5.9c1.2,2.2,0.7,4.2,2,6.5c0-2.4-0.8-4.8-1.4-7.1c0.3,2.5,1.4,5.4,2.4,7.8c0.1-2.7-0.9-5.7-1.7-8.2
		c1.6,0.9,2,3.1,2.4,4.9c0.7-1.6-0.4-3.4-1.1-4.8c0.6,2.6,1.9,5.3,3,7.8c-0.3-2.9-1.3-4.8-1.6-7.5c1.7,2.2,0.8,5,2.2,7.5
		c2-2.9-0.5-5.2,0.4-7.7c1.6,2.6,1.5,5.2,1.6,8.1c-3.6,0.7-1.1-6.6-3.2-8.6c-0.4,3.2,1,6.3,0.9,9.5c0-2.9,0.6-6.3-1.3-8.8
		c0,3.1,0.9,6.3,1,9.5c0.1,0,0.7,0,0.9,0c1.2-3.7-0.3-6.5,0.1-10c1.3,1.9,1.1,5.5,1.6,7.9c0.1-2.6-2-6.5-0.3-8.1
		c1.1,2.2,0.4,3.3,0.7,5.8c0.1-2.2-0.7-4.8-0.4-6.8c1.9,2.3,1.1,6.3,2.4,9.1c0.2-3.1-1-5.3-1.7-8.1c2.5,1.9,1.4,7,1.3,9.8
		c2.8-3.7-0.1-5.9-0.2-9.7c1.2,3.1,0.9,6.3,2.3,9.4c0.1-3.2-2.2-7.2-3.3-10.2c1.2,3.3,2.4,8.6,4.9,11.2c-2-3.5-3.6-7.2-4.6-11.1
		c0.2,2.8,3,8.7,5.2,10.6c-2.6-2.3-2.8-6.5-3.7-9.7c1.6,2.6,2.2,5.5,3.5,8.3c-1.2-3.5-4-5.1-4.7-8.8c2.3,3.2,3.6,5.8,5.7,9.2
		c-0.5-3.1-2.3-5.3-3.7-8.2c2.5,3.1,3.5,5.5,5.1,9.2c-1.7-3.5-3.4-5.9-4.8-9.5c2.3,3.4,4,5.7,6.1,9.2c-0.6-4-3-6.5-5.1-9.9
		c-0.3,4.4,3,6.4,4.9,9.9c-1.6-4.1-3.3-5.4-5.4-9.2c3.1,3.6,3.9,5.7,6.6,9.5c-1.2-3.7-5.5-6.9-5.7-10.7c3.1,2.4,4.2,6.5,6.6,9.6
		c-0.5-3.6-5.4-7.7-7.3-10.9c2.7,3.8,6.4,9.8,10.6,11.9c-3.1-2.9-9-8.2-9.9-12.4c4.4,2.1,7.5,9.6,11,13.3
		c-4.1-1.7-7.9-8.6-10.3-12.4c5,2.7,9.7,8.9,13.7,13.1c-3.9-4.1-8.6-7.4-11.9-11.9c4.2,0.2,9.2,7.2,10.9,10.9
		c-4.2-2.9-8.2-7.6-10.7-12.1c4.6,2.5,9.1,7.4,11.8,11.8c-5.4-2.2-8.8-8.6-12.8-12.6c3.1,4,6.8,11.4,11.4,13.6
		c-1.8-5.1-8.4-7.5-10.2-12.8c4.2,1.1,7.6,5.8,9.5,9.5c-3.5-2.5-7.2-6.4-9.4-10.1c2.9,0.5,6.4,4.1,7.8,6.7c-2.6-1.7-4.9-4.4-6.8-6.7
		c4.2,1.8,9.1,7.7,10.5,11.5c-3.5-3.9-6.7-7.2-9.4-11.6c5.1,4,8.8,7.7,12.6,12.8c-3.9-3.9-8.6-7.7-11.8-12.2
		c4,2.4,9.8,7.5,12.1,11.8c-4.7-2.4-11-8.2-13.4-13c5.6,0.6,11.2,8.6,13.3,13.2c-4.2-2.5-8.9-7.1-10.8-11.6c4.2,1.7,10,7.6,12,11.8
		c-3.9-3.3-8.7-8.4-10.9-13c5.3,1.2,9.6,7.5,12.1,12c-3.9-2.7-9.2-7.3-11.5-11.4c3.9,0.7,10.7,8,11.2,12.2
		c-4.7-1.8-8.3-7.7-10.8-11.8c3.8,2.9,8.4,8,9.8,12.7c-3.7,0.6-6.4-8.6-7.7-11c1.1,1.5,2.3,2.9,3.1,4.5c-3.2-1.3-6-5.2-8.2-7.8
		c1.8,0.9,3.7,2.2,4.5,4c-2-1.3-3.7-3-5.5-4.5c2.1,0.3,4.9,2.3,5.9,4.3c-2.5,0-4.5-2.1-5.5-4.2c2.6,0.4,5.7,2.9,6.4,5.5
		c-2.4-0.6-4.7-3.5-5.7-5.7c3.5,1,7.5,5.2,9.4,8.4c-3.3-3.3-6.3-6.9-10-9.7c5.4,3.4,10.4,7.2,13.3,13c-4.1-3-6.7-8.3-10.8-11.6
		c5.4,2.5,10.3,8.1,14,12.8c-2.7-4.4-7.2-7.9-11-11.3c2.4,3.3,8.5,9.4,12.4,10.9c-3-6.1-9.2-8.1-14.1-12.3c1.9,2.7,3.8,4.7,7,6.2
		c-1.9-3.3-4.7-3.5-6.3-6.9c4,0.3,5.8,4.6,8,7.6c-1.5-2.9-4.7-4.7-7.2-6.6c1.4,1.9,3.3,4.3,5.4,5.3c-0.5-2.6-3.4-4-4.3-6.4
		c3.4,0.8,6.2,4.9,8.1,7.6c-2.3-3.6-6.3-4.6-9.4-7.4c4.9,2.4,8.4,5.8,11.4,10.2c-3.8-2.5-7.4-6.7-10.7-9.8
		c5.2,1.5,8.4,8.2,13.3,10.8c-3.6-4.1-7.4-8.6-12.1-11.5c4.7,3.6,9.2,7.6,14.2,10.9c-4-2.8-11.3-6.3-13.3-10.9
		c5.1,2.5,9.5,7.1,13,11.5c-4.8-3-8.4-7.7-12.7-11.3c5.3,0.5,9.5,7.4,13,11.1c-4.3-3.6-8.5-7.2-12.8-10.8c3.8-0.2,10.2,6.1,12.4,9.7
		c-5.1-2.3-10.2-7.8-14.7-11.3c2.5,1,5.8,2,7.9,3.8c-2.9-1.1-5.6-2.8-8.3-4.5c2.1,0.3,4.4,1.3,6.2,2.4c-1.6-0.7-3.1-1.7-4.6-2.7
		c3.8,1.7,7.5,4.5,9.6,8.1c-3.4-1.7-7.5-4.8-9.9-7.6c5.3,2.3,8.3,7.9,13.3,10.5c-3.1-4.5-7.5-7.4-11.6-10.9c4.8,3.4,9,7.4,13.8,10.8
		c-4.2-4.2-7.5-7.3-12.3-10.8c6.2,2.5,8.8,6.4,13.2,11.1c-1.1-1.5-13.3-11.9-13.4-11.6c5,3,10.8,6,14.8,10.2
		c-4.4-3.3-9.4-6.6-13.4-10.4c4.4,3.4,8.9,10.8,14.2,12.7c1.8-6.8-10.1-9.3-13.3-13.5c5.4,2.8,8.9,8.5,13.5,12.3
		c-4.1-4.4-9.4-7.3-14-11c5.2,2.8,9.4,7.4,14.4,10.7c-3.7-1.6-7.9-6.3-10.8-9.1c5.2,3.1,9.8,7,15,10.1c-4-5.2-11-7.3-16.2-11.1
		c5.1,2.9,10.3,6.5,14.7,10.4c-3.7-0.9-7.3-4.6-9.8-7.4c3.3,2.6,6.7,5.2,10,7.9c-6-2.2-10.9-8.1-15.9-12c3.3,0.7,6.9,4.4,9.5,6.5
		c-3.7-1.4-7.9-4.3-10.9-7c3.9,1.8,8.2,4.1,11.4,7.1c-3.2-2.1-6.3-4.9-9.3-7.2c3.2,1.4,7.8,3.2,9.9,6.1c-3.3-2.1-6.7-4.1-10.1-6.1
		c4.2,0.5,8.5,4.1,11.3,7.1c-3.5-1.1-8-4.1-10.8-6.6c4.1,1.9,8.5,3.8,12,6.7c-3.8-1.7-7.6-4.1-10.5-7.2c3.8,0.4,8.1,4,10.9,6.6
		c-3.5-2.3-8.6-4.5-11.1-7.9c4.7,1.8,9.7,4.5,13.3,8c-3.7-0.5-10-5.5-12.8-7.9c4.3,2.7,9.1,5.3,12.7,8.9c-3.5-1.7-7.7-4.6-10.3-7.5
		c3.8,1.6,6.9,4.4,10.7,6c-3.3-3.5-8.2-6.3-12.5-8.5c4.4,1.4,9.8,4.8,12.9,8.2c-3.2-3.1-7.4-5-11-7.5c3.6,0.2,8,4.3,11,6.2
		c-3-2.9-7.6-4.7-11.1-7.2c2-0.9,9.8,4.9,12,6.1c-3.2-2.4-6.8-4.1-9.8-6.7c4,1.5,7.5,4.3,11.1,6.4c-3.8-2.9-8.6-4.5-12.8-6.8
		c3.7,2.5,7.5,4.8,11.3,7.2c-2.9-1.7-8.2-4.2-9.9-7c3.8,1.9,7.4,4.1,10.9,6.5c-2.1-2.8-6.3-4.6-9.3-6.7c3.4,2,6.8,4.1,10.2,6.2
		c-3.4-1.3-8.2-4.8-10.9-7.1c3.7,2,7.5,4.7,11,7.1c-1.5-3.2-6.8-4.8-9-7.4c3.2,2.1,6.4,4.3,9.2,6.9c-3.2-0.9-6.6-4.1-9.2-6.1
		c2.9,1.3,5.6,3.5,8.2,5.3c-3.7-1.6-5.7-3.6-9-5.9c2.5,2.7,5.5,3.8,8.7,5.6c-2.2-2.4-5.2-4-7.4-6.4c3.5,1.3,6.7,3.5,9.9,5.4
		c-3-2.4-6.4-4.5-9.8-6.5c3.1,1.6,6.5,3.6,9.3,5.9c-3.8-2-7.2-4.5-10.7-7.1c3.6,2.2,7.9,4.3,10.9,7.4c-4.1-1.3-7.9-2.7-11.3-5.2
		c3.9,0.9,7.8,2.2,11.1,4.5c-3-2-5.9-3.4-8.4-6.1c3.7,2.1,7.6,4.2,10.8,6.9c-2.5-2.9-7.4-5.9-10.6-7.9c3.3,2.5,6.7,4.9,10,7.4
		c-2.3-2.6-5.3-4.7-8.1-6.7c2.9,2.1,5.6,4.3,8.5,6.4c-2.8-3-6.4-5-9.6-7.4c1.1,0.7,9.7,6,9.5,6.7c-3-2-5.8-4.4-8.5-6.8
		c1.2-1,8.4,4.6,9.9,5.6c-2.4-2.7-5.7-5-8.8-6.7c3.2,2.1,8,3.2,10.8,5.9c-3.8-2.3-8.1-3.2-11.9-5.5c2.3,2.7,5.3,3.7,8.1,5.9
		c-2.9-2-5.5-4.6-8.1-7c0.8-0.3,7,4.8,8.1,5.5c-2.4-1.7-4.5-3.5-6.7-5.5c1.4-0.7,7.5,5.9,8.6,7.1c-2.9-2.3-5.7-4.8-8.7-7.1
		c2.9,2.2,6.7,3.9,9.1,6.6c-2.5-2.1-5.6-4-7.2-6.8c2.4,1.8,4.2,3.9,6.4,6c-2.4-2.4-3.5-4.3-5.8-6.7c2.9,1.8,4.1,4,6.6,6.2
		c-2.7-1.8-4.6-5.3-7-7.6c2.5,1.8,4.5,4.6,6.7,6.8c-2.6-2-2.9-3.8-5.3-6c2.9,1.6,3.3,3.8,5.9,5.9c-1.6-2.3-3.6-4.4-5.8-6.1
		c2.6,2.2,5.1,4.8,7.2,7.5c-1.7-1.3-4.9-3.6-5.6-5.6c2.2,1.5,4.1,3.2,6.2,4.7c-1.6-1.4-3.5-2.7-5-4.3c1.8,1.4,3.5,2.9,5.3,4.3
		c-1.4-1.3-3.1-2.7-4.1-4.5c1.5,1.2,2.8,2.6,4.3,3.8c-0.4-1.1-1.3-2-2-3c0.7,0.7,1.5,1.4,2.2,2.1c-0.1-0.3-0.3-0.7-0.5-1
		c0.5,0.4,0.7,0.8,0.8,0.9c0.2,0.3,1,0.7,1.2,1c0.1-0.3,0.1-0.7,0-1c0,0.2-0.7,0.8-0.6,0.9c0.1-0.1,0.4-0.3,0.4-0.5
		c-0.6,1.6-2.1,0.3-3.8,0.8"/>
	<path class="st46" d="M957.1,491.6c0,0,2.7-2.7,3.4-3.5c0.9-1,2-1.7,3-2.6c1.5-1.3,2.6-3.2,4.4-3.9c-0.3,0.8-1.4,1.4-2.1,1.9
		c-1.1,0.8-2,1.7-3,2.6c-1.2,1-2.3,2-3.4,3.2c-0.6,0.6-1.8,1.4-2,2.2c2.2,0.3,4.6-3.8,6.2-5.2c1.2-1,2.8-3,4.4-3.4
		c-0.1,1.8-3.3,3.3-4.6,4.2c-1.2,0.9-3,2.2-3.2,3.7c1.8,0.2,3.8-3.8,4.7-5s2.2-2.4,3.6-2.8c-1.2,1.9-3,3.6-4.6,5.3
		c-0.8,0.8-2.4,2.1-2.6,3.2c1.6,0.2,3.3-3.6,4.1-4.7c1-1.5,1.9-2.9,3.4-4c-2.1,1.4-4,3.3-5.8,5.2c-0.8,0.9-2.2,2-2.5,3.2
		c2.2,0.2,4.2-4.4,5.4-5.9c0.7-0.9,1.9-2.9,3.2-3c0.1,2.2-2.7,4.3-3.9,5.9c-1,1.3-2.1,2.6-3.2,3.8c3.2-2,4-6.6,7.3-8.5
		c-1.6,2.5-3.8,4.5-5,7.3c2.8-1.1,3.2-5.7,5.8-7.5c-1.4,1.9-3.1,3.5-4.5,5.5c-0.7,1-1.7,2.1-2,3.2c1.7,0.1,3.2-3.4,3.8-4.6
		s1.1-2.9,2.3-3.7c-1,3-3.2,5.6-4.4,8.5c1.5-2.8,2.6-5.8,4.5-8.3c1.8,1-1.6,4.6-2.7,5c-0.8-1.4,1.1-5.2,2.4-5.7
		c-0.3,0.8-0.9,1.9-1.7,2.3c0.2-0.4,1.4-3.8,2.2-3.4c1.1,0.6-1.6,3.6-1.9,4.2c0.3-0.6,1.1-3.7,1.7-3.8c1.5-0.1-1.1,3.5-1.3,3.9
		c0.9-0.7,1.9-2.4,1.7-3.6c-1.4,0.8-2.3,4.7-2.8,6.1c-0.4,1-0.8,3.1-2,3.3c-0.2-3.1,4.3-5.6,4.7-8.8c-1.3-0.2-1.3,3.1-1.5,3.9
		c-0.6,2.6-1.9,3.5-3.6,5.3c2.9-1.8,3.9-5.8,5.3-8.7c-0.9,2.3-0.9,7.7-3.9,8.4c1.2-2.1,2.1-4.2,3.1-6.4c0.2-0.4,0.8-2.7,1.3-2.8
		c1.9-0.3-0.9,4.5-1.1,4.9c-0.9,1.7-1.9,3.3-2.8,5c2.8-2.4,1.3-7.8,4.1-10.2c1.8,3.2-3.4,7.2-4.5,9.9c2-1.9,2.7-5.9,4-8.4
		c-0.2,1.3-2,8.6-4.1,8.4s2.2-4.8,2.9-5.4c-0.5,1.7-1.9,5.3-3.9,5.8c0.7-1.3,2-2.4,2.9-3.7c1-1.5,1.7-3.1,2.3-4.8
		c0.1,1.9-1.5,6.1-3.1,7.3c1.1-1,2-4.2,2.4-5.7c0.3-1,0.7-2.1,0.8-3.1c0.2,2.7,0.4,8.4-2.8,9.7c0.8-2.1,2.1-3.9,2.7-6.1
		c0.4-1.3,0.8-2.7,1-4c0,2.2-0.8,4.3-1.4,6.4c-0.3,1.1-0.7,3.1-1.7,3.8c0.1-3,2.6-5.8,2.6-9c1,2.7-0.3,6.9-1.8,9.1
		c2.1-2.9,1.8-5.7,2.6-8.9c0.1,2.6-0.3,8.3-2.9,9.6c-0.2-0.5-0.1-0.8,0.1-1.3c0.4-1.6,1.3-3.3,1.8-4.9c0.4-1.2,0.9-2.3,0.9-3.5
		c1.4,1.7-0.1,6.1-1.5,7.6c0.4-2.1,0.8-4.3,1.3-6.4c0.1-0.6,0.1-1.1,0.6-1.4c2.1,2.3-2,8.3-2.9,10.6c1.6-3.3,3.1-6.7,3.1-10.4
		c1.5,3.1-0.5,6.5-1.9,9.3c0.3-2.2,4.1-7.6,1.9-9.8c-1.2,1.1-1,3.3-1.4,4.9c0.3-0.7,0.6-4.5,1.2-4.8c1.4-0.6,0.9,2.2,0.7,2.7
		c0.2-0.8,0.7-2.9-0.5-3.2c-1.4-0.4-1.6,2.7-1.6,3.6c0.5-0.9,0.3-3.4,1.7-3.5c1.1,1.4,0.2,3.2-0.3,4.7c-0.7,2.2-1.4,4.2-1.7,6.5
		c2.2-2.8,1.5-7,2.7-10.2c1.3,1.5-0.3,4.5-0.7,6.1c-0.5,1.7-1,3-1.7,4.6c2.4-2.5,2-6.7,3-9.9c0.4,3.1-1.4,7.2-2.9,10
		c1.6-2.5,3.5-6.9,2.6-10c0.1,1.9,1.1,8.8-1.8,9.2c0.2-0.9,0.9-1.7,1.2-2.5c0.7-1.6,0.9-3.7,0.9-5.4c0-1.2-0.1-2.7-1.1-3.5
		c0.4,1.4,1.6,3,0.6,4.5c-0.4-0.9-0.3-2.7-0.5-3.9c3,2.9-0.2,9.1-1.2,12.4c0.9-2.3,1.4-4.8,1.6-7.3c0.1-1.4-0.1-3,0.3-4.3
		c2.7,0.4-0.8,10.2-1.3,11.9c2.3-2.4,2-9.7,1.7-13c2.2,4.6-0.7,9.2-1.9,13.5c0.9-2.4,1.5-4.7,1.9-7.1c0.2-1.3,0.2-3.6,1-4.5
		c1,1.9,0.3,5.1,0,7.2c-0.3,1.7-0.8,3.6-1.8,5c-0.9-2.2,0.9-4.7,1.4-6.8c0.6-2.3-0.2-4.4,0-6.6c1.6,4.3,0.3,8.9-1.2,12.9
		c0.5-2.8,0.9-5.6,1.4-8.5c0.3-1.6,0.6-3.1,0.2-4.7c1.5,2.1,0.8,5.9,0.2,8.2c-0.4,1.5-0.7,4.2-2,5.2c0.4-2,1.1-3.9,1.4-6
		c0.2-1.8,0-3.5,0-5.3c0.1,2.6-0.2,5.3-0.6,7.8c-0.3,1.4-1.4,2.8-1.5,4.1c3.3-2.8,2.6-9.4,2.8-13.3c1.7,3.9-0.7,9.4-1.3,13.4
		c0.6-3.1,1.3-6,1.3-9.2c0-1.3-0.4-3.1,0.4-4.2c2.1,4.5-1.4,9.5-1.3,14.1c1.4-1.5,1.1-5.3,1.2-7.2c0.1-1.9,0-4,0.6-5.9
		c1.5,4.6-0.3,9.8-1.3,14.3c0.3-2.8,0.7-5.7,0.9-8.5c0.2-1.8,0.5-4.2-0.1-5.9c1.5,3.6,1.6,9.8-0.4,13.4c0.7-4.8,1.1-8.9,0.5-13.7
		c1.1,3,1.7,8.6-0.1,11.4c0.2-3.2,0.7-6.4,0.6-9.7c0-0.8,0-1.8-0.4-2.5c1.4,2,0.8,5.7,0.6,7.8c-0.1,2.3-0.4,4.6-0.9,6.8
		c0.9-3.4,1.4-6.6,0.9-10.1c-0.2-1.4-0.7-3-0.1-4.2c2.4,4.2,0.2,9.7,0.1,14.2c1-1.4,0.8-4.3,0.8-5.8c0-2.3-0.2-4.6-0.8-6.8
		c1,4.3,0,8.4-0.4,12.7c1-3.3,1.4-6.7,1.9-10.1c0.3-2-0.3-2.7-1-4.4c0.4,1.9,0.5,3.9,0.6,5.8c-0.2-1.5-1-4.8-0.3-6.1
		c1.5,1.4,1,4.3,0.7,6.1c0.1-1.3,0.7-4.5-0.5-5.4c-0.5,1.4-0.1,3.9,0.1,5.3c0.1-1.3-0.5-3.9,0.4-4.9c1.2,1.3,0.6,4.2,0.4,5.7
		c-0.3,2.2-0.2,4.6-0.9,6.6c0.6-3.2,0.4-6.5,0.1-9.8c0,3.3-1.4,7.2-0.6,10.4c1.5-1.8,1-5.7,1-7.7c0-1.3-0.5-3.6,0.2-4.8
		c1.3,0.7,0.7,4.7,0.6,5.8c-0.1,2.4-0.8,4.9-0.7,7.4c1.7-2.2,0.7-6.9,0.6-9.5c0-1.1-0.6-4.2,0.8-4.6c2.2,3.1-0.5,8.5-0.5,12
		c-0.1-4.1,0.6-8.2-0.5-12.3c-0.5,5.1,1.7,10.6-0.4,15.4c0.7-3.8,0.7-7.4,0.5-11.3c0.5,2.7,0.5,5.6,0.2,8.3
		c-0.1,1.1-0.7,2.9-0.3,3.9c1.5-2.3,0.7-6.4,1-9.1c0.2-2.1,0.4-4.2,0.4-6.4c1.3,1.7,0.4,5.6,0.2,7.4c-0.3,2.4-1,4.9-1.2,7.3
		c3.4-3.8-0.3-10.4,1.7-14.7c1.3,2.2,0.1,6.2-0.3,8.5c-0.3,1.7-0.8,3.5-0.8,5.3c1.6-0.9,1.4-5,1.4-6.5c0-1.8-0.8-4.9,0-6.5
		c1.8,1.1,0.7,6.1,0.5,7.6c-0.3,1.8-0.8,3.8-0.7,5.6c1.3-2.3,1.2-5.4,1.1-7.9c-0.1-1.7-0.6-3.8-0.2-5.5c3,0.3-0.6,9.4,0,11.5
		c1.1-0.8,0.9-3.7,1-4.8c0.1-1.8-0.5-4.7,0.6-6.4c1.7,0.6,0.7,6.6,0.5,7.8c-0.2,1.5-0.4,2.9-0.4,4.5c0.2-1.8,0.4-3.6,0.4-5.5
		s-0.6-4,0-5.8c1.6,0.4-0.6,11.1-1,12.4c-0.7-0.5,0-7,0-7.8c0-1.4,0.1-3.3-0.6-4.7c1,3.6,2.1,9.8-2.3,11.5c0.3-2.4,1.7-4.8,2.2-7.3
		c0.3-1.9,0.1-4.4,0.9-6.1c1.7,1.2,0.7,5.1,0.5,6.8c-0.3,1.9-1.4,4.9-0.6,6.7c1.5-0.6,1.2-5.3,1.2-6.4c0-1.7-0.1-3.5-0.1-5.2
		c0.9,3.7,1.2,8.3,0,11.9c-1.5-1.4-0.4-6.1-0.2-7.7c0.1-1.5,0.7-3.6,0.1-5c1.6,2.5,1.1,6.9,0.7,9.7c-0.2,1.4-0.5,3.1-1.4,4.1
		c0-2.1,0.6-4.3,0.8-6.4c0.1-2,0.2-4,0.2-6c1.5,3.7,0.4,9.6-1,13.3c1.4-2.1,1.4-5.6,1.4-8.1c0-1.6-1.3-5.4-0.2-6.6
		c2.7,2.8,0.5,10.2,0.3,13.6c0.9-2.5,0.7-5.6,0.5-8.1c-0.1-1.6-0.9-3.9-0.4-5.4c1.9,4.6-0.3,9.8,0.3,14.5c0.9-2.9,0.6-6.3,0.4-9.2
		c-0.1-1.4-0.6-4.1-0.1-5.4c2.2,4.1,1.5,9.8,0.9,14.2c-0.2-4.7,0.5-9.6-0.4-14.3c-0.5,3-0.6,6.1-0.2,9.1c0.2,1.5,0.7,3.1,0.7,4.6
		c0-0.2,0.1-0.6,0.1-0.7c0.1,0.2-0.2,0-0.2,0c1.3,0.5,0.4,2.2,0.2,3.2c0.1-2.3,0.8-4.8,0.5-7.1c-0.1-1.1-1-2.7-0.6-3.7
		c1.1,3.5,1.1,7.1,0.4,10.7c-0.9-3.1-0.3-7.5-0.1-10.7c0.1-1.4,0.3-1.6,0.4-2.6c0.1-0.7,0.5-1.6-0.1-2.2c-1.2,0.2-0.8,4.5-0.9,5.5
		c0.5-1.9,0.8-4,0.9-5.9c1.4,0.6,0.3,4.7,0.2,5.7c-0.4,3.4-0.3,6.6,0.2,9.9c1.5-4.3,0-9.3,1-13.7c0.2,2.4,0,4.8-0.2,7.2
		c-0.2,2-0.8,4.3-0.6,6.3c1.2-2.5,0.8-5.4,0.5-8c-0.2-1.7-0.8-4.2,0-5.8c0.3,1.9,0.1,4.3,0.1,6.1c0,1.4-0.5,3.9,0.1,5.1
		c-0.1-2.4-0.5-4.9-0.5-7.3c0-1.5-0.2-3.7,1-4.9c0.4,1-0.5,13.1,0.9,13.2c0.3-2.6,0.2-5.2,0-7.8c0-0.7-0.5-3.4,0-3.9
		c0.3,4.9-0.9,9.2-1.4,13.9c1.3-3.3,2.5-8.9,0.7-12.2c0.6,2,0.7,3.9,0.5,6c-0.2,2-1.3,4.3-1,6.3c2.2-2.4,1.3-7.1,0.9-10
		c-0.2-1.4-0.8-3.8,0.2-5c0.9,1.7,1,4.7,0.1,6.4c-0.3-2.5-0.3-5-0.8-7.4c-1.3,0.2-1.4,3.5-1.4,4.4c0-1.6,0-3.3,0.9-4.7
		c1.8,0.3,1,7,1.8,8.5c1.9-0.6-0.4-6.9,0.3-8.4c0.9,1.1,0.3,4.5,0.3,5.5c-0.1,1.5-0.3,3.2-0.2,4.7c0-3.1,0-6.8-1.3-9.7
		c0.9,3.9,2.6,9.9,0.6,13.7c0-2.3,1.2-4.6,0.3-6.9c0,2.4-0.5,4.8-0.6,7.2c1.9,0.3,1.6-10.2,1.5-11.5c0.1,3.4-0.2,6.7-0.2,10.1
		c0.5-2.6,0.5-5.3,0.2-8c-0.2-1.4-0.8-3.1-0.4-4.5c1,1.7,0.6,5.5,0.6,7.1c0,1.9-0.1,3.8,0.3,5.6c1.3-4.1-1-8.5-0.5-12.6
		c0.7,0.8,0.7,5.3,0.7,5.5c0.1,1.9-0.1,3.9,0.1,5.8c1.7-3.6-0.5-8.2-0.3-11.9c1.2,0.9,1.1,4.8,1.1,5.6c0,2.2-0.1,4.4,0,6.5
		c0.7-3.7-0.6-7.7-1.1-11.3c0.5,3.2,0.3,7.4,1.7,10.4c1.6-3.2-1.5-7.7-0.1-10.8c1.4,3.6,0,8.4,0.6,12.2c-1.4-3.8-1.8-8.2-1.5-12.2
		c0,3.5,1.9,7,0.7,10.5c-0.4-3.4,0.3-6.8-0.3-10.2c0.8,4.3,1,8.5,1,12.8c0.8-3.7,0.1-8.8-0.7-12.5c0.7,3.9,2.4,8,1.8,12
		c-0.1-2.4-0.3-4.8-0.5-7.2c-0.1-0.5-0.1-3.9-0.5-4.1c0.1,2.3,0.4,4.6,0.7,6.9c0.2,1.6,0.7,3.7,0.5,5.3c-0.2-3.9,0.4-8.7-1.5-12.3
		c0.5,1.9,0.8,3.7,1,5.7c0.2,2.3-0.2,4.8,0.1,7.1c0.3-4.5,0.4-9.6-0.9-14c-1.1,0.8,0.5,6,0.8,7.3c0.4-1.7-1.4-5.8,0-7
		c1.2,2.7,0.5,5.6,1.2,8.4c-0.3-2.9-0.8-5.7-1.7-8.4c-0.8,1.2,1.1,5.1,1.5,6.4c0.6,2.1,1.2,4.8,0.2,6.9c-0.2-3.8,0.3-7.9-0.8-11.7
		c-0.4,2.3,0.6,5,0.9,7.3c0.2,1.4,1,4.8-0.2,5.9c-0.2-4.6,0.2-9-0.8-13.5c1.2,3.4,1.9,7.6,1.8,11.3c-0.6-2.9-1.2-5.8-1.5-8.7
		c-0.1-1.1-0.4-2.2-0.1-3.3c1.4,1.1,1.4,3.8,1.5,5.4c-0.1-1.2-0.4-5.5-2-5.8c-0.2,2.9,2,5.6,2,8.5c-1.2-1.2-1.6-4.3-1.8-5.8
		c-0.1-0.8-0.4-2.6,0.4-3.1c1.9,1.5,1.9,4.9,2,7.1c0.1,2.3,0.4,4.6,0.7,7c0-3.3-1.2-6.9-2.2-10c0.2,2,0.9,4.3,1.2,6.3
		c0.2,1,1.3,4.6,0.4,5.2c-1.4-2.6,0.3-6.7-1.5-9.1c-0.4,2.9,1.8,5.9,1.5,8.9c0.1-2.8-0.3-5.5-0.6-8.3c-0.1-0.5-1.1-5-0.6-5.3
		c1.6,2.4,1.9,5.1,1.8,8c0.4-2.9,0.3-6.8-1.2-9.4c0.3,2.9,1.7,5.9,1.6,8.9c-2.2-2.2-0.5-6.8-2.3-9.3c-0.8,0.8,1.6,5.8,1.5,7.2
		c-0.8-1.1-2.1-5.5-1.1-6.6c0.7,1.9,0.6,3.9,1.3,5.7c0.4-1.9-0.6-4.9-2-6.3c-0.2,2.9,2.5,6,1.7,8.9c-0.6-2.5-1.1-5.1-1.9-7.6
		c-0.3,0.6-0.1,1.3,0.4,1.9c0.4,1.6,0.9,3.2,1.3,4.8c0.6,2.5,1.1,5,1.1,7.6c0.5-3.2-0.2-6.4-1-9.5c1.6,1.7,1.9,6.6,1.2,8.9
		c-1.1-2.3-1.3-5.1-1.6-7.5c0.7,1.8,1.8,6.6,0.4,8.3c-1.4-1.3-0.5-5-0.2-6.7c1.4,1,1,4.4,1.5,6c0.6-1.1,0.1-2.8-0.1-3.9
		c-0.2-1.2-1.5-4.4-0.7-5.3c1.2,3.5,1.1,7.2,1.8,10.8c-0.1-2.3-1.2-4.6-1.3-6.8c1.2,1.8,1.6,4.4,1.6,6.6c0.3-2.3-0.5-4.7-1.3-6.8
		c1,2.3,1.8,4.6,1.6,7.1c0-2,0.5-4.9-0.7-6.8c0.9,2.2,0.9,4.2,0.8,6.4c0.9-3.7-0.9-6.7-1.7-10.2c0.7,2.4,2.4,6.8,1.1,9.2
		c-1.4-3.9-0.6-8-2.3-11.9c1.6,2.6,2,6.5,2.3,9.5c-0.6-2.6-1.3-5.2-1.8-7.9c-0.2-1.2-0.8-3-0.3-4.1c1.4,2.2,1.4,5.4,1.7,7.9
		c-0.3-2-1.1-3.8-1.6-5.7c-0.3-1-0.5-2.2-1-3.1c0.4,1.8,1,3.6,1.5,5.4c-0.6-0.7-1.7-4-1-5c1.3,1.2,1.2,3.5,1.6,5.1
		c0.3-2.2-1.6-4-1.5-6.1c1.8,0.7,2.1,5,2.5,6.7c-0.4-1.9-0.8-4.2-2.2-5.7c0.2,1.5,1.5,2.9,2.1,4.4c0.8,2.1,1.3,4.6,0.9,6.8
		c-0.9-3.4-1.5-6.9-2.9-10.1c1.7,2.9,2.8,6.2,2.8,9.6c-0.8-1.6-1-4.2-1.4-5.8c-0.4-1.5-0.9-3-1.2-4.5c2.4,1.8,3.1,8.6,2.9,11.4
		c-0.5-2.1-1.1-4.2-1.6-6.3c-0.4-1.5-1.2-3.3-1.2-4.9c1.9,2,2.3,5.1,2.6,7.8c-0.5-2.6-0.4-6.2-2.2-8.5c0.6,2.7,1.2,5.3,1.2,8.1
		c-1.2-2-1.7-5.9-1.2-8.3c1.1,1.7,0.6,4.4,2,6c-0.4-1.9-0.6-4.3-1.6-6c-0.2,1.9,0.9,4.6,1.8,6.3c0.5-1-0.9-4.7-1.5-5.7
		c0.6,4.3,1.5,8.7,2.5,12.9c-0.7-3-1.6-5.9-2.3-8.9c2.2,2.4,1.3,7.2,3.3,9.7c-0.3-2.7-1.6-5.2-2.3-7.8c1,2.7,1.6,5.8,3,8.3
		c0.2-3.8-3.1-7.3-3.4-11.1c1.4,1.5,1.8,3.6,2.2,5.5c0.2,0.8,1.2,3.7,0.5,4.4c-1.8-4.3-3-8.8-3.7-13.3c2.9,0,2.8,7.4,3.4,9.4
		c-0.7-3.1-1.5-6.9-3-9.7c1.2,3.1,3.2,6.1,3.7,9.5c-1.1-3-2.2-6-3-9c2.2,4,2.6,8.8,3.6,13.2c-2.1-2.4-3-7.6-3.4-10.8
		c1.1,3.1,1.5,8.1,3.7,10.7c-0.4-2.7-1.6-5.4-2.5-8c-0.5-1.7-0.8-3.5-1.6-5.1c-0.1-0.3-0.5-0.8-0.5-1.1c1.3-0.4,1.4,1.4,1.6,2.2
		c0.6,1.9,1.2,4.3,2.5,5.9c-0.3-2.4-2.4-4.7-2.5-7.1c1.6,0.5,2,4.8,2.4,6.2c0.3,1.1,1,4.8,2.2,5.2c0.2-2.3-1.7-5.3-2.5-7.3
		c-0.4-1-0.9-2-1.5-2.9c1.8,3.5,2.7,7.4,3.6,11.2c-0.4-3.9-3.2-6.8-4-10.4c0.6,1.9,1.4,3.9,2.2,5.7c0.6,1.5,1.3,3.7,2.3,4.9
		c-0.3-2.3-1-4.8-1.9-6.9c-0.7-1.6-1.6-2.8-1.6-4.6c2.7,3.6,3,7.8,4.2,12c-1.2-0.4-1.9-2.9-2.3-3.9c-0.9-2-2.1-4.1-2.6-6.2
		c0.2,2.2,1.8,4.8,2.6,6.9c0.4,1,0.6,3.2,1.3,3.9c0.4-3.4-2.2-6.5-3.4-9.5c0.6,1.7,1.5,3.2,1.9,5.1c0.3,1.1,0.4,2.5,0.7,3.6
		c-0.9-3.5-2.5-6.6-3.2-10.1c1,2.4,1.3,8.9,3.9,10c0-2-1.4-3.6-2.4-5.3c-1.1-2-1.1-4.1-1.6-6.2c-0.2-0.8-0.5-1.2-0.8-1.9
		c1.7-0.2,2.6,6.7,4.4,7.8c-0.4-2.4-2.4-5.1-3.4-7.4c1.2,0.2,1.6,2.4,1.8,3.3c0.6,1.8,1.5,3.7,1.6,5.6c-1.9-2.6-2.9-5.9-3.3-9.1
		c2.5,2.7,4.1,7.4,4.1,11.1c-1.1-0.3-1.9-2.8-2.3-3.6c-1-2.2-1.6-4.6-2.5-6.8c1,2.8,2.4,5.6,3.6,8.4c0.5,1.3,1.1,3.5,2.3,4.3
		c0.2-3.2-2-7.3-4-9.7c0.9,1.9,1.7,3.7,2.5,5.7c0.5,1.4,1.6,3,2,4.4c-0.3-2.8-1.6-4.9-3.4-7c0,2.3,0.9,5.4,2.1,7.4
		c0.1-2.4-1.5-4.7-2.9-6.5c2,1.5,2.3,4.8,4.2,6.5c0.2-2.8-1.3-5.6-2.6-7.9c-0.9-1.5-1.4-3.3-2.4-4.7c2.7,2.7,3.4,6.4,4.9,9.7
		c-1.2-2.7-2.8-5.2-4.3-7.6c-0.6-1-1.6-3-1.2-4.2c3.2,1.2,2.7,7,5.1,9.3c0-3.3-3-6.5-4.9-9c2.5,4,4.6,8.2,5.5,12.8
		c0.5-3.3-2-7.1-4.2-9.3c1.5,2.1,2.8,4.1,3.7,6.6c0.4,1.1,0.6,2.7,1,3.6c1-2.5-1.6-5.6-2.6-7.8c-0.8-1.9-2.6-4.2-2.8-6.2
		c1.9,1.4,2.6,4.3,3.5,6.4c0.8,1.8,1.6,3.6,2.5,5.4c-0.2-4.3-4.4-7.2-5.4-11.2c2.3,0.8,3.3,5.4,4,7.3s1.4,4.3,2.8,5.9
		c0.1-2-1.5-3.9-2.5-5.4c-1.2-1.9-1.7-3.9-2.7-5.8c3,2.9,4.5,7.2,6.5,10.7c-1.9-4.5-6.7-7.7-6.8-12.9c2.8,3.1,3.3,7.9,6.1,11
		c-0.7-3.9-5.5-6.1-5.6-10.2c2.3,1.1,3.2,6.1,4.3,8.3c0.5,1.1,1.4,3.3,2.5,3.9c0.1-1.5-1.3-2.9-2.1-4c-0.9-1.2-1.7-2.6-2.6-3.8
		c1.5,3.3,2.7,6.8,4.3,10.1c0.1-2.3-1.7-4.2-2.9-6c1.2,1.7,2.3,3.5,3.7,5.1c0.1-2.1-1.9-3.3-2.8-5c1.4,1.1,1.8,3.2,3,4.3
		c0.2-1.8-1.6-3-2.5-4.3c1.3,0.7,2.4,2.5,3.1,3.7c-0.1-2.2-2.1-4-3.5-5.6c-1.9-2.1-3-4.2-4.4-6.7c1.7,0.8,3.1,3.9,4,5.5
		c1.1,1.9,2.3,3.7,3.5,5.5c-2.1-2.4-3.9-5.2-5.7-7.8c-0.8-1.1-1.2-2.3-2.1-3.4c0.6,1.4,1.9,2.6,1.7,4.1c-1.3-0.8-1.9-3.2-2.1-4.6
		c1.5-0.1,2.9,3.6,3.4,4.7c-0.1-1.4-1.1-2.7-1.9-3.8c-0.4-0.5-1-0.8-0.8-1.5c2,0,2.3,4.4,3.5,5.7c0-2.1-2.5-3.6-2.5-5.6
		c2.2,2.2,2.1,6,4.7,7.9c-0.7-2-4.4-5.2-3.5-7.3c1.9,1.3,2.2,4.8,3.1,6.7c0.7,1.6,1.6,3.3,2.7,4.7c-0.3-2-2.5-4.3-3.6-6
		c-0.9-1.4-2.2-3-2.6-4.6c1.5,2,2.3,4.7,3.4,7c0.6,1.4,1.4,3.8,2.8,4.7c-1.4-3.5-5.9-7-5.7-11c1.8,2,2.9,4.9,4.3,7.2
		c0.7,1.1,1.3,2.7,2.6,3.2c-1.9-3.7-6.6-7.4-7-11.8c2.2,1.2,3.8,5.2,4.8,7.2c0.8,1.6,1.5,3.5,2.7,4.8c-2.5-3.4-4.5-7.1-6.9-10.6
		c1.1,3.2,3.5,6.9,5.6,9.7c-2-2.7-4.8-6.2-4.7-9.8c3.3,1.7,4.6,7.7,5.7,11c-1.1-4.3-4.2-8-5-12.2c0.6,0,0.8,0.8,1,1.4
		c0.1,0.5,0.4,0.4,0.5,0.9c-0.8-0.5-1.8-1.7-2.1-2.6c1.1,0.2,1.6,2.5,2.1,3.3c1.1,1.9,2.4,4,3.3,5.9c-0.4-1.5-1.2-3.2-2-4.5
		c-0.8-1.2-1.1-2.8-1.8-3.9c1.6,2.2,2.5,4.5,3.7,6.8c0-2.6-2.4-5.5-3.6-7.7c1.2,0.6,2.1,3.8,2.6,5c0.8,2.1,1.8,4.3,2,6.6
		c-0.2-1.2-1.1-3.1-1.8-4.4c-0.8-1.6-1.3-3.4-2.1-5c1,2.5,2,4.9,3.1,7.4c0.6,1.3,1.1,3,1.9,4.1c0.3-2.4-1.6-5.5-2.5-7.6
		c-0.6-1.5-1.9-3.1-2-4.7c1.3,0,2.7,3.1,3.1,4.1c0.8,1.8,0.8,3.9,1.9,5.5c0-2.4-1.8-4.5-2.9-6.6c-0.6-1.3-0.9-3.4-2.1-4.3
		c0.1,2.2,1.8,4.9,2.7,6.9c0.8,1.6,1.4,3.8,1.4,5.7c-0.1-2.2-1.2-4.7-2-6.7c-0.6-1.5-1.1-3.9-2.1-5.1c1.5,3.3,4.9,7.4,3.8,11.3
		c-1.5-2.5-2.5-5.7-3.3-8.5c-0.4-1.2-1-2.5-1.3-3.7c1.9-0.6,2.5,4.4,2.9,5.4c-0.3-1.7-1.5-4.6-2.8-5.8c0.1,1.6,1.5,3.5,1.9,5.2
		c0.4,1.5,1.3,3.5,1.2,5.1c-2.2-1.4-2.3-7.3-2.5-9.7c1.9,0.4,2.9,5.3,3.4,6.9c0.5,1.8,0.5,4,1.2,5.7c1.5-0.9-0.8-4.5-1.3-5.5
		c-1-2-2.4-4.9-2.4-7c1.7,1.4,2.1,4.2,2.8,6.2c0.5,1.3,1.1,2.6,1.6,4c0.2-2.7-2.1-4.8-3.2-7.1c-0.4-0.8-1.3-2.9-0.8-3.8
		c1.7,1,1.6,3.5,2.5,5c-0.5-1.6-1.1-3.8-2.6-4.7c0.2,1.2,2.3,3.7,1.3,4.9c-0.7-1.4-0.4-3.2-0.9-4.7c1.2,1.9,1.9,4.1,2.4,6.3
		c0.3,1.1,0.7,5.5,1.8,5.8c0.3-4.1-3.5-7.8-4.1-11.8c1.2,0.7,1.9,3.2,2.4,4.5c0.9,2.1,1.6,4.1,2.3,6.2c-0.1-3.8-2.6-7.8-4.2-11.3
		c0.6,2.5,1.6,4.8,2.9,7.1c0.8,1.5,1.9,3.5,1.9,5.3c-2.2-3.8-2.7-8.2-4.4-12.2c2.6,3.4,4.3,7.9,5.2,12.1c-1.5-1.8-2.6-4.9-3.5-7.1
		c-0.6-1.5-0.9-3.1-0.9-4.7c1.8,3.2,3.9,7,5,10.5c0.3-2.1-1.8-4.5-2.8-6.2c-0.6-1-1.1-3.8-2.2-4.2c0.2,2.2,1.7,4.6,2.7,6.5
		c0.7,1.3,1.1,2.7,1.9,4c0.1-3.1-2.8-7.6-4.5-10.1c1,2.9,3.1,5.5,4.8,8c-0.1-1.3-1.1-2.9-1.6-3.9c-0.8-1.4-1.7-3.5-2.9-4.6
		c0.2,1.8,1.3,4.4,2.4,5.9c-0.7-1.9-1.6-4.4-2.9-6.1c-0.3,1.2,0.7,2.6,1.5,3.5c0.2-1.2-0.9-2.9-1.6-3.9c0,1,0.9,2.2,1.6,2.9
		c0.3-1-0.4-2.4-1-3.2c0.4,1.4,1.5,3.5,2.6,4.4c0-1-1.1-3.8-1.9-4.2c0.8,2.8,2.2,5.6,3.7,8.2c-0.3-2.2-2.1-5.6-3.7-7.2
		c-0.5,1.2,0.8,3,1.2,4c0.6,1.3,1.4,3.9,2.9,4.7c1.4-2-2.3-7.2-3.6-8.5c1,3.2,3.3,6.3,4.9,9.2c-0.1-2.7-2.4-7.4-4.4-9.2
		c-0.3,1.4,1,3.2,1.6,4.3c0.8,1.5,1.8,3.4,3,4.6c0.2-2.7-2.2-7.4-4.5-8.9c-0.2,1.4,1.2,3.4,1.8,4.5c1.1,1.9,2.1,4.7,3.7,6.1
		c-0.1-3.5-3.2-8.8-5.9-10.8c0.1,1.9,2.2,5.3,3.8,6.3c0.4-2-2.2-6.6-3.9-7.6c-0.1,0.9,2.5,6.6,3.6,5.9c0-1.6-1.4-5.1-3-5.7
		c-0.6,1.5,1.1,3.7,1.9,5c0.6,1,1.7,3.2,2.9,3.8c0-2-2.4-6.7-3.7-8.1c-0.3,1.1,0.5,2.4,1,3.5c0.9,1.9,1.7,4.2,3.1,5.8
		c1-1.7-2.2-8.2-3.9-9.3c-0.3,1.2,2.9,9.3,4.4,9c-0.4-2.9-2.6-7.5-4.8-9.4c0.5,1.7,1.6,3.8,2.5,5.4c0.5,1,1.2,2.7,2.4,3.1
		c-0.6-2.4-2.3-6.3-4.4-7.7c0.9,2.2,2.2,4.3,3.5,6.3c0.6,0.9,1.4,2.3,2.4,2.9c0.2-1.5-1.4-3.3-2.1-4.4c-1.4-2-3-3.9-4.7-5.7
		c1.8,2.9,4.8,5.8,5.7,9.1c-1.2-1.8-2.4-3.6-3.5-5.5c-0.6-1.1-1.7-2.4-1.7-3.7c2.6-0.5,5.5,8.4,7.3,10.2c-2.1-3.6-5.2-6.4-6.6-10.4
		c2.6,3.3,4,7.9,7.5,10.4c-0.8-2.1-2.6-4.1-3.9-6c-0.8-1.1-2.1-2.7-2-4c2.5,0.7,3.5,5.3,4.9,7.4c0.7,1,1.4,2.1,2.4,2.8
		c-0.2-1.4-1.9-2.8-2.7-3.7c-1.3-1.5-2.6-3-3.8-4.5c2.1,2.9,6.2,5.6,6.7,9.3c-1.8-1.5-2.4-4.7-3.8-6.7c-0.9-1.3-3.2-3.2-3.2-4.7
		c2.7,0.9,2.8,5,5.1,6.4c-1-2.3-3.3-5-5.4-6.3c-0.3,2.9,3.8,4.6,3.9,7.2c-2.8-0.7-2.3-6.2-4.7-7.7c1.5,0.6,2.6,1.4,3.6,2.7
		c1.1,1.4,1.7,3.3,3,4.5c0.6-2.9-5.2-5.2-4.5-8.1c2.4,0.4,3.5,4.7,4.7,6.5c-0.7-2.3-3-4.8-4.8-6.2c0.6,2.7,4.6,4.4,4.9,7.2
		c-2-1-2.9-4.9-4-6.8c3.3,0.9,3.1,5.5,5.4,7.4c-0.1-2.6-3-4.9-4.4-6.9c2.1-0.4,3.5,4.6,4.4,5.9c-0.1-2.2-3.1-5.2-4.7-6.7
		c2.8,1.9,3.4,5.3,5.5,7.7c-1-2.7-3.3-4.7-4.4-7.3c2.8,1.6,3,5.3,5.2,7.2c0.1-1.9-5.2-6-4.3-7c2.5,1.4,2.5,5,4.4,6.7
		c-0.7-3-3.9-4.7-5.4-7.1c3,0.4,4.5,5.7,5.6,8c-1.1-2.7-3-5.3-4.6-7.7c2.6,1.1,3.1,5.3,4.6,7.4c-0.8-3.2-3-5.6-4.2-8.5
		c2.2,1.2,2.8,4,4.1,5.9c0-2.3-2.3-4.3-3.2-6.3c1.4,0.6,2.1,2.5,3,3.6c-0.3-1.3-1.3-2.4-2-3.4c0.7,0.7,1.2,1.7,2,2.3
		c-0.2-0.8-0.6-1.5-1-2.2c0.5,0.3,0.9,0.8,1.3,1.3c-0.3-0.4-0.7-0.9-1.1-1.2c0.8,2.8,0.9,5.9,1.6,8.8c-1.2-2-2-4.1-2.6-6.4
		c-0.1-0.1-0.3-0.1-0.5,0"/>
</g>
<g id="invisible_hair">
	<path class="st46" d="M994.8,332c0,0-64.6-73.5-54.6-163.1"/>
	<path class="st46" d="M971.8,323.6c0,0-48.4-60.9-43.9-148.7"/>
	<path class="st46" d="M953.8,323.6c0,0-47.5-72.6-34.9-135.3"/>
	<path class="st46" d="M1098.1,165.9c35.8,64.5,20.6,132.6,20.6,132.6"/>
	<path class="st46" d="M1101.7,298.5c0,0,24.2-45.7-9.9-131.7"/>
	<path class="st46" d="M1040.7,307.5c0,0-52-80.6-56.4-142.4"/>
	<path class="st46" d="M1052.4,302.1c0,0-28.7-127.2-38.5-138.9"/>
	<path class="st46" d="M1086.4,291.4c0,0,16.1-76.2-49.3-162.2"/>
	<path class="st46" d="M1017.4,320c0,0-64.5-82.4-57.3-169.3"/>
</g>
<g id="Color">
	<path class="st47" d="M1058.3,588.2c1.9,1.7,3.9,3.5,5.8,5.2c1.4,1.2,8.6,5.9,10.8,6.9c3.8,1.5,7.4,3.8,17.8,3
		c11.7-0.9,16.1-6.7,19.7-10.9c2.2-2.7,3.9-8.4,5.1-11.6"/>
	<circle class="st48" cx="808.5" cy="254" r="3.8"/>
	<path class="st48" d="M800.5,255.5c0.3-0.6,0.4-1.1,0.4-1.7c0-2.2-1.8-4-4-4s-4,1.8-4,4c0,1,0.4,1.8,1,2.5c-0.2,0.5-0.3,1-0.3,1.4
		c0,2.1,1.7,3.8,3.8,3.8s3.8-1.7,3.8-3.8C801.3,256.9,801,256.2,800.5,255.5z"/>
	<circle class="st49" cx="835.5" cy="291.4" r="2.6"/>
	<circle class="st49" cx="826.6" cy="293" r="3.8"/>
	<path class="st50" d="M1116,582.5c1.8-0.9,1.9-3.6,2.3-5.6c0.3-1.4,0.5-3,0.7-4.4c-2.7-1-5.7-0.7-8.4,0.3c-2.7,0.9-5.1,2.4-7.5,4
		c-2.1,1.4-4.2,3-5.4,5.1c-2.8-0.9-5.5-1.9-8.3-2.6c-1.8-0.5-3.7-0.9-5.6-0.9c-7.2-0.2-13.5,4.8-20.6,6.6c-3,0.8-6.2,1-9.2,1.9
		c1.6,0.4,3.1,1.1,4.8,1.8C1064.2,591.1,1092.7,593.5,1116,582.5z"/>
	<path class="st16" d="M775.5,247.7l-34.5,1.9l-23.7-14.4c0,0-14.4,30.3,19.8,25.6l38.8-3.9"/>
	<path class="st51" d="M748.9,302.9l-15.3,7c0,0-5.7,7.5,3.4,9.8l16.7-4.6C753.6,315.2,760.2,309.2,748.9,302.9z"/>
	<circle class="st48" cx="803.5" cy="251.1" r="27.9"/>
	<circle class="st49" cx="832" cy="289.2" r="19"/>
</g>
</svg>
