<?xml version="1.0" encoding="utf-8"?>
<!-- Generator: Adobe Illustrator 21.0.2, SVG Export Plug-In . SVG Version: 6.00 Build 0)  -->
<svg version="1.1" id="Layer_3" xmlns="http://www.w3.org/2000/svg" xmlns:xlink="http://www.w3.org/1999/xlink" x="0px" y="0px"
	 viewBox="0 0 1366 768" style="enable-background:new 0 0 1366 768;" xml:space="preserve">
<style type="text/css">
	.st0{fill:none;stroke:#000000;stroke-miterlimit:10;}
	.st1{fill:none;stroke:#000000;stroke-width:2;stroke-miterlimit:10;}
	.st2{fill:none;stroke:#000000;stroke-width:1.5;stroke-miterlimit:10;}
	.st3{fill:none;stroke:#000000;stroke-width:0.75;stroke-miterlimit:10;}
	.st4{fill:none;stroke:#000000;stroke-width:0.5;stroke-miterlimit:10;}
	.st5{fill:none;stroke:#D80000;stroke-width:2;stroke-miterlimit:10;}
	.st6{fill:none;stroke:#F44040;stroke-width:2;stroke-miterlimit:10;}
	.st7{fill:none;stroke:#F580F9;stroke-width:2;stroke-miterlimit:10;}
	.st8{fill:none;stroke:#A50404;stroke-width:3;stroke-miterlimit:10;}
	.st9{fill:none;stroke:#F5E38B;stroke-width:2;stroke-miterlimit:10;}
	.st10{fill:none;stroke:#F4DEB8;stroke-width:2;stroke-miterlimit:10;}
</style>
<path class="st0" d="M1148.7,204.7c0,0-1.2,2.8,0.8,3.8c0,0-2.5,1.9-0.2,4s0,0,0,0"/>
<path class="st0" d="M1155.5,176.5c0,0,13.8-22.2,46-26c17-2,26,14,26,14"/>
<path class="st0" d="M946.8,697.4c11.6-13.2,13.3-32.6,10.1-49.9c-3.3-17.3-10.8-33.4-15.9-50.2c-10-33-10.9-69.8-30.2-98.3
	c-10.2,7-23.6-2.8-30.8-12.8c-8.6-12.1-15-25.7-18.9-40"/>
<path class="st1" d="M846,449.3c9.6-2.5,41-6,54.3-16.3c13.7-10.6,51-67.2,82.4-84.7c5.3-3,10.7-5.7,16.4-7.9
	c14.5-5.7,30-7.9,45-11.8c26.3-6.9,62.5-25.4,89.8-13.3c6.3,2.8,11.3,8,14.9,13.8c8.6,13.9,9.5,28.8,8.9,44.8
	c-0.2,4.4-0.4,8.8,0.3,13.1c0.6,3.9,2.1,7.7,3.4,11.5c6.8,19.8,9.8,41,8.7,61.9c-1,18.7-5.3,34-12.3,51.3
	c-4.6,11.5-9.3,23.6-15.4,34.4c-6.1,10.9-11.8,21.7-15.9,33.6c-3.8,11.1-11.4,21-17.2,31.2c-10,17.4-26.3,32.7-47.7,32.6
	c-16.2-0.1-31.9-9-46-16.1c-9.8-4.9-18.6-11.6-25.9-19.7"/>
<path class="st0" d="M1157.1,405.7c-9.4,11-23.5,15.9-36.3,21.8c-6.6,3-24.1,13.7-25.9,15.6c-1.9,2.1-2.6,7.3,0.7,8.5
	c1.3,0.5,2.8-0.2,4-0.9c6.2-3.6,11.4-8.5,17.6-12.1c6-3.5,12.4-6.3,18.4-9.7C1145.1,423.5,1154.6,416.2,1157.1,405.7z"/>
<path class="st1" d="M1125,463c1-0.3,2-0.6,3-1c4.8-1.8,15.4-5.8,24.3-15.8c0,0,10.5,6.7,15.2,6.6c-1.6,1.9-4.3,2.9-6.7,2.6
	c1.6,0.6,3.1,1.4,4.4,2.4c-2.8,0.2-5.6,0.1-8.4-0.3c1.6,1.3,3.2,2.6,4.9,3.9c-2.5,0.2-5-0.3-7.3-1.2c2.3,1.8,4.8,3.3,7.4,4.7
	c-3,0.1-6.1-0.5-8.9-1.5c1.4,1,2.7,2,4.1,3c-2.2-0.3-4.4-0.6-6.5-0.8c1.5,1.4,3,2.8,4.5,4.3c-2.7-0.6-5.4-1.1-8.1-1.7
	c2.9,2.1,5.7,4.2,8.6,6.4c-4.2-0.1-8.4-1.1-12.2-2.8c1.6,1.7,3.2,3.4,4.8,5.1c-3-0.1-6-1-8.5-2.7c1.2,1.6,2.3,3.1,3.5,4.7
	c-2.2-0.6-4.3-1.5-6.2-2.6c1,1.3,1.6,2.8,1.9,4.4c-2.9-0.5-5.7-1.9-7.8-4.1c0.8,1.3,2.1,3.4,3.3,4.3c-3,0.1-6.3-1.5-8.9-3
	c0.8,0.8,1.7,1.5,2.5,2.3c-3.2-0.3-6.3-1.4-8.9-3.3c0.9,1.6,1.9,3.2,2.8,4.7c-3.1-0.8-4.4-2.5-6.8-4.7c-0.1,1.6-2.3,3.6-2.8,5.1
	c-0.4-1.9,0.3-5.1-0.1-7.1c-0.5,1.6-2.1,4-3.5,5c-1-1.8-0.4-3.9-1.5-5.7c0.3,1.1-1.2,3.7-1,4.8c-0.7-2.9-8.3-7.6-10.4-9.5
	c2.3-0.8,5.4-0.7,7.9-1.1C1110.9,467.1,1117.9,465.3,1125,463z"/>
<path class="st1" d="M998.4,486.1c-12.6-1.2-22.4-3.4-30.9-5.5c-2.4-0.3-7.6,8.3-13.1,11.5c3.8,1.3,8.1,1.2,11.8-0.2
	c-1.3,0.7-2.5,1.4-3.8,2.1c1.8,0.2,3.7,0,5.5-0.6c-0.5,1.3-1.4,2.4-2.6,3.2c1.9-0.8,3.7-1.8,5.4-3.1c-0.7,2-1.7,3.8-2.9,5.5
	c2-0.9,3.8-2.4,5.1-4.3c0.2,1.7-0.4,3.6-1.5,4.9c1.1-0.9,2.2-1.9,3.2-2.8c0.5,1.4,0.5,3,0,4.4c1.1-1,2.2-1.9,3.3-2.9
	c0,1.2,0.1,2.4,0.1,3.6c1.9-0.5,3.6-1.8,4.6-3.5c0.4,1.5,0.9,3,1.3,4.4c0.6-1.3,1.1-2.5,1.7-3.8c0.7,1.8,0.7,3.8,0,5.6
	c2.9-1.4,5.3-3.7,7-6.5c2.3,2.3,4.3,5,5.8,7.9c0.4-1.8,0-3.8-1-5.3c1.1,1.6,2.1,3.1,3.2,4.7c0.7-1.5,1-3.1,0.9-4.8
	c1.1,1.6,2.9,2.8,4.9,3.3c-0.4-0.8-0.8-1.5-1.3-2.3c1.1,0.4,2.2,0.8,3.4,1.2c0.2-0.9,0.4-1.8,0.5-2.7c1,1.1,2.3,1.9,3.8,2.4
	c0.3-0.9,0.5-1.8,0.8-2.7c1.2,0.3,2.3,1.1,3.2,2c0.7-0.8,1-1.9,0.8-2.9c1.3,1.3,3.1,2,4.9,1.9c-1.5-0.8-2.5-2.4-2.5-4
	c1.4,1.5,3.5,2.3,5.5,2.2c-0.8-1.1-1.7-2.3-2.5-3.4c1.7,1.7,4.3,2.4,6.6,1.8c-0.7-1.5-1.5-2.9-2.5-4.2c1.8,0.6,3.7,1.2,5.5,1.9
	c-0.7-1.8-1.2-3.7-1.4-5.6c-0.1-1.4-0.1-4.4-0.7-5.5C1030.5,483.7,1008.5,487,998.4,486.1z"/>
<path class="st0" d="M1085.5,480.4c2.2,12.8,4.5,25.7,8.6,38c2.2,6.8,5.1,13.6,5.5,20.8c0.5,7.2-2,15.1-8.1,18.9
	c-6.7,4.1-15.4,2.2-22.6-0.9c-3.6-1.5-7.1-3.4-11-3.6c-2.4-0.2-4.8,0.3-7.1-0.4c-2.9-0.9-5.1-3.7-5.2-6.8s1.9-6,4.7-7.1"/>
<path class="st0" d="M1134.7,560.5c-0.5,4.8,2.7,6.5,6.2,9.9c5.6,5.5,11.5,10.6,17.8,15.2c5.3,3.9,10.9,7.5,16.2,11.6
	c4.8,3.8,9.3,7.9,13.8,12.1c11,10.3,22,20.5,33.1,30.8c10.3,9.6,20.8,19.5,26.3,32.4"/>
<path class="st2" d="M1166,416.2c4.2,0,8-2.3,11.5-4.5c5.5-3.4,11-6.8,15.9-11.1c5-4.4,9.3-9.6,14.6-13.5c4.8-3.5,8.9-9.7,12.4-14.5
	"/>
<path class="st2" d="M1152.5,153c4.9,4.7,7.6,8.5,9.3,15.1"/>
<path class="st0" d="M1037.5,121.5c3.8-20.7,7.5-42.3,1.9-62.6c19.5,3.4,39.5,7.1,56.4,17.3c13.8,8.4,24.9,20.7,33.8,34.2
	c8.9,13.5,15.6,28.3,22.4,43c-11.8,2.7-30.6,6.3-42.5,9.1"/>
<path class="st3" d="M1041.5,662.8c13.9,4.4,29.1,2.6,43.3-1c14.2-3.6,27.8-9,42.2-11.9"/>
<path class="st0" d="M1238.8,658.1c12.5,5.5,25.9,9.2,39.5,10.7c3.5,0.4,7.4,0.8,9.8,3.5c-43.5-3.4-87.9,6-126.3,26.7
	c-21.5,11.6-40.9,26.5-60.3,41.4c-13.1,10.1-26.3,20.2-39.4,30.3"/>
<path class="st0" d="M889.9,772.3c-4.3-10.8-8.6-21.7-12.9-32.5c-3.8-9.7-8.5-18.9-12.2-28.7c-1.6-4.3-2-5.8-3.6-10.1
	c-8.1-20.9-15.2-42.3-21.2-63.9c-5.3-18.8-9.8-37.8-13.5-57c-1.7-8.5-3.5-16-1.3-24.5c1.9-7.5,6.5-14.3,12.9-18.7
	c8.3-5.7,18.9-7,28.4-4c11.1,3.5,22.4,6.4,33.6,9.4c5.8,1.6,9.3,2,15.2,2.7c4.3,0.5,8.9,0.6,12.9-1.1"/>
<path class="st0" d="M1303.6,769c-11.1-22.8-14.8-49.2-10.4-74.2c1.4-8,3.3-15.9,4.8-23.9c1.2-6.7-11.8-3.7-15.2-3.8
	c-7.6-0.4-15-2.1-22.3-4.1c-8.6-2.4-17.1-5.2-24.9-9.4"/>
<path class="st1" d="M1139.5,257c26.5,15.6,54.4,30.5,81.4,45.2c1-9.9,5.3-19.4,12.1-26.6c-1.8,19.9,14.5,41.3,30.7,50.9
	c16.4,9.8,36.9,12,55.5,7.5c0.9,3-1.2,6.2-3.9,7.7c-2.7,1.6-5.8,2.1-8.8,3c-10.2,3-18.7,11.1-22.2,21.2"/>
<path class="st1" d="M1136.4,277.7c26.7,14.3,51.6,27.3,78.3,41.6c-10.3,3.7-16.6,15.1-16.3,26c11.4-12.7,30.8-15.8,47.2-11
	s29.8,17.4,38.3,32.2"/>
<path class="st1" d="M911.4,299.6c-25.1,16.6-50.3,33.2-75.4,49.8c-5.5,3.6-18.8,17-25.7,16.2c-14.8-1.7-28.9,7.9-40,16.5
	c-2.1,1.7-4.3,3.3-5.8,5.6c-1.2,1.8-1.8,4-2.8,6c-3.7,7.8-11.7,12.4-19.3,16.5c-4.7-9.7-11.3-18.4-19.3-25.6
	c8.2-6.4,20.3-8.8,30.7-8.2c2.1,0.1,4.3,0.4,6.4-0.1c1.9-0.5,3.6-1.5,5.2-2.6c5-3.2,9.9-6.4,14.9-9.6c5.5-3.5,11.6-8.3,11-14.8
	c36.7-24.9,71.8-49.5,110.1-71.7"/>
<path class="st0" d="M1028.3,324.7"/>
<path class="st0" d="M876.8,190.4c0.6,0.1,1.2,0.2,1.8,0.2c2.2,0,4.3-0.9,5.8-2.4c0.4-0.3,0.7-0.7,0.9-1.2c0.8-1.3,0.8-2.7,0.6-4.2
	c-0.1-0.8-0.8-2.4-0.4-3.2c0.5-0.9,2.1-1.1,2.8-1.6c1-0.7,1.9-1.5,2.4-2.5c1.1-1.9,1.2-4.4,0.3-6.5c-0.6-1.4-1.6-2.6-3-3.3
	c-1.4-0.7-3.1,0-4-1.6c-0.9-1.8-0.4-3.6-2.2-5.3c-1.3-1.2-3.8-2.4-5.5-2.2c-2.2,0.2-3.5,1.4-5.1,2.8c-0.7,0.6-2,2.7-2.8,2.8
	c-0.4,0.1-0.8-0.1-1.2-0.3c-1.4-0.5-3.1-0.5-4.5,0.2c-2.3,1-3.5,3.6-4.3,5.9c-0.5,1.5-0.6,3.2-0.1,4.7c0.6,1.7,1.8,2.1,3.2,2.9
	c-1,1.8-2.1,2.8-2.4,5.1c-0.2,1.9,0.1,3.6,1.1,5.3c1.6,2.5,5.7,4.4,8.6,3.6c0.8-0.3,1.3-0.9,2-1.2c1.5-0.7,2.1,0.3,3.3,1.1
	C875.1,189.8,875.9,190.2,876.8,190.4z"/>
<circle class="st0" cx="860.5" cy="196.5" r="3"/>
<circle class="st0" cx="867.5" cy="209.5" r="3"/>
<circle class="st0" cx="877.5" cy="199.5" r="4"/>
<ellipse transform="matrix(0.2329 -0.9725 0.9725 0.2329 493.182 1014.2534)" class="st0" cx="889.5" cy="194.5" rx="4" ry="5"/>
<path class="st4" d="M1018.2,649.4c-8.8,2.4-17.4,6.4-23.6,13c-6.2,6.7-9.5,16.5-6.9,25.2"/>
<path class="st3" d="M943.7,676.3c-3.3-4.8-4.7-10.8-3.8-16.5s4-11.1,8.6-14.6"/>
<path class="st0" d="M930,549.6c-3.3,1.6-7.1,1.8-10.7,2c-6.4,0.3-12.9,0.5-19.3-0.1c-8-0.8-15.7-3-23.6-4.5
	c-7.9-1.5-16.1-2.1-23.8,0.1c-3,0.9-5.9,2.2-8.7,3.7c-4.9,2.6-9.7,6-12.5,10.7c-3,5.1-3.6,11.2-3.4,17.1c0.1,5,0.7,9.9,1.7,14.8"/>
<path class="st0" d="M881.9,452.9c3.3,0.9,6.6,2,9.8,3.3c0.7,0.3,1.3,0.6,1.8,1.1c0.5,0.7,0.7,1.6,0.7,2.4c0,2.2-0.7,4.4-0.5,6.7
	c0.4,4.3,4.2,7.6,4.8,11.9c0.1,0.5,0.1,1-0.2,1.4c-0.4,0.6-1.2,0.7-1.8,0.4c-0.6-0.2-1.1-0.8-1.6-1.3c-3.3-3.7-6.5-7.5-9.5-11.5"/>
<path class="st4" d="M1039,480.5c-33.4,12.5-78.7-2.7-80.1-3.3"/>
<path class="st4" d="M1153,444c-16,20.8-58.2,25.4-63.5,25.5"/>
<path class="st0" d="M1085.9,70.9c1.3-3.8,2.5-7.5,3.8-11.3c6.1,1,11.6,4.4,16.6,8.1c22.6,16.5,39.9,40.3,48.7,66.9
	c2,6,3.6,12.2,3.1,18.5c-2.2,0.2-4.9,0.2-7.1-0.1"/>
<path class="st0" d="M845.5,533.1c-2.9,0.8-7,2.3-9.5,3.9c-3.6,2.3-5.7,5.4-8.4,8.6c-3.2,3.9-6.3,7.8-9.4,11.8
	c-6.1,7.9-11.9,15.9-17.8,24c-6.4,8.8-12.8,17.6-18.1,27c-11.7,20.7-18,44.1-23,67.3c-6.9,32.1-12.2,66.1-31.7,92.5"/>
<path class="st1" d="M885.5,316.7c-18.6,27.8-37.6,56.6-56.2,84.4c-3.6,5.4-7.2,10.8-9.2,16.9c-1.2,3.8-1.7,7.7-2.8,11.5
	c-2.2,7.5-6.7,14.1-11.3,20.3c-2.5,3.4-5.1,6.7-8.2,9.5c-8,7-19.4,10-25.8,18.4c10,4.9,19.8,10.2,29.4,15.9
	c-0.2-6.5,1.9-11.3,4.3-17.4c4.2-10.7,8.4-22.9,16-31.8c6.7-7.9,16.6-11.5,23.5-19c3-3.3,5-7.3,7.1-11.2c2.6-4.6,5.5-9,8.4-13.4
	c7-10.5,14-21.1,21-31.6c12.2-18.4,25.4-38.6,37.4-57.1"/>
<path class="st0" d="M1031.5,484.8"/>
<path class="st0" d="M949.6,447.9c7.3-2.1,16.1-0.5,23.7,0.4c15.6,2,29.2,2.8,44.9,3.5c6.8,0.3,13.6-0.5,20,1.9
	c1.4,0.5,3.6,1.1,4.6,2.2s1.5,2.7,1,4c-1,2.3-4.1,2.4-6.6,2.1c-6.7-0.7-45.7-7.4-52.4-8.1C979.7,453.4,950.7,447.5,949.6,447.9z"/>
<path class="st2" d="M804.8,450.8c0,0-32.7-15.3-41-61.7"/>
<path class="st2" d="M866.3,461.3c0,0-13.2,9.5-51.7-5.7"/>
<path class="st2" d="M761.5,376c0,0-3.5-20.2,6.5-42.3c0,0-12.8-9.5-17.5-33"/>
<path class="st0" d="M903,205.5c0,0-17.5-0.2-35.5,15.2c0,0-26.5-17.5-9.2-48.2"/>
<path class="st0" d="M865.2,161.7c0,0,3-6.3,11.7-9.3c0,0,9.7,16.8,38.7,28.2"/>
<path class="st2" d="M748.7,292.8c0,0-1.5-13.8,4.1-28.3"/>
<path class="st2" d="M932.3,72.1c0,0,38.9-18.3,107.9-6.5"/>
<path class="st2" d="M964,361.5c-1.8-3.3-147.9-114-8.6-221.2c19.2-11.7,64.1-33.8,112.6-6.8c66.5,37.8,89,83.5,59,179.5"/>
<line class="st3" x1="1216.8" y1="334.3" x2="1215.7" y2="339.3"/>
<line class="st3" x1="1220.4" y1="333.5" x2="1219.1" y2="339.7"/>
<ellipse transform="matrix(0.2775 -0.9607 0.9607 0.2775 533.8228 1424.3132)" class="st1" cx="1213.9" cy="357.2" rx="18.1" ry="15.2"/>
<line class="st1" x1="895.9" y1="254.6" x2="821.9" y2="275.4"/>
<line class="st1" x1="897.2" y1="261.1" x2="823.4" y2="280.7"/>
<line class="st1" x1="782.9" y1="286.2" x2="721.5" y2="300.7"/>
<line class="st1" x1="784.4" y1="290.7" x2="723.6" y2="304.6"/>
<line class="st1" x1="895.7" y1="230.1" x2="801.1" y2="234.6"/>
<line class="st1" x1="894.5" y1="243.6" x2="802.7" y2="245.6"/>
<path class="st1" d="M1125.2,183l97.1-19.3l22.4,3.7l22.4-1.9l26.8-18.7c0,0,10,6.8,9.3,26.8l-10,3.7l-26.1-3.1l-26.8,6.8l-3.7,8.3"
	/>
<polyline class="st1" points="1214.9,192.4 1197.3,194.8 1136.4,207.2 "/>
<path class="st1" d="M1137.6,212.2l58.5,3.7c0,0,4.7-33.9,49.8-25.5c26.8,5,33.6,30.5,33.6,30.5l36.7,6.8l31.7-14.9
	c0,0,8.7,0.6,5,30.5l-13.7,1.9l-24.3-8.7l-34.8-2.5c0,0-10,37.3-44.8,29.9c-34.8-7.5-39.8-31.7-39.8-31.7l-55.4-3.1"/>
<path class="st2" d="M931.5,161.2c3.9-5.3,0.8-14.8-3.6-19.7c-2.4-2.7-6.2-5.1-6-8.7c0.1-2.8,2.6-4.8,4.6-6.8
	c5.5-5.4,8.9-12.8,9.2-20.5c0.1-2.9-1.1-6.7-4-6.5c-2.4,0.2-3.4,3-5.2,4.7c-2.4,2.2-5.6,1.7-8.5,0.8c-2.7-0.8-6.7-0.4-9-2
	c-2.3-1.7-2.4-4.6-4.8-6.4c-0.5-0.4-0.8-0.9-1.3-1.4c-1.2-1.2-3.1-1.2-4.8-1.3c-3.9-0.3-7.7-1.2-11.5-2.2c-2.6-0.7-7.9-2.1-10.4-0.6
	c-0.6,0.4-1.1,0.9-1.6,1.4c-1.6,1.3-3.8,1.4-5.8,1.7c-2,0.3-4.3,0.9-5.3,2.7c-1.1,1.9-0.3,4.3,0.1,6.4c1,6.1-2.7,8.5-8,10.6
	c-5.2,2.1-10.9,2.7-16.4,3.9c-6.5,1.5-12.8,3.9-18.7,7.2c-2.2,1.2-4.3,2.6-5.6,4.7c-2.7,4.2-1.4,10.1-4.5,14
	c-1.4,1.8-3.6,3.2-3.6,5.4c0,1.6,1.2,3,1.8,4.5c2.5,7-8.5,11.8-9.6,19.2c-0.4,3.1,1,6.6-0.7,9.3c-1.7,2.7-5.7,3.2-7.1,6
	c-1.3,2.6,0.3,5.7-0.1,8.5c-0.5,3.8-4.2,6.2-7.1,8.7s-5.4,6.9-3.1,10"/>
<path class="st0" d="M871,152.8c-1.7-4.4-3.1-10.4,0.8-13.1c3.1-2.2,8.5-1.4,9.6-5c0.5-1.4-0.1-3.1,0.3-4.5c0.9-3,5.3-3.2,8.1-1.6
	c2.7,1.7,4.7,4.4,7.5,5.7s6.5,1.2,8.3,3.8c1.3,2,0.8,4.7,1.8,6.9c1.2,2.8,4.5,4.1,6.5,6.4c2.3,2.5,2.9,6.4,1.5,9.5
	c-0.8,1.8-2.2,3.4-3,5.2c-0.7,1.9-0.5,4.4,1.3,5.4"/>
<path class="st0" d="M799.9,254.1c3.9,0.4,7.6,5.1,7.9,8.9"/>
<path class="st0" d="M837,271c-0.5-1.1-2-1.2-3.2-1.4c-2.5-0.6-4.6-2.8-5.1-5.4c0,0.2-0.1-1-0.8-1.6c-1.8,3.2-4.7,7.6-8.7,7.5"/>
<path class="st0" d="M871.5,245c-3.2,2.1-5.1,5.9-5,9.8c0,0.8,0.1,1.7-0.2,2.4c-0.6,1.1-2,1.4-3.1,1.9c-1.2,0.5-2.3,3.4-1.7,4.5"/>
<path class="st0" d="M902.6,132.8c-2.4-2.9-2.3-7.2-0.6-10.6c1.7-3.4,4.4-6,7.2-8.5c0.4-0.4,0.8-0.7,1.3-0.9c1.8-0.5,3,1.8,3.1,3.7
	c0.2,1.8,0.5,4.2,2.3,4.6c1.2,0.3,2.6-0.6,3.8-0.1c1.1,0.5,1.3,2,1.6,3.2c0.3,1.2,1.4,2.6,2.5,2.1"/>
<path class="st0" d="M847.4,204.1c1.3,2.2,2.1,4.8,1.9,7.4c-0.2,2.6-1.6,5.1-3.9,6.4c-1,0.6-2.2,0.9-3.1,1.8
	c-1.8,1.8-1.5,5.1-3.5,6.6c-0.8,0.7-1.9,0.9-2.9,1.2c-1,0.4-2,1.1-2.2,2.1"/>
<path class="st0" d="M840.7,213.9c-4.1-0.9-8.6,0.9-11,4.2c-1.4,2-2.3,4.5-4.4,5.6c-2.3,1.2-5.1,0.3-7.6-0.3
	c-2.5-0.7-5.6-0.9-7.3,1.1c-0.7,0.8-1,1.9-1.5,2.8c-0.5,0.9-1.4,1.8-2.5,1.7c-1-0.1-1.8-1-2.1-2c-0.3-1-0.3-2-0.6-3
	c-1-3.8-5.3-5.6-9-6.9"/>
<path class="st0" d="M820.3,127.7c1-1.8,3.7-1.9,5.4-0.8c1.7,1.2,2.6,3.1,3.6,5c1,1.8,2.2,3.7,4.2,4.4c0.8,0.3,1.6,0.4,2.2,0.9
	c1.1,1,0.8,2.9,1.7,4c2,2.7,7.7-0.7,9.3,2.2c0.5,1,0.3,2.4,1.1,3.2c1.5,1.7,5.1-0.5,6.2,1.5c0.6,1-0.1,2.4,0.4,3.5
	c0.4,0.8,1.4,1.2,2.3,1.4c0.9,0.2,1.9,0.3,2.6,1c0.7,0.6,0.8,2,0,2.4"/>
<path class="st0" d="M837.5,120.2c2.1-1.1,5-0.1,6,2c0.7,1.5,0.9,3.6,2.5,3.9c1.6,0.3,3-1.6,4.5-1.2c1.6,0.5,1.5,3,2.9,3.9
	c0.8,0.5,1.9,0.3,2.7,0.7c1.9,1,1.1,3.9,2.3,5.7s4.1,2,4.8,4.1c0.4,1.1-0.2,2.3-0.4,3.5c-0.2,1.2,0.1,2.7,1.2,3c0.5,0.1,1,0,1.5,0.1
	c1.6,0.5,1.4,3.5,3,3.5"/>
<path class="st0" d="M815.6,149.6c1-1,2.7-1,3.9-0.3s2.1,1.8,3,2.9c0.9,1.2,1.9,2.5,2.8,3.7c0.9,1.2,2.1,2.5,3.6,2.2
	c1.4-0.3,2.1-1.9,2.7-3.2c0.7-1.3,2.2-2.6,3.4-1.8c0.8,0.5,0.9,1.6,1.2,2.5c0.7,2,3.1,3.1,5.1,2.6c0.6,1.5,1.3,2.9,1.9,4.4
	c1.6-0.5,3.5-0.1,4.8,1c0.4,0.3,0.7,0.7,1.2,1c1,0.5,2.2-0.2,3.3-0.3c1.1-0.1,2.5,1,1.8,1.9"/>
<path class="st0" d="M867,106.1c2.6-0.3,4.9,1.8,5.8,4.2c0.9,2.4,0.5,5.1,0.2,7.7c1.2-0.7,2.8,0,3.5,1.2c0.7,1.1,0.8,2.6,0.9,3.9
	c0.1,2.7,0.3,5.3,0.4,8"/>
<path class="st0" d="M889.7,125.7c1.3-1.4,0.7-3.7-0.4-5.3c-1.1-1.6-2.5-3-3-4.9c-0.3-1.3-0.1-2.6-0.3-3.8c-0.4-2.4-2-4.3-2.7-6.6
	s0.4-5.5,2.8-5.5"/>
<path class="st0" d="M902.7,166.9c1.4-4,0.5-8.7-2.3-11.9c-1.1-1.2-2.4-2.3-3-3.8c-1.3-3.1,0.5-7.6-2.3-9.4
	c-1.1-0.7-2.5-0.6-3.7-1.1s-2.1-2.3-1-3.1"/>
<path class="st0" d="M802.5,189c0.4,0.9,0.9,1.9,1.7,2.5s2.1,0.7,2.8-0.1c0.3-0.3,0.4-0.7,0.7-0.9c0.8-0.5,1.8,0.5,2.2,1.3
	c0.5,0.9,1.5,1.8,2.3,1.2c0.3-0.2,0.4-0.7,0.7-1c0.8-0.8,2,0,2.7,0.8c0.7,0.8,1.4,1.9,2.5,1.8c1.5-0.2,2.2-2.8,3.6-2.2
	c0.6,0.2,0.8,0.8,1.1,1.3c1.2,2,4,3,6.1,2.1c0.9-0.4,1.8-1,2.8-0.8c0.4,0.1,0.7,0.3,1.1,0.6c1.2,1,2.4,2,3.4,3.2"/>
<path class="st0" d="M794,210.5c1.7,1.6,4.6,1.8,6.5,0.5c1.4-1,2.2-2.6,3.2-3.9c1-1.3,2.6-2.5,4.2-2.3c1.3,0.2,2.5,1.4,3.8,1.1
	c1.7-0.3,2.9-2.2,4.6-2.8c2.4-0.7,4-0.4,6.2,0.5c0.8,0.4,1.8-0.4,2.7-0.2"/>
<path class="st0" d="M806.5,172.7c2.2,0,3.8,1.8,5.3,3.3s3.6,3,5.6,2.3c0.6-0.2,1.2-0.7,1.9-0.7c1.2-0.1,2.2,1,3.3,1.5
	c3.1,1.5,7.1-1.7,10,0.1c1.4,0.9,1.9,2.6,2.8,4c0.8,1.4,2.5,2.7,3.9,2.1c0.9-0.4,1.6-1.4,2.5-1.3c1,0.1,1.4,1.4,1.8,2.2
	c0.8,1.6,2.8,2.5,4.6,2.1"/>
<path class="st0" d="M816.9,162.8c2.2-1,5.1-0.2,6.4,1.8c0.7,1.2,1,2.6,1.5,3.8c0.6,1.3,1.7,2.5,3.1,2.4c1-0.1,1.8-0.7,2.6-1.2
	s2-0.7,2.7,0c0.4,0.5,0.5,1.2,1.1,1.5c0.6,0.3,1.5-0.2,2.1,0.2c0.4,0.2,0.6,0.6,0.8,1c1.5,2,5.7,0.8,6.6,3.2
	c0.2,0.6,0.1,1.3,0.5,1.9c1,1.4,3.3-0.1,5,0.4"/>
<path class="st0" d="M854.3,272.2c1.6,2.6,4.9,3.9,7.9,3.3c2.4-0.5,4.5-2,6.6-3.3c2.1-1.3,4.6-2.3,7-1.7c0.8,0.2,1.6,0.6,2.4,0.6
	c1.4,0,2.6-1.2,4-1.6c2.1-0.6,4.3,0.8,6.5,0.6c1.7-0.2,3.1-1.3,4.7-2c1.5-0.8,3.5-1.2,4.8,0"/>
<path class="st0" d="M864,251c-1.6,0.4-3.2,0-4.8-0.1s-3.5,0.4-4.2,1.8c-0.2,0.3-0.3,0.7-0.5,1c-0.8,1-2.4,0.5-3.5-0.2
	c0.1,0.7,0.3,1.5,0,2.2c-0.2,0.7-0.9,1.3-1.6,1.2c-0.9-0.2-1.5-1.4-2.4-1.3c0.6,0.8,0.1,2.2-0.9,2.6s-2.1,0-2.9-0.7
	c-0.1,1.5-1.4,2.9-3,3.1c-1.5,0.1-3.1-1-3.4-2.5c-0.9,0.4-1.3,1.4-1.9,2.3c-0.6,0.8-1.8,1.5-2.5,0.8"/>
<path class="st0" d="M810.9,257.9c1.3-1.5,3.7-1.9,5.4-1c0.3,0.2,0.6,0.3,0.9,0.2c0.1,0,0.2-0.1,0.3-0.2c1.2-1.3,0.8-3.7,2.1-4.9
	c1.9-1.6,5.4,0.5,7.1-1.3c0.6-0.6,0.9-1.6,1.7-1.8c0.9-0.2,1.8,0.7,2.7,0.4c0.8-0.2,1-1.3,1.2-2.1s0.8-1.8,1.6-1.6"/>
<path class="st0" d="M740.5,238.5c-1.4-4.1,2.7-8.8,0.8-12.8c-0.7-1.4-1.9-2.4-3.1-3.4c-3.8-3.5-6.6-8.2-7.2-13.3s1.1-10.6,4.9-14.1
	c1.7-1.6,3.8-2.7,5.3-4.5c2.9-3.3,3.3-8,4.4-12.2c1.7-6,5.3-11.7,10.7-14.9c1.4-0.8,3-1.5,4.3-2.6c3.5-3.1,3.5-8.4,3.8-13
	c0.4-7.9,2.1-15.6,5-22.9c1.3-3.2,3.8-6.9,7.2-6.5c1.5,0.2,2.7,0.2,3.8-0.8c1.2-1,1.8-2.4,2.4-3.8c1.4-3.3,2.4-6.8,3.2-10.3
	c1.1-5,1.6-10.3,4.3-14.7c3.8-6.1,11.1-9.2,14.9-15.3c1-1.5,1.7-3.3,2.9-4.6c1.3-1.4,3-2.2,4.7-2.9c6.2-2.5,12.9-3.3,19.4-4.9
	c6.5-1.5,13.1-4,17.5-8.9c2.5-2.8,4.2-6.3,6.7-9.2c4-4.6,10.4-7.4,16.3-5.7c5.9,1.6,10.1,8.5,7.8,14.1c-3,7.4-14.3,8.8-17,16.3
	c5.6,0.8,11.1,1.6,16.7,2.4c1.5,0.2,3.2,0.4,4.6-0.3c1.4-0.8,2.1-2.4,3-3.8c3.6-6.1,11.1-9.2,18.2-9.1c7.1,0.2,13.9,3.1,19.9,6.9
	c2.8,1.8,5.6,3.9,6.5,7.1c1.1,3.7-0.8,7.6-3.3,10.5c-2.1,2.3-4.6,4.2-7.4,5.6c-7,3.4-15.2,3.2-22.5,5.9"/>
<path class="st0" d="M888.5,70.2c6.8-3.3,14.9-3.5,21.9-0.6c0.6,0.3,1.3,0.6,1.6,1.2c0.7,1.4-1.1,2.8-2.7,3.1
	c-5.9,1.2-11.8-2.2-17.9-1.9c-4.4,0.2-8.6,2.3-12,5.2c-3.4,2.9-6,6.5-8.6,10.1"/>
<path class="st0" d="M862.3,71.5c-8.3-2.5-18,1.6-22,9.3c-2.4,4.7-3.5,11.1-8.5,12.7c-1.6,0.5-3.3,0.4-5,0.3
	c-7.4-0.3-15.6,1.1-20.6,6.5c-6.2,6.7-5.8,17-3.9,25.8c0.4,2,0.9,4,0.6,6s-1.6,4-3.6,4.4c-1.4-7-4.3-13.7-4.3-20.8s4-15.1,11.1-16.2
	"/>
<path class="st0" d="M779.2,118.1c2.1,0.2,2.3,3.1,3.3,5c1.8,3.8,7.6,4.3,9.6,8c1.7,3.1-0.1,7.1-2.7,9.6c-3.5,3.4-8.3,5.1-12.3,7.8
	s-7.5,7.4-6.4,12.1c3.6-2.4,8-3.6,12.4-3.4c1.8,0.1,3.6,0.3,5.3-0.1c2.6-0.6,4.6-2.6,6.3-4.7c1.2-1.5,3.3-3.2,4.9-2
	c0.7,0.6,0.9,1.5,1,2.4c0.4,2.8,0.9,5.7,0,8.4c-0.9,2.8-3.1,5.8-1.5,8.3"/>
<path class="st0" d="M741,207.8c3.6-0.8,7.4,1.4,11.1,1c3.8-0.4,6.8-3.5,8.4-7c1.1-2.4,1.9-5.3,4.4-6.3c1.1,4-1.1,8.7-4.9,10.5"/>
<path class="st0" d="M848.2,227.9c2.1-1.1,4.3-2.3,6.7-2.1c2.5,0.2,4.7,1.9,7.2,2c3.7,0.1,7.3-3.6,10.6-2c1.1-2.4,4.5-3.5,6.8-2.1"
	/>
<path class="st0" d="M884.9,216c0.8-1.3,2.6-0.9,4.1-0.9c2.6,0,5.1-1.6,6.2-4"/>
<path class="st0" d="M1160.9,291.3c0.2,4.7-2.7,13-1,19.7c1.4,5.6,5,10.2,8.6,14.7c8.9,11.1,21.6,16.6,32.2,3.7"/>
<path class="st0" d="M1296.4,235.5c8.6,14.1-26.5,17.3-17,33.5c4.7,8.2,13.1,1.9,16.2-3.9c3.7-7.1,0.5-16.9,3.4-23.8
	c9.6,11.1,1.3,29.1-10,35.1c-11.2,5.9-30.8,12-33.6,25.2c-1.8,8.3,3.2,14.5,4.7,22"/>
<path class="st0" d="M1170.3,326.9c4.2,5,2.5,12,0.6,17.6c-2.9,8.7-3,6.2,3,12.7c7.1,7.6,14,18.5,24.7,21.4
	c5.8,1.6,15.5,0.8,18.2-5.1"/>
<path class="st0" d="M1249.8,336.2c-1.6,12.3-10.1,15.9-21.2,16.9"/>
<path class="st0" d="M1272.7,244.8c0,17.4-6.3,17.7-17.4,28.8c-4.3,4.3-4.8,9.5-7.8,13.8c-3.2,4.4-8,5.9-12.1,7.4"/>
<path class="st0" d="M1279.5,220.2c-4-7.7,8.7-13.2,11.1-20.3c2.5-7.6,2.2-21.5-6.8-24.6"/>
<path class="st0" d="M1148.3,228.7c-1.8,4.1-3.7,8.2-5,12.3c-1.3,4.2-1.3,12.7-2.6,14.7"/>
<path class="st0" d="M1071.2,64.5c-6-2.1-10.6-25.1-12.5-32.4c-1.5-5.7-3.1-16.1,4-18.5c7.5-2.5,10.8,6,14.2,10.1
	c-1.7-14.4,10-5.7,13.1,1.7c6.4-5.4,8.3-18,5-25.1c8-1.9,15.9,7.9,17.6,14.3c1.3,4.5-0.5,8.2-0.2,12.5c0.5,5.5,1.4,5.6,5.7,9.5
	c5.4,4.9,9.7,13.7,16.5,15.2c10.4,2.3,17-8.3,27.6-1.7c4.3,2.7,5.6,7.2,10.5,8.4c4.3,1.1,8.9-0.9,12.7-1.7c11-2.3,22.2-2.8,33,1.5
	c10,3.9,18.4,10.5,26.8,17c8.9,6.9,7.1,14.6,11.3,23.8c4.1,9,13.4,14.6,16.7,25.6c1.6,5.3,1.7,10.5,2.7,15.9c1.4,7,3.2,7.8,7.6,12.7
	"/>
<path class="st0" d="M1304,164.3c-2.7-1.9,6.2,2.7,8.4,3.4c4.6,1.5,9.1,2.2,13.6,3.4c6.5,1.7,22.4,4.5,25.3,10.9
	c-14.5,0.3-32.8-8.7-46.5-13.9c0.3,8.2,10,14.7,14.8,20.5c5.7,6.8,12.6,13.9,17.2,21.4c-7.9,0.8-24.4-17.2-30-22.6
	c-1.4,9,11.9,21,15,29.5c-7.1-4.3-15.1-16-19.4-23.4c-1,11.5,10.7,19.3,14.1,29.3c-5.9-4.7-9-12.1-14.7-15.9
	c1.3,5.5,6.6,10.4,5.6,16.8c-2.1-2-4.1-4.7-6.4-6.6c0,2.6,0.5,5.2,1.5,7.5"/>
<path class="st3" d="M1097.7,469.7c0.4-0.4,0.7,1,1,2.2c0.4-1,1.4-1.1,1-2.1c0.4,1-0.3,1.4,0.3,2.2c-0.1-0.9,0.5-0.6,0.2-1.5
	c0.6,0.9,0.6,0.2,0.8,1.3c0.1-1.2,0.1-1.1,0-2.2c0.9,1.4,0.7,3,1.6,4.4c0.1-1.9-0.3-2.8-0.3-4.7c0.9,2.1,0.7,3.7,1.8,5.7
	c1.1-2.4-1.1-3.5-0.8-5.9c1.2,2.2,0.7,4.2,2,6.5c0-2.4-0.8-4.8-1.4-7.1c0.3,2.5,1.4,5.4,2.4,7.8c0.1-2.7-0.9-5.7-1.7-8.2
	c1.6,0.9,2,3.1,2.4,4.9c0.7-1.6-0.4-3.4-1.1-4.8c0.6,2.6,1.9,5.3,3,7.8c-0.3-2.9-1.3-4.8-1.6-7.5c1.7,2.2,0.8,5,2.2,7.5
	c2-2.9-0.5-5.2,0.4-7.7c1.6,2.6,1.5,5.2,1.6,8.1c-3.6,0.7-1.1-6.6-3.2-8.6c-0.4,3.2,1,6.3,0.9,9.5c0-2.9,0.6-6.3-1.3-8.8
	c0,3.1,0.9,6.3,1,9.5c0.1,0,0.7,0,0.9,0c1.2-3.7-0.3-6.5,0.1-10c1.3,1.9,1.1,5.5,1.6,7.9c0.1-2.6-2-6.5-0.3-8.1
	c1.1,2.2,0.4,3.3,0.7,5.8c0.1-2.2-0.7-4.8-0.4-6.8c1.9,2.3,1.1,6.3,2.4,9.1c0.2-3.1-1-5.3-1.7-8.1c2.5,1.9,1.4,7,1.3,9.8
	c2.8-3.7-0.1-5.9-0.2-9.7c1.2,3.1,0.9,6.3,2.3,9.4c0.1-3.2-2.2-7.2-3.3-10.2c1.2,3.3,2.4,8.6,4.9,11.2c-2-3.5-3.6-7.2-4.6-11.1
	c0.2,2.8,3,8.7,5.2,10.6c-2.6-2.3-2.8-6.5-3.7-9.7c1.6,2.6,2.2,5.5,3.5,8.3c-1.2-3.5-4-5.1-4.7-8.8c2.3,3.2,3.6,5.8,5.7,9.2
	c-0.5-3.1-2.3-5.3-3.7-8.2c2.5,3.1,3.5,5.5,5.1,9.2c-1.7-3.5-3.4-5.9-4.8-9.5c2.3,3.4,4,5.7,6.1,9.2c-0.6-4-3-6.5-5.1-9.9
	c-0.3,4.4,3,6.4,4.9,9.9c-1.6-4.1-3.3-5.4-5.4-9.2c3.1,3.6,3.9,5.7,6.6,9.5c-1.2-3.7-5.5-6.9-5.7-10.7c3.1,2.4,4.2,6.5,6.6,9.6
	c-0.5-3.6-5.4-7.7-7.3-10.9c2.7,3.8,6.4,9.8,10.6,11.9c-3.1-2.9-9-8.2-9.9-12.4c4.4,2.1,7.5,9.6,11,13.3c-4.1-1.7-7.9-8.6-10.3-12.4
	c5,2.7,9.7,8.9,13.7,13.1c-3.9-4.1-8.6-7.4-11.9-11.9c4.2,0.2,9.2,7.2,10.9,10.9c-4.2-2.9-8.2-7.6-10.7-12.1
	c4.6,2.5,9.1,7.4,11.8,11.8c-5.4-2.2-8.8-8.6-12.8-12.6c3.1,4,6.8,11.4,11.4,13.6c-1.8-5.1-8.4-7.5-10.2-12.8
	c4.2,1.1,7.6,5.8,9.5,9.5c-3.5-2.5-7.2-6.4-9.4-10.1c2.9,0.5,6.4,4.1,7.8,6.7c-2.6-1.7-4.9-4.4-6.8-6.7c4.2,1.8,9.1,7.7,10.5,11.5
	c-3.5-3.9-6.7-7.2-9.4-11.6c5.1,4,8.8,7.7,12.6,12.8c-3.9-3.9-8.6-7.7-11.8-12.2c4,2.4,9.8,7.5,12.1,11.8c-4.7-2.4-11-8.2-13.4-13
	c5.6,0.6,11.2,8.6,13.3,13.2c-4.2-2.5-8.9-7.1-10.8-11.6c4.2,1.7,10,7.6,12,11.8c-3.9-3.3-8.7-8.4-10.9-13c5.3,1.2,9.6,7.5,12.1,12
	c-3.9-2.7-9.2-7.3-11.5-11.4c3.9,0.7,10.7,8,11.2,12.2c-4.7-1.8-8.3-7.7-10.8-11.8c3.8,2.9,8.4,8,9.8,12.7c-3.7,0.6-6.4-8.6-7.7-11
	c1.1,1.5,2.3,2.9,3.1,4.5c-3.2-1.3-6-5.2-8.2-7.8c1.8,0.9,3.7,2.2,4.5,4c-2-1.3-3.7-3-5.5-4.5c2.1,0.3,4.9,2.3,5.9,4.3
	c-2.5,0-4.5-2.1-5.5-4.2c2.6,0.4,5.7,2.9,6.4,5.5c-2.4-0.6-4.7-3.5-5.7-5.7c3.5,1,7.5,5.2,9.4,8.4c-3.3-3.3-6.3-6.9-10-9.7
	c5.4,3.4,10.4,7.2,13.3,13c-4.1-3-6.7-8.3-10.8-11.6c5.4,2.5,10.3,8.1,14,12.8c-2.7-4.4-7.2-7.9-11-11.3c2.4,3.3,8.5,9.4,12.4,10.9
	c-3-6.1-9.2-8.1-14.1-12.3c1.9,2.7,3.8,4.7,7,6.2c-1.9-3.3-4.7-3.5-6.3-6.9c4,0.3,5.8,4.6,8,7.6c-1.5-2.9-4.7-4.7-7.2-6.6
	c1.4,1.9,3.3,4.3,5.4,5.3c-0.5-2.6-3.4-4-4.3-6.4c3.4,0.8,6.2,4.9,8.1,7.6c-2.3-3.6-6.3-4.6-9.4-7.4c4.9,2.4,8.4,5.8,11.4,10.2
	c-3.8-2.5-7.4-6.7-10.7-9.8c5.2,1.5,8.4,8.2,13.3,10.8c-3.6-4.1-7.4-8.6-12.1-11.5c4.7,3.6,9.2,7.6,14.2,10.9
	c-4-2.8-11.3-6.3-13.3-10.9c5.1,2.5,9.5,7.1,13,11.5c-4.8-3-8.4-7.7-12.7-11.3c5.3,0.5,9.5,7.4,13,11.1c-4.3-3.6-8.5-7.2-12.8-10.8
	c3.8-0.2,10.2,6.1,12.4,9.7c-5.1-2.3-10.2-7.8-14.7-11.3c2.5,1,5.8,2,7.9,3.8c-2.9-1.1-5.6-2.8-8.3-4.5c2.1,0.3,4.4,1.3,6.2,2.4
	c-1.6-0.7-3.1-1.7-4.6-2.7c3.8,1.7,7.5,4.5,9.6,8.1c-3.4-1.7-7.5-4.8-9.9-7.6c5.3,2.3,8.3,7.9,13.3,10.5c-3.1-4.5-7.5-7.4-11.6-10.9
	c4.8,3.4,9,7.4,13.8,10.8c-4.2-4.2-7.5-7.3-12.3-10.8c6.2,2.5,8.8,6.4,13.2,11.1c-1.1-1.5-13.3-11.9-13.4-11.6c5,3,10.8,6,14.8,10.2
	c-4.4-3.3-9.4-6.6-13.4-10.4c4.4,3.4,8.9,10.8,14.2,12.7c1.8-6.8-10.1-9.3-13.3-13.5c5.4,2.8,8.9,8.5,13.5,12.3
	c-4.1-4.4-9.4-7.3-14-11c5.2,2.8,9.4,7.4,14.4,10.7c-3.7-1.6-7.9-6.3-10.8-9.1c5.2,3.1,9.8,7,15,10.1c-4-5.2-11-7.3-16.2-11.1
	c5.1,2.9,10.3,6.5,14.7,10.4c-3.7-0.9-7.3-4.6-9.8-7.4c3.3,2.6,6.7,5.2,10,7.9c-6-2.2-10.9-8.1-15.9-12c3.3,0.7,6.9,4.4,9.5,6.5
	c-3.7-1.4-7.9-4.3-10.9-7c3.9,1.8,8.2,4.1,11.4,7.1c-3.2-2.1-6.3-4.9-9.3-7.2c3.2,1.4,7.8,3.2,9.9,6.1c-3.3-2.1-6.7-4.1-10.1-6.1
	c4.2,0.5,8.5,4.1,11.3,7.1c-3.5-1.1-8-4.1-10.8-6.6c4.1,1.9,8.5,3.8,12,6.7c-3.8-1.7-7.6-4.1-10.5-7.2c3.8,0.4,8.1,4,10.9,6.6
	c-3.5-2.3-8.6-4.5-11.1-7.9c4.7,1.8,9.7,4.5,13.3,8c-3.7-0.5-10-5.5-12.8-7.9c4.3,2.7,9.1,5.3,12.7,8.9c-3.5-1.7-7.7-4.6-10.3-7.5
	c3.8,1.6,6.9,4.4,10.7,6c-3.3-3.5-8.2-6.3-12.5-8.5c4.4,1.4,9.8,4.8,12.9,8.2c-3.2-3.1-7.4-5-11-7.5c3.6,0.2,8,4.3,11,6.2
	c-3-2.9-7.6-4.7-11.1-7.2c2-0.9,9.8,4.9,12,6.1c-3.2-2.4-6.8-4.1-9.8-6.7c4,1.5,7.5,4.3,11.1,6.4c-3.8-2.9-8.6-4.5-12.8-6.8
	c3.7,2.5,7.5,4.8,11.3,7.2c-2.9-1.7-8.2-4.2-9.9-7c3.8,1.9,7.4,4.1,10.9,6.5c-2.1-2.8-6.3-4.6-9.3-6.7c3.4,2,6.8,4.1,10.2,6.2
	c-3.4-1.3-8.2-4.8-10.9-7.1c3.7,2,7.5,4.7,11,7.1c-1.5-3.2-6.8-4.8-9-7.4c3.2,2.1,6.4,4.3,9.2,6.9c-3.2-0.9-6.6-4.1-9.2-6.1
	c2.9,1.3,5.6,3.5,8.2,5.3c-3.7-1.6-5.7-3.6-9-5.9c2.5,2.7,5.5,3.8,8.7,5.6c-2.2-2.4-5.2-4-7.4-6.4c3.5,1.3,6.7,3.5,9.9,5.4
	c-3-2.4-6.4-4.5-9.8-6.5c3.1,1.6,6.5,3.6,9.3,5.9c-3.8-2-7.2-4.5-10.7-7.1c3.6,2.2,7.9,4.3,10.9,7.4c-4.1-1.3-7.9-2.7-11.3-5.2
	c3.9,0.9,7.8,2.2,11.1,4.5c-3-2-5.9-3.4-8.4-6.1c3.7,2.1,7.6,4.2,10.8,6.9c-2.5-2.9-7.4-5.9-10.6-7.9c3.3,2.5,6.7,4.9,10,7.4
	c-2.3-2.6-5.3-4.7-8.1-6.7c2.9,2.1,5.6,4.3,8.5,6.4c-2.8-3-6.4-5-9.6-7.4c1.1,0.7,9.7,6,9.5,6.7c-3-2-5.8-4.4-8.5-6.8
	c1.2-1,8.4,4.6,9.9,5.6c-2.4-2.7-5.7-5-8.8-6.7c3.2,2.1,8,3.2,10.8,5.9c-3.8-2.3-8.1-3.2-11.9-5.5c2.3,2.7,5.3,3.7,8.1,5.9
	c-2.9-2-5.5-4.6-8.1-7c0.8-0.3,7,4.8,8.1,5.5c-2.4-1.7-4.5-3.5-6.7-5.5c1.4-0.7,7.5,5.9,8.6,7.1c-2.9-2.3-5.7-4.8-8.7-7.1
	c2.9,2.2,6.7,3.9,9.1,6.6c-2.5-2.1-5.6-4-7.2-6.8c2.4,1.8,4.2,3.9,6.4,6c-2.4-2.4-3.5-4.3-5.8-6.7c2.9,1.8,4.1,4,6.6,6.2
	c-2.7-1.8-4.6-5.3-7-7.6c2.5,1.8,4.5,4.6,6.7,6.8c-2.6-2-2.9-3.8-5.3-6c2.9,1.6,3.3,3.8,5.9,5.9c-1.6-2.3-3.6-4.4-5.8-6.1
	c2.6,2.2,5.1,4.8,7.2,7.5c-1.7-1.3-4.9-3.6-5.6-5.6c2.2,1.5,4.1,3.2,6.2,4.7c-1.6-1.4-3.5-2.7-5-4.3c1.8,1.4,3.5,2.9,5.3,4.3
	c-1.4-1.3-3.1-2.7-4.1-4.5c1.5,1.2,2.8,2.6,4.3,3.8c-0.4-1.1-1.3-2-2-3c0.7,0.7,1.5,1.4,2.2,2.1c-0.1-0.3-0.3-0.7-0.5-1
	c0.5,0.4,0.7,0.8,0.8,0.9c0.2,0.3,1,0.7,1.2,1c0.1-0.3,0.1-0.7,0-1c0,0.2-0.7,0.8-0.6,0.9c0.1-0.1,0.4-0.3,0.4-0.5
	c-0.6,1.6-2.1,0.3-3.8,0.8"/>
<path class="st3" d="M957.1,491.6c0,0,2.7-2.7,3.4-3.5c0.9-1,2-1.7,3-2.6c1.5-1.3,2.6-3.2,4.4-3.9c-0.3,0.8-1.4,1.4-2.1,1.9
	c-1.1,0.8-2,1.7-3,2.6c-1.2,1-2.3,2-3.4,3.2c-0.6,0.6-1.8,1.4-2,2.2c2.2,0.3,4.6-3.8,6.2-5.2c1.2-1,2.8-3,4.4-3.4
	c-0.1,1.8-3.3,3.3-4.6,4.2c-1.2,0.9-3,2.2-3.2,3.7c1.8,0.2,3.8-3.8,4.7-5c0.9-1.2,2.2-2.4,3.6-2.8c-1.2,1.9-3,3.6-4.6,5.3
	c-0.8,0.8-2.4,2.1-2.6,3.2c1.6,0.2,3.3-3.6,4.1-4.7c1-1.5,1.9-2.9,3.4-4c-2.1,1.4-4,3.3-5.8,5.2c-0.8,0.9-2.2,2-2.5,3.2
	c2.2,0.2,4.2-4.4,5.4-5.9c0.7-0.9,1.9-2.9,3.2-3c0.1,2.2-2.7,4.3-3.9,5.9c-1,1.3-2.1,2.6-3.2,3.8c3.2-2,4-6.6,7.3-8.5
	c-1.6,2.5-3.8,4.5-5,7.3c2.8-1.1,3.2-5.7,5.8-7.5c-1.4,1.9-3.1,3.5-4.5,5.5c-0.7,1-1.7,2.1-2,3.2c1.7,0.1,3.2-3.4,3.8-4.6
	c0.6-1.2,1.1-2.9,2.3-3.7c-1,3-3.2,5.6-4.4,8.5c1.5-2.8,2.6-5.8,4.5-8.3c1.8,1-1.6,4.6-2.7,5c-0.8-1.4,1.1-5.2,2.4-5.7
	c-0.3,0.8-0.9,1.9-1.7,2.3c0.2-0.4,1.4-3.8,2.2-3.4c1.1,0.6-1.6,3.6-1.9,4.2c0.3-0.6,1.1-3.7,1.7-3.8c1.5-0.1-1.1,3.5-1.3,3.9
	c0.9-0.7,1.9-2.4,1.7-3.6c-1.4,0.8-2.3,4.7-2.8,6.1c-0.4,1-0.8,3.1-2,3.3c-0.2-3.1,4.3-5.6,4.7-8.8c-1.3-0.2-1.3,3.1-1.5,3.9
	c-0.6,2.6-1.9,3.5-3.6,5.3c2.9-1.8,3.9-5.8,5.3-8.7c-0.9,2.3-0.9,7.7-3.9,8.4c1.2-2.1,2.1-4.2,3.1-6.4c0.2-0.4,0.8-2.7,1.3-2.8
	c1.9-0.3-0.9,4.5-1.1,4.9c-0.9,1.7-1.9,3.3-2.8,5c2.8-2.4,1.3-7.8,4.1-10.2c1.8,3.2-3.4,7.2-4.5,9.9c2-1.9,2.7-5.9,4-8.4
	c-0.2,1.3-2,8.6-4.1,8.4c-2.1-0.2,2.2-4.8,2.9-5.4c-0.5,1.7-1.9,5.3-3.9,5.8c0.7-1.3,2-2.4,2.9-3.7c1-1.5,1.7-3.1,2.3-4.8
	c0.1,1.9-1.5,6.1-3.1,7.3c1.1-1,2-4.2,2.4-5.7c0.3-1,0.7-2.1,0.8-3.1c0.2,2.7,0.4,8.4-2.8,9.7c0.8-2.1,2.1-3.9,2.7-6.1
	c0.4-1.3,0.8-2.7,1-4c0,2.2-0.8,4.3-1.4,6.4c-0.3,1.1-0.7,3.1-1.7,3.8c0.1-3,2.6-5.8,2.6-9c1,2.7-0.3,6.9-1.8,9.1
	c2.1-2.9,1.8-5.7,2.6-8.9c0.1,2.6-0.3,8.3-2.9,9.6c-0.2-0.5-0.1-0.8,0.1-1.3c0.4-1.6,1.3-3.3,1.8-4.9c0.4-1.2,0.9-2.3,0.9-3.5
	c1.4,1.7-0.1,6.1-1.5,7.6c0.4-2.1,0.8-4.3,1.3-6.4c0.1-0.6,0.1-1.1,0.6-1.4c2.1,2.3-2,8.3-2.9,10.6c1.6-3.3,3.1-6.7,3.1-10.4
	c1.5,3.1-0.5,6.5-1.9,9.3c0.3-2.2,4.1-7.6,1.9-9.8c-1.2,1.1-1,3.3-1.4,4.9c0.3-0.7,0.6-4.5,1.2-4.8c1.4-0.6,0.9,2.2,0.7,2.7
	c0.2-0.8,0.7-2.9-0.5-3.2c-1.4-0.4-1.6,2.7-1.6,3.6c0.5-0.9,0.3-3.4,1.7-3.5c1.1,1.4,0.2,3.2-0.3,4.7c-0.7,2.2-1.4,4.2-1.7,6.5
	c2.2-2.8,1.5-7,2.7-10.2c1.3,1.5-0.3,4.5-0.7,6.1c-0.5,1.7-1,3-1.7,4.6c2.4-2.5,2-6.7,3-9.9c0.4,3.1-1.4,7.2-2.9,10
	c1.6-2.5,3.5-6.9,2.6-10c0.1,1.9,1.1,8.8-1.8,9.2c0.2-0.9,0.9-1.7,1.2-2.5c0.7-1.6,0.9-3.7,0.9-5.4c0-1.2-0.1-2.7-1.1-3.5
	c0.4,1.4,1.6,3,0.6,4.5c-0.4-0.9-0.3-2.7-0.5-3.9c3,2.9-0.2,9.1-1.2,12.4c0.9-2.3,1.4-4.8,1.6-7.3c0.1-1.4-0.1-3,0.3-4.3
	c2.7,0.4-0.8,10.2-1.3,11.9c2.3-2.4,2-9.7,1.7-13c2.2,4.6-0.7,9.2-1.9,13.5c0.9-2.4,1.5-4.7,1.9-7.1c0.2-1.3,0.2-3.6,1-4.5
	c1,1.9,0.3,5.1,0,7.2c-0.3,1.7-0.8,3.6-1.8,5c-0.9-2.2,0.9-4.7,1.4-6.8c0.6-2.3-0.2-4.4,0-6.6c1.6,4.3,0.3,8.9-1.2,12.9
	c0.5-2.8,0.9-5.6,1.4-8.5c0.3-1.6,0.6-3.1,0.2-4.7c1.5,2.1,0.8,5.9,0.2,8.2c-0.4,1.5-0.7,4.2-2,5.2c0.4-2,1.1-3.9,1.4-6
	c0.2-1.8,0-3.5,0-5.3c0.1,2.6-0.2,5.3-0.6,7.8c-0.3,1.4-1.4,2.8-1.5,4.1c3.3-2.8,2.6-9.4,2.8-13.3c1.7,3.9-0.7,9.4-1.3,13.4
	c0.6-3.1,1.3-6,1.3-9.2c0-1.3-0.4-3.1,0.4-4.2c2.1,4.5-1.4,9.5-1.3,14.1c1.4-1.5,1.1-5.3,1.2-7.2c0.1-1.9,0-4,0.6-5.9
	c1.5,4.6-0.3,9.8-1.3,14.3c0.3-2.8,0.7-5.7,0.9-8.5c0.2-1.8,0.5-4.2-0.1-5.9c1.5,3.6,1.6,9.8-0.4,13.4c0.7-4.8,1.1-8.9,0.5-13.7
	c1.1,3,1.7,8.6-0.1,11.4c0.2-3.2,0.7-6.4,0.6-9.7c0-0.8,0-1.8-0.4-2.5c1.4,2,0.8,5.7,0.6,7.8c-0.1,2.3-0.4,4.6-0.9,6.8
	c0.9-3.4,1.4-6.6,0.9-10.1c-0.2-1.4-0.7-3-0.1-4.2c2.4,4.2,0.2,9.7,0.1,14.2c1-1.4,0.8-4.3,0.8-5.8c0-2.3-0.2-4.6-0.8-6.8
	c1,4.3,0,8.4-0.4,12.7c1-3.3,1.4-6.7,1.9-10.1c0.3-2-0.3-2.7-1-4.4c0.4,1.9,0.5,3.9,0.6,5.8c-0.2-1.5-1-4.8-0.3-6.1
	c1.5,1.4,1,4.3,0.7,6.1c0.1-1.3,0.7-4.5-0.5-5.4c-0.5,1.4-0.1,3.9,0.1,5.3c0.1-1.3-0.5-3.9,0.4-4.9c1.2,1.3,0.6,4.2,0.4,5.7
	c-0.3,2.2-0.2,4.6-0.9,6.6c0.6-3.2,0.4-6.5,0.1-9.8c0,3.3-1.4,7.2-0.6,10.4c1.5-1.8,1-5.7,1-7.7c0-1.3-0.5-3.6,0.2-4.8
	c1.3,0.7,0.7,4.7,0.6,5.8c-0.1,2.4-0.8,4.9-0.7,7.4c1.7-2.2,0.7-6.9,0.6-9.5c0-1.1-0.6-4.2,0.8-4.6c2.2,3.1-0.5,8.5-0.5,12
	c-0.1-4.1,0.6-8.2-0.5-12.3c-0.5,5.1,1.7,10.6-0.4,15.4c0.7-3.8,0.7-7.4,0.5-11.3c0.5,2.7,0.5,5.6,0.2,8.3c-0.1,1.1-0.7,2.9-0.3,3.9
	c1.5-2.3,0.7-6.4,1-9.1c0.2-2.1,0.4-4.2,0.4-6.4c1.3,1.7,0.4,5.6,0.2,7.4c-0.3,2.4-1,4.9-1.2,7.3c3.4-3.8-0.3-10.4,1.7-14.7
	c1.3,2.2,0.1,6.2-0.3,8.5c-0.3,1.7-0.8,3.5-0.8,5.3c1.6-0.9,1.4-5,1.4-6.5c0-1.8-0.8-4.9,0-6.5c1.8,1.1,0.7,6.1,0.5,7.6
	c-0.3,1.8-0.8,3.8-0.7,5.6c1.3-2.3,1.2-5.4,1.1-7.9c-0.1-1.7-0.6-3.8-0.2-5.5c3,0.3-0.6,9.4,0,11.5c1.1-0.8,0.9-3.7,1-4.8
	c0.1-1.8-0.5-4.7,0.6-6.4c1.7,0.6,0.7,6.6,0.5,7.8c-0.2,1.5-0.4,2.9-0.4,4.5c0.2-1.8,0.4-3.6,0.4-5.5c0-1.9-0.6-4,0-5.8
	c1.6,0.4-0.6,11.1-1,12.4c-0.7-0.5,0-7,0-7.8c0-1.4,0.1-3.3-0.6-4.7c1,3.6,2.1,9.8-2.3,11.5c0.3-2.4,1.7-4.8,2.2-7.3
	c0.3-1.9,0.1-4.4,0.9-6.1c1.7,1.2,0.7,5.1,0.5,6.8c-0.3,1.9-1.4,4.9-0.6,6.7c1.5-0.6,1.2-5.3,1.2-6.4c0-1.7-0.1-3.5-0.1-5.2
	c0.9,3.7,1.2,8.3,0,11.9c-1.5-1.4-0.4-6.1-0.2-7.7c0.1-1.5,0.7-3.6,0.1-5c1.6,2.5,1.1,6.9,0.7,9.7c-0.2,1.4-0.5,3.1-1.4,4.1
	c0-2.1,0.6-4.3,0.8-6.4c0.1-2,0.2-4,0.2-6c1.5,3.7,0.4,9.6-1,13.3c1.4-2.1,1.4-5.6,1.4-8.1c0-1.6-1.3-5.4-0.2-6.6
	c2.7,2.8,0.5,10.2,0.3,13.6c0.9-2.5,0.7-5.6,0.5-8.1c-0.1-1.6-0.9-3.9-0.4-5.4c1.9,4.6-0.3,9.8,0.3,14.5c0.9-2.9,0.6-6.3,0.4-9.2
	c-0.1-1.4-0.6-4.1-0.1-5.4c2.2,4.1,1.5,9.8,0.9,14.2c-0.2-4.7,0.5-9.6-0.4-14.3c-0.5,3-0.6,6.1-0.2,9.1c0.2,1.5,0.7,3.1,0.7,4.6
	c0-0.2,0.1-0.6,0.1-0.7c0.1,0.2-0.2,0-0.2,0c1.3,0.5,0.4,2.2,0.2,3.2c0.1-2.3,0.8-4.8,0.5-7.1c-0.1-1.1-1-2.7-0.6-3.7
	c1.1,3.5,1.1,7.1,0.4,10.7c-0.9-3.1-0.3-7.5-0.1-10.7c0.1-1.4,0.3-1.6,0.4-2.6c0.1-0.7,0.5-1.6-0.1-2.2c-1.2,0.2-0.8,4.5-0.9,5.5
	c0.5-1.9,0.8-4,0.9-5.9c1.4,0.6,0.3,4.7,0.2,5.7c-0.4,3.4-0.3,6.6,0.2,9.9c1.5-4.3,0-9.3,1-13.7c0.2,2.4,0,4.8-0.2,7.2
	c-0.2,2-0.8,4.3-0.6,6.3c1.2-2.5,0.8-5.4,0.5-8c-0.2-1.7-0.8-4.2,0-5.8c0.3,1.9,0.1,4.3,0.1,6.1c0,1.4-0.5,3.9,0.1,5.1
	c-0.1-2.4-0.5-4.9-0.5-7.3c0-1.5-0.2-3.7,1-4.9c0.4,1-0.5,13.1,0.9,13.2c0.3-2.6,0.2-5.2,0-7.8c0-0.7-0.5-3.4,0-3.9
	c0.3,4.9-0.9,9.2-1.4,13.9c1.3-3.3,2.5-8.9,0.7-12.2c0.6,2,0.7,3.9,0.5,6c-0.2,2-1.3,4.3-1,6.3c2.2-2.4,1.3-7.1,0.9-10
	c-0.2-1.4-0.8-3.8,0.2-5c0.9,1.7,1,4.7,0.1,6.4c-0.3-2.5-0.3-5-0.8-7.4c-1.3,0.2-1.4,3.5-1.4,4.4c0-1.6,0-3.3,0.9-4.7
	c1.8,0.3,1,7,1.8,8.5c1.9-0.6-0.4-6.9,0.3-8.4c0.9,1.1,0.3,4.5,0.3,5.5c-0.1,1.5-0.3,3.2-0.2,4.7c0-3.1,0-6.8-1.3-9.7
	c0.9,3.9,2.6,9.9,0.6,13.7c0-2.3,1.2-4.6,0.3-6.9c0,2.4-0.5,4.8-0.6,7.2c1.9,0.3,1.6-10.2,1.5-11.5c0.1,3.4-0.2,6.7-0.2,10.1
	c0.5-2.6,0.5-5.3,0.2-8c-0.2-1.4-0.8-3.1-0.4-4.5c1,1.7,0.6,5.5,0.6,7.1c0,1.9-0.1,3.8,0.3,5.6c1.3-4.1-1-8.5-0.5-12.6
	c0.7,0.8,0.7,5.3,0.7,5.5c0.1,1.9-0.1,3.9,0.1,5.8c1.7-3.6-0.5-8.2-0.3-11.9c1.2,0.9,1.1,4.8,1.1,5.6c0,2.2-0.1,4.4,0,6.5
	c0.7-3.7-0.6-7.7-1.1-11.3c0.5,3.2,0.3,7.4,1.7,10.4c1.6-3.2-1.5-7.7-0.1-10.8c1.4,3.6,0,8.4,0.6,12.2c-1.4-3.8-1.8-8.2-1.5-12.2
	c0,3.5,1.9,7,0.7,10.5c-0.4-3.4,0.3-6.8-0.3-10.2c0.8,4.3,1,8.5,1,12.8c0.8-3.7,0.1-8.8-0.7-12.5c0.7,3.9,2.4,8,1.8,12
	c-0.1-2.4-0.3-4.8-0.5-7.2c-0.1-0.5-0.1-3.9-0.5-4.1c0.1,2.3,0.4,4.6,0.7,6.9c0.2,1.6,0.7,3.7,0.5,5.3c-0.2-3.9,0.4-8.7-1.5-12.3
	c0.5,1.9,0.8,3.7,1,5.7c0.2,2.3-0.2,4.8,0.1,7.1c0.3-4.5,0.4-9.6-0.9-14c-1.1,0.8,0.5,6,0.8,7.3c0.4-1.7-1.4-5.8,0-7
	c1.2,2.7,0.5,5.6,1.2,8.4c-0.3-2.9-0.8-5.7-1.7-8.4c-0.8,1.2,1.1,5.1,1.5,6.4c0.6,2.1,1.2,4.8,0.2,6.9c-0.2-3.8,0.3-7.9-0.8-11.7
	c-0.4,2.3,0.6,5,0.9,7.3c0.2,1.4,1,4.8-0.2,5.9c-0.2-4.6,0.2-9-0.8-13.5c1.2,3.4,1.9,7.6,1.8,11.3c-0.6-2.9-1.2-5.8-1.5-8.7
	c-0.1-1.1-0.4-2.2-0.1-3.3c1.4,1.1,1.4,3.8,1.5,5.4c-0.1-1.2-0.4-5.5-2-5.8c-0.2,2.9,2,5.6,2,8.5c-1.2-1.2-1.6-4.3-1.8-5.8
	c-0.1-0.8-0.4-2.6,0.4-3.1c1.9,1.5,1.9,4.9,2,7.1c0.1,2.3,0.4,4.6,0.7,7c0-3.3-1.2-6.9-2.2-10c0.2,2,0.9,4.3,1.2,6.3
	c0.2,1,1.3,4.6,0.4,5.2c-1.4-2.6,0.3-6.7-1.5-9.1c-0.4,2.9,1.8,5.9,1.5,8.9c0.1-2.8-0.3-5.5-0.6-8.3c-0.1-0.5-1.1-5-0.6-5.3
	c1.6,2.4,1.9,5.1,1.8,8c0.4-2.9,0.3-6.8-1.2-9.4c0.3,2.9,1.7,5.9,1.6,8.9c-2.2-2.2-0.5-6.8-2.3-9.3c-0.8,0.8,1.6,5.8,1.5,7.2
	c-0.8-1.1-2.1-5.5-1.1-6.6c0.7,1.9,0.6,3.9,1.3,5.7c0.4-1.9-0.6-4.9-2-6.3c-0.2,2.9,2.5,6,1.7,8.9c-0.6-2.5-1.1-5.1-1.9-7.6
	c-0.3,0.6-0.1,1.3,0.4,1.9c0.4,1.6,0.9,3.2,1.3,4.8c0.6,2.5,1.1,5,1.1,7.6c0.5-3.2-0.2-6.4-1-9.5c1.6,1.7,1.9,6.6,1.2,8.9
	c-1.1-2.3-1.3-5.1-1.6-7.5c0.7,1.8,1.8,6.6,0.4,8.3c-1.4-1.3-0.5-5-0.2-6.7c1.4,1,1,4.4,1.5,6c0.6-1.1,0.1-2.8-0.1-3.9
	c-0.2-1.2-1.5-4.4-0.7-5.3c1.2,3.5,1.1,7.2,1.8,10.8c-0.1-2.3-1.2-4.6-1.3-6.8c1.2,1.8,1.6,4.4,1.6,6.6c0.3-2.3-0.5-4.7-1.3-6.8
	c1,2.3,1.8,4.6,1.6,7.1c0-2,0.5-4.9-0.7-6.8c0.9,2.2,0.9,4.2,0.8,6.4c0.9-3.7-0.9-6.7-1.7-10.2c0.7,2.4,2.4,6.8,1.1,9.2
	c-1.4-3.9-0.6-8-2.3-11.9c1.6,2.6,2,6.5,2.3,9.5c-0.6-2.6-1.3-5.2-1.8-7.9c-0.2-1.2-0.8-3-0.3-4.1c1.4,2.2,1.4,5.4,1.7,7.9
	c-0.3-2-1.1-3.8-1.6-5.7c-0.3-1-0.5-2.2-1-3.1c0.4,1.8,1,3.6,1.5,5.4c-0.6-0.7-1.7-4-1-5c1.3,1.2,1.2,3.5,1.6,5.1
	c0.3-2.2-1.6-4-1.5-6.1c1.8,0.7,2.1,5,2.5,6.7c-0.4-1.9-0.8-4.2-2.2-5.7c0.2,1.5,1.5,2.9,2.1,4.4c0.8,2.1,1.3,4.6,0.9,6.8
	c-0.9-3.4-1.5-6.9-2.9-10.1c1.7,2.9,2.8,6.2,2.8,9.6c-0.8-1.6-1-4.2-1.4-5.8c-0.4-1.5-0.9-3-1.2-4.5c2.4,1.8,3.1,8.6,2.9,11.4
	c-0.5-2.1-1.1-4.2-1.6-6.3c-0.4-1.5-1.2-3.3-1.2-4.9c1.9,2,2.3,5.1,2.6,7.8c-0.5-2.6-0.4-6.2-2.2-8.5c0.6,2.7,1.2,5.3,1.2,8.1
	c-1.2-2-1.7-5.9-1.2-8.3c1.1,1.7,0.6,4.4,2,6c-0.4-1.9-0.6-4.3-1.6-6c-0.2,1.9,0.9,4.6,1.8,6.3c0.5-1-0.9-4.7-1.5-5.7
	c0.6,4.3,1.5,8.7,2.5,12.9c-0.7-3-1.6-5.9-2.3-8.9c2.2,2.4,1.3,7.2,3.3,9.7c-0.3-2.7-1.6-5.2-2.3-7.8c1,2.7,1.6,5.8,3,8.3
	c0.2-3.8-3.1-7.3-3.4-11.1c1.4,1.5,1.8,3.6,2.2,5.5c0.2,0.8,1.2,3.7,0.5,4.4c-1.8-4.3-3-8.8-3.7-13.3c2.9,0,2.8,7.4,3.4,9.4
	c-0.7-3.1-1.5-6.9-3-9.7c1.2,3.1,3.2,6.1,3.7,9.5c-1.1-3-2.2-6-3-9c2.2,4,2.6,8.8,3.6,13.2c-2.1-2.4-3-7.6-3.4-10.8
	c1.1,3.1,1.5,8.1,3.7,10.7c-0.4-2.7-1.6-5.4-2.5-8c-0.5-1.7-0.8-3.5-1.6-5.1c-0.1-0.3-0.5-0.8-0.5-1.1c1.3-0.4,1.4,1.4,1.6,2.2
	c0.6,1.9,1.2,4.3,2.5,5.9c-0.3-2.4-2.4-4.7-2.5-7.1c1.6,0.5,2,4.8,2.4,6.2c0.3,1.1,1,4.8,2.2,5.2c0.2-2.3-1.7-5.3-2.5-7.3
	c-0.4-1-0.9-2-1.5-2.9c1.8,3.5,2.7,7.4,3.6,11.2c-0.4-3.9-3.2-6.8-4-10.4c0.6,1.9,1.4,3.9,2.2,5.7c0.6,1.5,1.3,3.7,2.3,4.9
	c-0.3-2.3-1-4.8-1.9-6.9c-0.7-1.6-1.6-2.8-1.6-4.6c2.7,3.6,3,7.8,4.2,12c-1.2-0.4-1.9-2.9-2.3-3.9c-0.9-2-2.1-4.1-2.6-6.2
	c0.2,2.2,1.8,4.8,2.6,6.9c0.4,1,0.6,3.2,1.3,3.9c0.4-3.4-2.2-6.5-3.4-9.5c0.6,1.7,1.5,3.2,1.9,5.1c0.3,1.1,0.4,2.5,0.7,3.6
	c-0.9-3.5-2.5-6.6-3.2-10.1c1,2.4,1.3,8.9,3.9,10c0-2-1.4-3.6-2.4-5.3c-1.1-2-1.1-4.1-1.6-6.2c-0.2-0.8-0.5-1.2-0.8-1.9
	c1.7-0.2,2.6,6.7,4.4,7.8c-0.4-2.4-2.4-5.1-3.4-7.4c1.2,0.2,1.6,2.4,1.8,3.3c0.6,1.8,1.5,3.7,1.6,5.6c-1.9-2.6-2.9-5.9-3.3-9.1
	c2.5,2.7,4.1,7.4,4.1,11.1c-1.1-0.3-1.9-2.8-2.3-3.6c-1-2.2-1.6-4.6-2.5-6.8c1,2.8,2.4,5.6,3.6,8.4c0.5,1.3,1.1,3.5,2.3,4.3
	c0.2-3.2-2-7.3-4-9.7c0.9,1.9,1.7,3.7,2.5,5.7c0.5,1.4,1.6,3,2,4.4c-0.3-2.8-1.6-4.9-3.4-7c0,2.3,0.9,5.4,2.1,7.4
	c0.1-2.4-1.5-4.7-2.9-6.5c2,1.5,2.3,4.8,4.2,6.5c0.2-2.8-1.3-5.6-2.6-7.9c-0.9-1.5-1.4-3.3-2.4-4.7c2.7,2.7,3.4,6.4,4.9,9.7
	c-1.2-2.7-2.8-5.2-4.3-7.6c-0.6-1-1.6-3-1.2-4.2c3.2,1.2,2.7,7,5.1,9.3c0-3.3-3-6.5-4.9-9c2.5,4,4.6,8.2,5.5,12.8
	c0.5-3.3-2-7.1-4.2-9.3c1.5,2.1,2.8,4.1,3.7,6.6c0.4,1.1,0.6,2.7,1,3.6c1-2.5-1.6-5.6-2.6-7.8c-0.8-1.9-2.6-4.2-2.8-6.2
	c1.9,1.4,2.6,4.3,3.5,6.4c0.8,1.8,1.6,3.6,2.5,5.4c-0.2-4.3-4.4-7.2-5.4-11.2c2.3,0.8,3.3,5.4,4,7.3c0.7,1.9,1.4,4.3,2.8,5.9
	c0.1-2-1.5-3.9-2.5-5.4c-1.2-1.9-1.7-3.9-2.7-5.8c3,2.9,4.5,7.2,6.5,10.7c-1.9-4.5-6.7-7.7-6.8-12.9c2.8,3.1,3.3,7.9,6.1,11
	c-0.7-3.9-5.5-6.1-5.6-10.2c2.3,1.1,3.2,6.1,4.3,8.3c0.5,1.1,1.4,3.3,2.5,3.9c0.1-1.5-1.3-2.9-2.1-4c-0.9-1.2-1.7-2.6-2.6-3.8
	c1.5,3.3,2.7,6.8,4.3,10.1c0.1-2.3-1.7-4.2-2.9-6c1.2,1.7,2.3,3.5,3.7,5.1c0.1-2.1-1.9-3.3-2.8-5c1.4,1.1,1.8,3.2,3,4.3
	c0.2-1.8-1.6-3-2.5-4.3c1.3,0.7,2.4,2.5,3.1,3.7c-0.1-2.2-2.1-4-3.5-5.6c-1.9-2.1-3-4.2-4.4-6.7c1.7,0.8,3.1,3.9,4,5.5
	c1.1,1.9,2.3,3.7,3.5,5.5c-2.1-2.4-3.9-5.2-5.7-7.8c-0.8-1.1-1.2-2.3-2.1-3.4c0.6,1.4,1.9,2.6,1.7,4.1c-1.3-0.8-1.9-3.2-2.1-4.6
	c1.5-0.1,2.9,3.6,3.4,4.7c-0.1-1.4-1.1-2.7-1.9-3.8c-0.4-0.5-1-0.8-0.8-1.5c2,0,2.3,4.4,3.5,5.7c0-2.1-2.5-3.6-2.5-5.6
	c2.2,2.2,2.1,6,4.7,7.9c-0.7-2-4.4-5.2-3.5-7.3c1.9,1.3,2.2,4.8,3.1,6.7c0.7,1.6,1.6,3.3,2.7,4.7c-0.3-2-2.5-4.3-3.6-6
	c-0.9-1.4-2.2-3-2.6-4.6c1.5,2,2.3,4.7,3.4,7c0.6,1.4,1.4,3.8,2.8,4.7c-1.4-3.5-5.9-7-5.7-11c1.8,2,2.9,4.9,4.3,7.2
	c0.7,1.1,1.3,2.7,2.6,3.2c-1.9-3.7-6.6-7.4-7-11.8c2.2,1.2,3.8,5.2,4.8,7.2c0.8,1.6,1.5,3.5,2.7,4.8c-2.5-3.4-4.5-7.1-6.9-10.6
	c1.1,3.2,3.5,6.9,5.6,9.7c-2-2.7-4.8-6.2-4.7-9.8c3.3,1.7,4.6,7.7,5.7,11c-1.1-4.3-4.2-8-5-12.2c0.6,0,0.8,0.8,1,1.4
	c0.1,0.5,0.4,0.4,0.5,0.9c-0.8-0.5-1.8-1.7-2.1-2.6c1.1,0.2,1.6,2.5,2.1,3.3c1.1,1.9,2.4,4,3.3,5.9c-0.4-1.5-1.2-3.2-2-4.5
	c-0.8-1.2-1.1-2.8-1.8-3.9c1.6,2.2,2.5,4.5,3.7,6.8c0-2.6-2.4-5.5-3.6-7.7c1.2,0.6,2.1,3.8,2.6,5c0.8,2.1,1.8,4.3,2,6.6
	c-0.2-1.2-1.1-3.1-1.8-4.4c-0.8-1.6-1.3-3.4-2.1-5c1,2.5,2,4.9,3.1,7.4c0.6,1.3,1.1,3,1.9,4.1c0.3-2.4-1.6-5.5-2.5-7.6
	c-0.6-1.5-1.9-3.1-2-4.7c1.3,0,2.7,3.1,3.1,4.1c0.8,1.8,0.8,3.9,1.9,5.5c0-2.4-1.8-4.5-2.9-6.6c-0.6-1.3-0.9-3.4-2.1-4.3
	c0.1,2.2,1.8,4.9,2.7,6.9c0.8,1.6,1.4,3.8,1.4,5.7c-0.1-2.2-1.2-4.7-2-6.7c-0.6-1.5-1.1-3.9-2.1-5.1c1.5,3.3,4.9,7.4,3.8,11.3
	c-1.5-2.5-2.5-5.7-3.3-8.5c-0.4-1.2-1-2.5-1.3-3.7c1.9-0.6,2.5,4.4,2.9,5.4c-0.3-1.7-1.5-4.6-2.8-5.8c0.1,1.6,1.5,3.5,1.9,5.2
	c0.4,1.5,1.3,3.5,1.2,5.1c-2.2-1.4-2.3-7.3-2.5-9.7c1.9,0.4,2.9,5.3,3.4,6.9c0.5,1.8,0.5,4,1.2,5.7c1.5-0.9-0.8-4.5-1.3-5.5
	c-1-2-2.4-4.9-2.4-7c1.7,1.4,2.1,4.2,2.8,6.2c0.5,1.3,1.1,2.6,1.6,4c0.2-2.7-2.1-4.8-3.2-7.1c-0.4-0.8-1.3-2.9-0.8-3.8
	c1.7,1,1.6,3.5,2.5,5c-0.5-1.6-1.1-3.8-2.6-4.7c0.2,1.2,2.3,3.7,1.3,4.9c-0.7-1.4-0.4-3.2-0.9-4.7c1.2,1.9,1.9,4.1,2.4,6.3
	c0.3,1.1,0.7,5.5,1.8,5.8c0.3-4.1-3.5-7.8-4.1-11.8c1.2,0.7,1.9,3.2,2.4,4.5c0.9,2.1,1.6,4.1,2.3,6.2c-0.1-3.8-2.6-7.8-4.2-11.3
	c0.6,2.5,1.6,4.8,2.9,7.1c0.8,1.5,1.9,3.5,1.9,5.3c-2.2-3.8-2.7-8.2-4.4-12.2c2.6,3.4,4.3,7.9,5.2,12.1c-1.5-1.8-2.6-4.9-3.5-7.1
	c-0.6-1.5-0.9-3.1-0.9-4.7c1.8,3.2,3.9,7,5,10.5c0.3-2.1-1.8-4.5-2.8-6.2c-0.6-1-1.1-3.8-2.2-4.2c0.2,2.2,1.7,4.6,2.7,6.5
	c0.7,1.3,1.1,2.7,1.9,4c0.1-3.1-2.8-7.6-4.5-10.1c1,2.9,3.1,5.5,4.8,8c-0.1-1.3-1.1-2.9-1.6-3.9c-0.8-1.4-1.7-3.5-2.9-4.6
	c0.2,1.8,1.3,4.4,2.4,5.9c-0.7-1.9-1.6-4.4-2.9-6.1c-0.3,1.2,0.7,2.6,1.5,3.5c0.2-1.2-0.9-2.9-1.6-3.9c0,1,0.9,2.2,1.6,2.9
	c0.3-1-0.4-2.4-1-3.2c0.4,1.4,1.5,3.5,2.6,4.4c0-1-1.1-3.8-1.9-4.2c0.8,2.8,2.2,5.6,3.7,8.2c-0.3-2.2-2.1-5.6-3.7-7.2
	c-0.5,1.2,0.8,3,1.2,4c0.6,1.3,1.4,3.9,2.9,4.7c1.4-2-2.3-7.2-3.6-8.5c1,3.2,3.3,6.3,4.9,9.2c-0.1-2.7-2.4-7.4-4.4-9.2
	c-0.3,1.4,1,3.2,1.6,4.3c0.8,1.5,1.8,3.4,3,4.6c0.2-2.7-2.2-7.4-4.5-8.9c-0.2,1.4,1.2,3.4,1.8,4.5c1.1,1.9,2.1,4.7,3.7,6.1
	c-0.1-3.5-3.2-8.8-5.9-10.8c0.1,1.9,2.2,5.3,3.8,6.3c0.4-2-2.2-6.6-3.9-7.6c-0.1,0.9,2.5,6.6,3.6,5.9c0-1.6-1.4-5.1-3-5.7
	c-0.6,1.5,1.1,3.7,1.9,5c0.6,1,1.7,3.2,2.9,3.8c0-2-2.4-6.7-3.7-8.1c-0.3,1.1,0.5,2.4,1,3.5c0.9,1.9,1.7,4.2,3.1,5.8
	c1-1.7-2.2-8.2-3.9-9.3c-0.3,1.2,2.9,9.3,4.4,9c-0.4-2.9-2.6-7.5-4.8-9.4c0.5,1.7,1.6,3.8,2.5,5.4c0.5,1,1.2,2.7,2.4,3.1
	c-0.6-2.4-2.3-6.3-4.4-7.7c0.9,2.2,2.2,4.3,3.5,6.3c0.6,0.9,1.4,2.3,2.4,2.9c0.2-1.5-1.4-3.3-2.1-4.4c-1.4-2-3-3.9-4.7-5.7
	c1.8,2.9,4.8,5.8,5.7,9.1c-1.2-1.8-2.4-3.6-3.5-5.5c-0.6-1.1-1.7-2.4-1.7-3.7c2.6-0.5,5.5,8.4,7.3,10.2c-2.1-3.6-5.2-6.4-6.6-10.4
	c2.6,3.3,4,7.9,7.5,10.4c-0.8-2.1-2.6-4.1-3.9-6c-0.8-1.1-2.1-2.7-2-4c2.5,0.7,3.5,5.3,4.9,7.4c0.7,1,1.4,2.1,2.4,2.8
	c-0.2-1.4-1.9-2.8-2.7-3.7c-1.3-1.5-2.6-3-3.8-4.5c2.1,2.9,6.2,5.6,6.7,9.3c-1.8-1.5-2.4-4.7-3.8-6.7c-0.9-1.3-3.2-3.2-3.2-4.7
	c2.7,0.9,2.8,5,5.1,6.4c-1-2.3-3.3-5-5.4-6.3c-0.3,2.9,3.8,4.6,3.9,7.2c-2.8-0.7-2.3-6.2-4.7-7.7c1.5,0.6,2.6,1.4,3.6,2.7
	c1.1,1.4,1.7,3.3,3,4.5c0.6-2.9-5.2-5.2-4.5-8.1c2.4,0.4,3.5,4.7,4.7,6.5c-0.7-2.3-3-4.8-4.8-6.2c0.6,2.7,4.6,4.4,4.9,7.2
	c-2-1-2.9-4.9-4-6.8c3.3,0.9,3.1,5.5,5.4,7.4c-0.1-2.6-3-4.9-4.4-6.9c2.1-0.4,3.5,4.6,4.4,5.9c-0.1-2.2-3.1-5.2-4.7-6.7
	c2.8,1.9,3.4,5.3,5.5,7.7c-1-2.7-3.3-4.7-4.4-7.3c2.8,1.6,3,5.3,5.2,7.2c0.1-1.9-5.2-6-4.3-7c2.5,1.4,2.5,5,4.4,6.7
	c-0.7-3-3.9-4.7-5.4-7.1c3,0.4,4.5,5.7,5.6,8c-1.1-2.7-3-5.3-4.6-7.7c2.6,1.1,3.1,5.3,4.6,7.4c-0.8-3.2-3-5.6-4.2-8.5
	c2.2,1.2,2.8,4,4.1,5.9c0-2.3-2.3-4.3-3.2-6.3c1.4,0.6,2.1,2.5,3,3.6c-0.3-1.3-1.3-2.4-2-3.4c0.7,0.7,1.2,1.7,2,2.3
	c-0.2-0.8-0.6-1.5-1-2.2c0.5,0.3,0.9,0.8,1.3,1.3c-0.3-0.4-0.7-0.9-1.1-1.2c0.8,2.8,0.9,5.9,1.6,8.8c-1.2-2-2-4.1-2.6-6.4
	c-0.1-0.1-0.3-0.1-0.5,0"/>
<path class="st5" d="M1040.8,596.9c2,1.8,4.1,3.7,6.1,5.5c1.5,1.3,9,6.2,11.3,7.2c4,1.6,7.8,4,18.7,3.2c12.3-0.9,16.9-7,20.7-11.5
	c2.3-2.8,4.1-8.8,5.4-12.2"/>
<circle class="st6" cx="778.3" cy="245.7" r="4"/>
<path class="st6" d="M769.9,247.3c0.3-0.6,0.4-1.2,0.4-1.8c0-2.3-1.9-4.2-4.2-4.2c-2.3,0-4.2,1.9-4.2,4.2c0,1,0.4,1.9,1,2.6
	c-0.2,0.5-0.3,1-0.3,1.5c0,2.2,1.8,4,4,4c2.2,0,4-1.8,4-4C770.7,248.8,770.4,248,769.9,247.3z"/>
<circle class="st7" cx="806.7" cy="285" r="2.7"/>
<circle class="st7" cx="797.3" cy="286.7" r="4"/>
<path class="st8" d="M1101.4,590.9c1.9-0.9,2-3.8,2.4-5.9c0.3-1.5,0.5-3.1,0.7-4.6c-2.8-1-6-0.7-8.8,0.3c-2.8,0.9-5.4,2.5-7.9,4.2
	c-2.2,1.5-4.4,3.1-5.7,5.4c-2.9-0.9-5.8-2-8.7-2.7c-1.9-0.5-3.9-0.9-5.9-0.9c-7.6-0.2-14.2,5-21.6,6.9c-3.2,0.8-6.5,1-9.7,2
	c1.7,0.4,3.3,1.2,5,1.9C1047,599.9,1076.9,602.5,1101.4,590.9z"/>
<path class="st9" d="M743.6,239.1l-36.3,2L682.4,226c0,0-15.1,31.8,20.8,26.9l40.8-4.1"/>
<path class="st10" d="M716.7,297.1l-16.1,7.4c0,0-6,7.9,3.6,10.3l17.5-4.8C721.7,310,728.6,303.7,716.7,297.1z"/>
<circle class="st6" cx="773" cy="242.7" r="29.3"/>
<circle class="st7" cx="803" cy="282.7" r="20"/>
</svg>
